Charis-BoldItalic.ufo
<glyph name="ExclamationMrk" format="2">
  <advance width="778"/>
  <unicode hex="0021"/>
  <outline>
    <contour>
      <point x="694" y="1262" type="line"/>
      <point x="694" y="1362"/>
      <point x="655" y="1407"/>
      <point x="555" y="1407" type="curve" smooth="yes"/>
      <point x="453" y="1407"/>
      <point x="354" y="1329"/>
      <point x="354" y="1214" type="curve"/>
      <point x="307" y="426" type="line"/>
      <point x="418" y="426" type="line"/>
    </contour>
    <contour>
      <point x="492" y="133" type="curve" smooth="yes"/>
      <point x="492" y="225"/>
      <point x="424" y="305"/>
      <point x="326" y="305" type="curve" smooth="yes"/>
      <point x="238" y="305"/>
      <point x="170" y="231"/>
      <point x="170" y="141" type="curve" smooth="yes"/>
      <point x="170" y="53"/>
      <point x="236" y="-25"/>
      <point x="324" y="-25" type="curve" smooth="yes"/>
      <point x="414" y="-25"/>
      <point x="492" y="43"/>
    </contour>
  </outline>
</glyph>
<glyph name="DollarSgn" format="2">
  <advance width="1225"/>
  <unicode hex="0024"/>
  <outline>
    <contour>
      <point x="1200" y="1309" type="line"/>
      <point x="1200" y="1309"/>
      <point x="1010" y="1368"/>
      <point x="842" y="1368" type="curve"/>
      <point x="872" y="1520" type="line"/>
      <point x="752" y="1520" type="line"/>
      <point x="721" y="1368" type="line"/>
      <point x="721" y="1368"/>
      <point x="309" y="1352"/>
      <point x="236" y="977" type="curve" smooth="yes"/>
      <point x="180" y="700"/>
      <point x="420" y="623"/>
      <point x="563" y="578" type="curve"/>
      <point x="475" y="127" type="line"/>
      <point x="475" y="127"/>
      <point x="348" y="129"/>
      <point x="270" y="172" type="curve" smooth="yes"/>
      <point x="252" y="182"/>
      <point x="254" y="176"/>
      <point x="254" y="201" type="curve" smooth="yes"/>
      <point x="260" y="422" type="line"/>
      <point x="113" y="422" type="line"/>
      <point x="43" y="68" type="line"/>
      <point x="207" y="10"/>
      <point x="451" y="0"/>
      <point x="451" y="0" type="curve"/>
      <point x="410" y="-209" type="line"/>
      <point x="530" y="-209" type="line"/>
      <point x="571" y="2" type="line"/>
      <point x="838" y="39"/>
      <point x="1051" y="186"/>
      <point x="1096" y="420" type="curve" smooth="yes"/>
      <point x="1153" y="707"/>
      <point x="860" y="784"/>
      <point x="733" y="821" type="curve"/>
      <point x="817" y="1243" type="line"/>
      <point x="842" y="1243"/>
      <point x="938" y="1225"/>
      <point x="979" y="1206" type="curve" smooth="yes"/>
      <point x="989" y="1202"/>
      <point x="997" y="1198"/>
      <point x="995" y="1182" type="curve"/>
      <point x="991" y="967" type="line"/>
      <point x="1133" y="967" type="line"/>
    </contour>
    <contour>
      <point x="694" y="1237" type="curve"/>
      <point x="618" y="850" type="line"/>
      <point x="618" y="850"/>
      <point x="477" y="885"/>
      <point x="510" y="1051" type="curve" smooth="yes"/>
      <point x="545" y="1227"/>
      <point x="694" y="1237"/>
    </contour>
    <contour>
      <point x="821" y="346" type="curve" smooth="yes"/>
      <point x="782" y="147"/>
      <point x="598" y="133"/>
      <point x="598" y="133" type="curve"/>
      <point x="680" y="547" type="line"/>
      <point x="745" y="528"/>
      <point x="848" y="481"/>
    </contour>
  </outline>
</glyph>
<glyph name="RtParen" format="2">
  <advance width="868"/>
  <unicode hex="0029"/>
  <outline>
    <contour>
      <point x="723" y="899" type="curve" smooth="yes"/>
      <point x="723" y="1214"/>
      <point x="592" y="1458"/>
      <point x="250" y="1468" type="curve"/>
      <point x="227" y="1358" type="line"/>
      <point x="430" y="1331"/>
      <point x="475" y="1159"/>
      <point x="475" y="981" type="curve" smooth="yes"/>
      <point x="475" y="623"/>
      <point x="336" y="-127"/>
      <point x="-78" y="-180" type="curve"/>
      <point x="-98" y="-291" type="line"/>
      <point x="479" y="-274"/>
      <point x="723" y="414"/>
    </contour>
  </outline>
</glyph>
<glyph name="Comma" format="2">
  <advance width="657"/>
  <unicode hex="002C"/>
  <outline>
    <contour>
      <point x="410" y="172" type="curve" smooth="yes"/>
      <point x="410" y="270"/>
      <point x="344" y="317"/>
      <point x="252" y="317" type="curve" smooth="yes"/>
      <point x="141" y="317"/>
      <point x="41" y="221"/>
      <point x="41" y="111" type="curve" smooth="yes"/>
      <point x="41" y="74"/>
      <point x="55" y="39"/>
      <point x="82" y="14" type="curve"/>
      <point x="207" y="14" type="line"/>
      <point x="182" y="-143"/>
      <point x="57" y="-238"/>
      <point x="-94" y="-260" type="curve"/>
      <point x="-113" y="-360" type="line"/>
      <point x="119" y="-344"/>
      <point x="410" y="-66"/>
    </contour>
  </outline>
</glyph>
<glyph name="HyphenMinus" format="2">
  <advance width="713"/>
  <unicode hex="002D"/>
  <anchor x="475" y="1100" name="U"/>
  <outline>
    <contour>
      <point x="641" y="602" type="line"/>
      <point x="104" y="602" type="line"/>
      <point x="61" y="385" type="line"/>
      <point x="598" y="385" type="line"/>
    </contour>
  </outline>
</glyph>
<glyph name="DigitZero" format="2">
  <advance width="1225"/>
  <unicode hex="0030"/>
  <anchor x="483" y="-100" name="L"/>
  <anchor x="771" y="1500" name="U"/>
  <outline>
    <contour>
      <point x="1214" y="942" type="curve" smooth="yes"/>
      <point x="1214" y="1190"/>
      <point x="1104" y="1407"/>
      <point x="778" y="1407" type="curve" smooth="yes"/>
      <point x="279" y="1407"/>
      <point x="70" y="846"/>
      <point x="70" y="430" type="curve" smooth="yes"/>
      <point x="70" y="152"/>
      <point x="201" y="-33"/>
      <point x="510" y="-33" type="curve" smooth="yes"/>
      <point x="971" y="-33"/>
      <point x="1214" y="479"/>
    </contour>
    <contour>
      <point x="907" y="979" type="curve" smooth="yes"/>
      <point x="907" y="586"/>
      <point x="715" y="94"/>
      <point x="530" y="94" type="curve" smooth="yes"/>
      <point x="510" y="94"/>
      <point x="379" y="113"/>
      <point x="379" y="397" type="curve" smooth="yes"/>
      <point x="379" y="786"/>
      <point x="561" y="1282"/>
      <point x="758" y="1282" type="curve" smooth="yes"/>
      <point x="809" y="1282"/>
      <point x="907" y="1208"/>
    </contour>
  </outline>
</glyph>
<glyph name="DigitFive" format="2">
  <advance width="1225"/>
  <unicode hex="0035"/>
  <anchor x="468" y="-100" name="L"/>
  <anchor x="756" y="1500" name="U"/>
  <outline>
    <contour>
      <point x="1198" y="1374" type="line"/>
      <point x="362" y="1374" type="line"/>
      <point x="219" y="684" type="line"/>
      <point x="270" y="690"/>
      <point x="430" y="707"/>
      <point x="487" y="707" type="curve" smooth="yes"/>
      <point x="608" y="707"/>
      <point x="784" y="668"/>
      <point x="784" y="461" type="curve" smooth="yes"/>
      <point x="784" y="254"/>
      <point x="604" y="92"/>
      <point x="453" y="92" type="curve" smooth="yes"/>
      <point x="426" y="92"/>
      <point x="358" y="109"/>
      <point x="342" y="113" type="curve"/>
      <point x="287" y="287" type="line"/>
      <point x="254" y="293"/>
      <point x="231" y="319"/>
      <point x="190" y="319" type="curve" smooth="yes"/>
      <point x="92" y="319"/>
      <point x="20" y="238"/>
      <point x="20" y="166" type="curve" smooth="yes"/>
      <point x="20" y="53"/>
      <point x="141" y="-33"/>
      <point x="406" y="-33" type="curve" smooth="yes"/>
      <point x="809" y="-33"/>
      <point x="1087" y="229"/>
      <point x="1087" y="512" type="curve" smooth="yes"/>
      <point x="1087" y="754"/>
      <point x="895" y="850"/>
      <point x="657" y="850" type="curve" smooth="yes"/>
      <point x="594" y="850"/>
      <point x="539" y="844"/>
      <point x="496" y="836" type="curve"/>
      <point x="567" y="1190" type="line"/>
      <point x="1163" y="1190" type="line"/>
    </contour>
  </outline>
</glyph>
<glyph name="DigitSix" format="2">
  <advance width="1225"/>
  <unicode hex="0036"/>
  <anchor x="484" y="-100" name="L"/>
  <anchor x="772" y="1500" name="U"/>
  <outline>
    <contour>
      <point x="1149" y="557" type="curve" smooth="yes"/>
      <point x="1149" y="778"/>
      <point x="1004" y="934"/>
      <point x="731" y="934" type="curve" smooth="yes"/>
      <point x="627" y="934"/>
      <point x="539" y="913"/>
      <point x="465" y="881" type="curve"/>
      <point x="559" y="1122"/>
      <point x="801" y="1305"/>
      <point x="1124" y="1339" type="curve"/>
      <point x="1122" y="1473" type="line"/>
      <point x="438" y="1401"/>
      <point x="70" y="934"/>
      <point x="70" y="444" type="curve" smooth="yes"/>
      <point x="70" y="78"/>
      <point x="303" y="-33"/>
      <point x="547" y="-33" type="curve" smooth="yes"/>
      <point x="913" y="-33"/>
      <point x="1149" y="252"/>
    </contour>
    <contour>
      <point x="846" y="506" type="curve" smooth="yes"/>
      <point x="846" y="268"/>
      <point x="674" y="90"/>
      <point x="557" y="90" type="curve" smooth="yes"/>
      <point x="375" y="90"/>
      <point x="373" y="289"/>
      <point x="373" y="422" type="curve" smooth="yes"/>
      <point x="373" y="516"/>
      <point x="406" y="657"/>
      <point x="414" y="686" type="curve"/>
      <point x="524" y="768"/>
      <point x="600" y="782"/>
      <point x="643" y="782" type="curve" smooth="yes"/>
      <point x="758" y="782"/>
      <point x="846" y="690"/>
    </contour>
  </outline>
</glyph>
<glyph name="DigitSeven" format="2">
  <advance width="1225"/>
  <unicode hex="0037"/>
  <anchor x="496" y="-100" name="L"/>
  <anchor x="784" y="1500" name="U"/>
  <outline>
    <contour>
      <point x="1335" y="1374" type="line"/>
      <point x="274" y="1374" type="line"/>
      <point x="200" y="1008" type="line"/>
      <point x="366" y="1008" type="line"/>
      <point x="432" y="1190" type="line"/>
      <point x="989" y="1190" type="line"/>
      <point x="76" y="-76" type="line"/>
      <point x="370" y="-76" type="line"/>
      <point x="385" y="-18" type="line"/>
      <point x="1317" y="1276" type="line"/>
    </contour>
  </outline>
</glyph>
<glyph name="DigitNine" format="2">
  <advance width="1225"/>
  <unicode hex="0039"/>
  <anchor x="481" y="-100" name="L"/>
  <anchor x="769" y="1500" name="U"/>
  <outline>
    <contour>
      <point x="1227" y="973" type="curve" smooth="yes"/>
      <point x="1227" y="1346"/>
      <point x="958" y="1407"/>
      <point x="766" y="1407" type="curve" smooth="yes"/>
      <point x="379" y="1407"/>
      <point x="133" y="1133"/>
      <point x="133" y="827" type="curve" smooth="yes"/>
      <point x="133" y="571"/>
      <point x="326" y="459"/>
      <point x="549" y="459" type="curve" smooth="yes"/>
      <point x="627" y="459"/>
      <point x="711" y="475"/>
      <point x="786" y="502" type="curve"/>
      <point x="594" y="221"/>
      <point x="371" y="102"/>
      <point x="94" y="-4" type="curve"/>
      <point x="150" y="-129" type="line"/>
      <point x="680" y="35"/>
      <point x="1227" y="377"/>
    </contour>
    <contour>
      <point x="924" y="971" type="curve" smooth="yes"/>
      <point x="924" y="885"/>
      <point x="905" y="801"/>
      <point x="885" y="715" type="curve"/>
      <point x="864" y="693"/>
      <point x="774" y="600"/>
      <point x="641" y="600" type="curve" smooth="yes"/>
      <point x="588" y="600"/>
      <point x="442" y="662"/>
      <point x="442" y="868" type="curve" smooth="yes"/>
      <point x="442" y="1104"/>
      <point x="606" y="1288"/>
      <point x="731" y="1288" type="curve" smooth="yes"/>
      <point x="776" y="1288"/>
      <point x="924" y="1243"/>
    </contour>
  </outline>
</glyph>
<glyph name="LtnCapC" format="2">
  <advance width="1376"/>
  <unicode hex="0043"/>
  <anchor x="662" y="0" name="H"/>
  <anchor x="664" y="-100" name="L"/>
  <anchor x="952" y="1500" name="U"/>
  <outline>
    <contour>
      <point x="1407" y="1321" type="line"/>
      <point x="1245" y="1372"/>
      <point x="1122" y="1407"/>
      <point x="965" y="1407" type="curve" smooth="yes"/>
      <point x="422" y="1407"/>
      <point x="98" y="971"/>
      <point x="98" y="549" type="curve" smooth="yes"/>
      <point x="98" y="270"/>
      <point x="250" y="-33"/>
      <point x="711" y="-33" type="curve" smooth="yes"/>
      <point x="903" y="-33"/>
      <point x="1069" y="18"/>
      <point x="1174" y="55" type="curve"/>
      <point x="1237" y="426" type="line"/>
      <point x="1083" y="426" type="line"/>
      <point x="985" y="156" type="line" smooth="yes"/>
      <point x="979" y="141"/>
      <point x="969" y="127"/>
      <point x="949" y="121" type="curve" smooth="yes"/>
      <point x="923" y="113"/>
      <point x="841" y="92"/>
      <point x="778" y="92" type="curve" smooth="yes"/>
      <point x="602" y="92"/>
      <point x="401" y="215"/>
      <point x="401" y="526" type="curve" smooth="yes"/>
      <point x="401" y="1001"/>
      <point x="715" y="1282"/>
      <point x="975" y="1282" type="curve" smooth="yes"/>
      <point x="1036" y="1282"/>
      <point x="1140" y="1249"/>
      <point x="1163" y="1238" type="curve" smooth="yes"/>
      <point x="1190" y="1225"/>
      <point x="1194" y="1206"/>
      <point x="1194" y="1190" type="curve"/>
      <point x="1192" y="961" type="line"/>
      <point x="1343" y="961" type="line"/>
    </contour>
  </outline>
</glyph>
<glyph name="LtnCapQ" format="2">
  <advance width="1540"/>
  <unicode hex="0051"/>
  <anchor x="637" y="-500" name="L"/>
  <anchor x="1060" y="1500" name="U"/>
  <outline>
    <contour>
      <point x="1565" y="-221" type="curve"/>
      <point x="1565" y="-92" type="line"/>
      <point x="1460" y="-143"/>
      <point x="1358" y="-188"/>
      <point x="1286" y="-188" type="curve" smooth="yes"/>
      <point x="1187" y="-188"/>
      <point x="1138" y="-124"/>
      <point x="1051" y="45" type="curve"/>
      <point x="1432" y="262"/>
      <point x="1499" y="635"/>
      <point x="1499" y="852" type="curve" smooth="yes"/>
      <point x="1499" y="1155"/>
      <point x="1294" y="1407"/>
      <point x="905" y="1407" type="curve" smooth="yes"/>
      <point x="395" y="1407"/>
      <point x="94" y="940"/>
      <point x="94" y="530" type="curve" smooth="yes"/>
      <point x="94" y="182"/>
      <point x="338" y="-37"/>
      <point x="692" y="-37" type="curve" smooth="yes"/>
      <point x="717" y="-37"/>
      <point x="739" y="-35"/>
      <point x="758" y="-33" type="curve"/>
      <point x="829" y="-188"/>
      <point x="922" y="-328"/>
      <point x="1176" y="-328" type="curve" smooth="yes"/>
      <point x="1329" y="-328"/>
      <point x="1528" y="-240"/>
    </contour>
    <contour>
      <point x="1182" y="852" type="curve" smooth="yes"/>
      <point x="1182" y="489"/>
      <point x="948" y="90"/>
      <point x="711" y="90" type="curve" smooth="yes"/>
      <point x="553" y="90"/>
      <point x="410" y="258"/>
      <point x="410" y="520" type="curve" smooth="yes"/>
      <point x="410" y="907"/>
      <point x="647" y="1282"/>
      <point x="895" y="1282" type="curve" smooth="yes"/>
      <point x="1036" y="1282"/>
      <point x="1182" y="1116"/>
    </contour>
  </outline>
</glyph>
<glyph name="LtnCapR" format="2">
  <advance width="1399"/>
  <unicode hex="0052"/>
  <anchor x="243" y="0" name="H"/>
  <anchor x="513" y="-100" name="L"/>
  <anchor x="801" y="1500" name="U"/>
  <outline>
    <contour>
      <point x="1153" y="-33" type="curve" smooth="yes"/>
      <point x="1227" y="-33"/>
      <point x="1284" y="-20"/>
      <point x="1346" y="6" type="curve"/>
      <point x="1346" y="102" type="line"/>
      <point x="1139" y="102"/>
      <point x="1119" y="178"/>
      <point x="1083" y="322" type="curve" smooth="yes"/>
      <point x="1042" y="484"/>
      <point x="1015" y="582"/>
      <point x="866" y="649" type="curve"/>
      <point x="1098" y="717"/>
      <point x="1276" y="852"/>
      <point x="1276" y="1067" type="curve" smooth="yes"/>
      <point x="1276" y="1294"/>
      <point x="1063" y="1374"/>
      <point x="788" y="1374" type="curve" smooth="yes"/>
      <point x="197" y="1374" type="line"/>
      <point x="197" y="1272" type="line"/>
      <point x="315" y="1262" type="line"/>
      <point x="342" y="1260"/>
      <point x="356" y="1253"/>
      <point x="350" y="1231" type="curve"/>
      <point x="141" y="145" type="line" smooth="yes"/>
      <point x="136" y="119"/>
      <point x="119" y="113"/>
      <point x="94" y="111" type="curve"/>
      <point x="-27" y="102" type="line"/>
      <point x="-27" y="0" type="line"/>
      <point x="592" y="0" type="line"/>
      <point x="592" y="102" type="line"/>
      <point x="467" y="113" type="line"/>
      <point x="440" y="115"/>
      <point x="430" y="121"/>
      <point x="434" y="143" type="curve" smooth="yes"/>
      <point x="520" y="596" type="line"/>
      <point x="543" y="597"/>
      <point x="569" y="598"/>
      <point x="586" y="598" type="curve" smooth="yes"/>
      <point x="731" y="598"/>
      <point x="770" y="430"/>
      <point x="797" y="301" type="curve" smooth="yes"/>
      <point x="842" y="86"/>
      <point x="901" y="-33"/>
    </contour>
    <contour>
      <point x="547" y="721" type="line"/>
      <point x="647" y="1251" type="line"/>
      <point x="663" y="1253"/>
      <point x="681" y="1255"/>
      <point x="698" y="1255" type="curve" smooth="yes"/>
      <point x="762" y="1255"/>
      <point x="958" y="1235"/>
      <point x="958" y="1036" type="curve" smooth="yes"/>
      <point x="958" y="803"/>
      <point x="754" y="721"/>
      <point x="598" y="721" type="curve" smooth="yes"/>
    </contour>
  </outline>
</glyph>
<glyph name="LtnCapS" format="2">
  <advance width="1153"/>
  <unicode hex="0053"/>
  <anchor x="481" y="0" name="H"/>
  <anchor x="461" y="-100" name="L"/>
  <anchor x="771" y="1500" name="U"/>
  <outline>
    <contour>
      <point x="1139" y="1325" type="line"/>
      <point x="1057" y="1362"/>
      <point x="932" y="1407"/>
      <point x="748" y="1407" type="curve" smooth="yes"/>
      <point x="389" y="1407"/>
      <point x="172" y="1217"/>
      <point x="172" y="954" type="curve" smooth="yes"/>
      <point x="172" y="801"/>
      <point x="313" y="709"/>
      <point x="459" y="635" type="curve" smooth="yes"/>
      <point x="639" y="544"/>
      <point x="743" y="490"/>
      <point x="743" y="379" type="curve" smooth="yes"/>
      <point x="743" y="188"/>
      <point x="578" y="94"/>
      <point x="455" y="94" type="curve" smooth="yes"/>
      <point x="385" y="94"/>
      <point x="211" y="158"/>
      <point x="213" y="174" type="curve" smooth="yes"/>
      <point x="236" y="418" type="line"/>
      <point x="61" y="418" type="line"/>
      <point x="-10" y="82" type="line"/>
      <point x="27" y="59"/>
      <point x="201" y="-33"/>
      <point x="426" y="-33" type="curve" smooth="yes"/>
      <point x="899" y="-33"/>
      <point x="1042" y="238"/>
      <point x="1042" y="424" type="curve" smooth="yes"/>
      <point x="1042" y="602"/>
      <point x="885" y="700"/>
      <point x="752" y="760" type="curve" smooth="yes"/>
      <point x="605" y="826"/>
      <point x="467" y="896"/>
      <point x="467" y="1022" type="curve" smooth="yes"/>
      <point x="467" y="1188"/>
      <point x="625" y="1286"/>
      <point x="731" y="1286" type="curve" smooth="yes"/>
      <point x="807" y="1286"/>
      <point x="923" y="1233"/>
      <point x="922" y="1219" type="curve" smooth="yes"/>
      <point x="913" y="1006" type="line"/>
      <point x="1069" y="1006" type="line"/>
    </contour>
  </outline>
</glyph>
<glyph name="LftSqrBrac" format="2">
  <advance width="918"/>
  <unicode hex="005B"/>
  <outline>
    <contour>
      <point x="995" y="1327" type="line"/>
      <point x="1020" y="1450" type="line"/>
      <point x="451" y="1450" type="line"/>
      <point x="111" y="-270" type="line"/>
      <point x="678" y="-270" type="line"/>
      <point x="702" y="-152" type="line"/>
      <point x="387" y="-152" type="line"/>
      <point x="682" y="1327" type="line"/>
    </contour>
  </outline>
</glyph>
<glyph name="LtnSmI" format="2">
  <advance width="635"/>
  <unicode hex="0069"/>
  <anchor x="239" y="0" name="H"/>
  <anchor x="226" y="-100" name="L"/>
  <anchor x="482" y="0" name="O"/>
  <anchor x="635" y="1000" name="R"/>
  <anchor x="473" y="1500" name="U"/>
  <outline>
    <contour>
      <point x="604" y="1358" type="curve" smooth="yes"/>
      <point x="604" y="1446"/>
      <point x="532" y="1516"/>
      <point x="444" y="1516" type="curve" smooth="yes"/>
      <point x="356" y="1516"/>
      <point x="287" y="1446"/>
      <point x="287" y="1358" type="curve" smooth="yes"/>
      <point x="287" y="1270"/>
      <point x="356" y="1198"/>
      <point x="444" y="1198" type="curve" smooth="yes"/>
      <point x="532" y="1198"/>
      <point x="604" y="1270"/>
    </contour>
    <contour>
      <point x="631" y="66" type="curve"/>
      <point x="631" y="178" type="line"/>
      <point x="555" y="137"/>
      <point x="440" y="109"/>
      <point x="418" y="109" type="curve" smooth="yes"/>
      <point x="369" y="109"/>
      <point x="369" y="154"/>
      <point x="379" y="203" type="curve" smooth="yes"/>
      <point x="537" y="1024" type="line"/>
      <point x="393" y="1024" type="line"/>
      <point x="55" y="956" type="line"/>
      <point x="55" y="885" type="line"/>
      <point x="231" y="866" type="line"/>
      <point x="102" y="186" type="line"/>
      <point x="82" y="86"/>
      <point x="135" y="-25"/>
      <point x="285" y="-25" type="curve" smooth="yes"/>
      <point x="403" y="-25"/>
      <point x="508" y="0"/>
    </contour>
  </outline>
</glyph>
<glyph name="LtnSmJ" format="2">
  <advance width="651"/>
  <unicode hex="006A"/>
  <anchor x="-1" y="-500" name="L"/>
  <anchor x="179" y="-404" name="O"/>
  <anchor x="493" y="1500" name="U"/>
  <outline>
    <contour>
      <point x="637" y="1358" type="curve" smooth="yes"/>
      <point x="637" y="1446"/>
      <point x="563" y="1516"/>
      <point x="475" y="1516" type="curve" smooth="yes"/>
      <point x="387" y="1516"/>
      <point x="317" y="1446"/>
      <point x="317" y="1358" type="curve" smooth="yes"/>
      <point x="317" y="1270"/>
      <point x="387" y="1198"/>
      <point x="475" y="1198" type="curve" smooth="yes"/>
      <point x="563" y="1198"/>
      <point x="637" y="1270"/>
    </contour>
    <contour>
      <point x="563" y="1024" type="line"/>
      <point x="428" y="1024" type="line"/>
      <point x="88" y="956" type="line"/>
      <point x="88" y="883" type="line"/>
      <point x="264" y="864" type="line"/>
      <point x="113" y="-12" type="line" smooth="yes"/>
      <point x="94" y="-113"/>
      <point x="51" y="-233"/>
      <point x="14" y="-291" type="curve"/>
      <point x="-180" y="-240" type="line"/>
      <point x="-227" y="-270"/>
      <point x="-264" y="-299"/>
      <point x="-264" y="-350" type="curve" smooth="yes"/>
      <point x="-264" y="-418"/>
      <point x="-182" y="-469"/>
      <point x="-86" y="-469" type="curve" smooth="yes"/>
      <point x="197" y="-469"/>
      <point x="381" y="-35"/>
      <point x="418" y="172" type="curve"/>
    </contour>
  </outline>
</glyph>
<glyph name="LtnSmK" format="2">
  <advance width="1126"/>
  <unicode hex="006B"/>
  <anchor x="154" y="0" name="H"/>
  <anchor x="439" y="-100" name="L"/>
  <anchor x="1126" y="1000" name="R"/>
  <anchor x="755" y="1540" name="U"/>
  <outline>
    <contour>
      <point x="1102" y="53" type="curve"/>
      <point x="1102" y="162" type="line"/>
      <point x="1001" y="121"/>
      <point x="956" y="104"/>
      <point x="934" y="104" type="curve" smooth="yes"/>
      <point x="869" y="104"/>
      <point x="816" y="205"/>
      <point x="762" y="311" type="curve" smooth="yes"/>
      <point x="705" y="423"/>
      <point x="651" y="578"/>
      <point x="614" y="647" type="curve"/>
      <point x="666" y="692"/>
      <point x="754" y="784"/>
      <point x="819" y="840" type="curve"/>
      <point x="901" y="707" type="line"/>
      <point x="1038" y="753"/>
      <point x="1072" y="825"/>
      <point x="1072" y="887" type="curve" smooth="yes"/>
      <point x="1072" y="973"/>
      <point x="999" y="1024"/>
      <point x="907" y="1024" type="curve" smooth="yes"/>
      <point x="817" y="1024"/>
      <point x="747" y="989"/>
      <point x="677" y="918" type="curve" smooth="yes"/>
      <point x="432" y="668" type="line"/>
      <point x="604" y="1509" type="line"/>
      <point x="465" y="1509" type="line"/>
      <point x="119" y="1444" type="line"/>
      <point x="119" y="1370" type="line"/>
      <point x="299" y="1354" type="line"/>
      <point x="25" y="0" type="line"/>
      <point x="297" y="0" type="line"/>
      <point x="383" y="420" type="line"/>
      <point x="426" y="459" type="line"/>
      <point x="476" y="348"/>
      <point x="562" y="158"/>
      <point x="608" y="88" type="curve" smooth="yes"/>
      <point x="644" y="33"/>
      <point x="733" y="-25"/>
      <point x="807" y="-25" type="curve" smooth="yes"/>
      <point x="901" y="-25"/>
      <point x="1034" y="18"/>
    </contour>
  </outline>
</glyph>
<glyph name="LtnSmY" format="2">
  <advance width="1112"/>
  <unicode hex="0079"/>
  <anchor x="772" y="-100" name="L"/>
  <anchor x="360" y="-404" name="O"/>
  <anchor x="1112" y="1000" name="R"/>
  <anchor x="666" y="1100" name="U"/>
  <outline>
    <contour>
      <point x="1171" y="909" type="line"/>
      <point x="1171" y="963" type="line"/>
      <point x="977" y="1024" type="line"/>
      <point x="879" y="1024" type="line"/>
      <point x="598" y="406" type="line"/>
      <point x="565" y="565"/>
      <point x="530" y="729"/>
      <point x="502" y="823" type="curve" smooth="yes"/>
      <point x="444" y="1016"/>
      <point x="389" y="1024"/>
      <point x="297" y="1024" type="curve" smooth="yes"/>
      <point x="254" y="1024"/>
      <point x="53" y="965"/>
      <point x="6" y="948" type="curve"/>
      <point x="6" y="885" type="line"/>
      <point x="211" y="869" type="line" smooth="yes"/>
      <point x="238" y="867"/>
      <point x="279" y="659"/>
      <point x="316" y="471" type="curve" smooth="yes"/>
      <point x="354" y="276"/>
      <point x="392" y="76"/>
      <point x="397" y="43" type="curve"/>
      <point x="283" y="-166"/>
      <point x="180" y="-279"/>
      <point x="88" y="-299" type="curve"/>
      <point x="0" y="-143" type="line"/>
      <point x="-127" y="-143"/>
      <point x="-166" y="-246"/>
      <point x="-166" y="-313" type="curve" smooth="yes"/>
      <point x="-166" y="-371"/>
      <point x="-117" y="-469"/>
      <point x="49" y="-469" type="curve" smooth="yes"/>
      <point x="297" y="-469"/>
      <point x="468" y="-266"/>
      <point x="604" y="-29" type="curve" smooth="yes"/>
      <point x="732" y="194"/>
      <point x="841" y="444"/>
      <point x="897" y="575" type="curve" smooth="yes"/>
      <point x="933" y="659"/>
      <point x="1032" y="813"/>
      <point x="1065" y="844" type="curve"/>
    </contour>
  </outline>
</glyph>
<glyph name="LftCurlyBrac" format="2">
  <advance width="1014"/>
  <unicode hex="007B"/>
  <outline>
    <contour>
      <point x="1042" y="1446" type="line"/>
      <point x="995" y="1446"/>
      <point x="743" y="1454"/>
      <point x="623" y="1362" type="curve" smooth="yes"/>
      <point x="403" y="1196"/>
      <point x="485" y="836"/>
      <point x="342" y="715" type="curve" smooth="yes"/>
      <point x="248" y="635"/>
      <point x="106" y="659"/>
      <point x="106" y="659" type="curve"/>
      <point x="84" y="537" type="line"/>
      <point x="84" y="537"/>
      <point x="233" y="559"/>
      <point x="297" y="479" type="curve" smooth="yes"/>
      <point x="393" y="358"/>
      <point x="166" y="0"/>
      <point x="319" y="-166" type="curve" smooth="yes"/>
      <point x="403" y="-258"/>
      <point x="659" y="-250"/>
      <point x="707" y="-250" type="curve"/>
      <point x="729" y="-137" type="line"/>
      <point x="729" y="-137"/>
      <point x="598" y="-143"/>
      <point x="547" y="-82" type="curve" smooth="yes"/>
      <point x="446" y="39"/>
      <point x="653" y="346"/>
      <point x="516" y="506" type="curve" smooth="yes"/>
      <point x="438" y="598"/>
      <point x="313" y="598"/>
      <point x="313" y="598" type="curve"/>
      <point x="313" y="598"/>
      <point x="438" y="596"/>
      <point x="553" y="688" type="curve" smooth="yes"/>
      <point x="752" y="846"/>
      <point x="670" y="1157"/>
      <point x="815" y="1278" type="curve" smooth="yes"/>
      <point x="891" y="1339"/>
      <point x="1022" y="1333"/>
      <point x="1022" y="1333" type="curve"/>
    </contour>
  </outline>
</glyph>
<glyph name="CentSgn" format="2">
  <advance width="1225"/>
  <unicode hex="00A2"/>
  <outline>
    <contour>
      <point x="1151" y="958" type="line"/>
      <point x="1034" y="991"/>
      <point x="948" y="1014"/>
      <point x="848" y="1022" type="curve"/>
      <point x="885" y="1212" type="line"/>
      <point x="725" y="1212" type="line"/>
      <point x="688" y="1018" type="line"/>
      <point x="307" y="975"/>
      <point x="84" y="686"/>
      <point x="84" y="403" type="curve" smooth="yes"/>
      <point x="84" y="219"/>
      <point x="186" y="18"/>
      <point x="485" y="-18" type="curve"/>
      <point x="444" y="-225" type="line"/>
      <point x="602" y="-225" type="line"/>
      <point x="643" y="-23" type="line"/>
      <point x="772" y="-14"/>
      <point x="883" y="16"/>
      <point x="961" y="41" type="curve"/>
      <point x="1014" y="322" type="line"/>
      <point x="874" y="322" type="line"/>
      <point x="844" y="248"/>
      <point x="850" y="117"/>
      <point x="770" y="104" type="curve"/>
      <point x="754" y="98"/>
      <point x="707" y="88"/>
      <point x="664" y="86" type="curve"/>
      <point x="825" y="913" type="line"/>
      <point x="872" y="907"/>
      <point x="928" y="891"/>
      <point x="940" y="885" type="curve"/>
      <point x="991" y="872"/>
      <point x="958" y="698"/>
      <point x="958" y="686" type="curve"/>
      <point x="1096" y="686" type="line"/>
    </contour>
    <contour>
      <point x="664" y="889" type="curve"/>
      <point x="510" y="111" type="line"/>
      <point x="420" y="150"/>
      <point x="346" y="238"/>
      <point x="346" y="385" type="curve" smooth="yes"/>
      <point x="346" y="649"/>
      <point x="500" y="825"/>
    </contour>
  </outline>
</glyph>
<glyph name="YenSgn" format="2">
  <advance width="1225"/>
  <unicode hex="00A5"/>
  <outline>
    <contour>
      <point x="223" y="0" type="line"/>
      <point x="842" y="0" type="line"/>
      <point x="842" y="102" type="line"/>
      <point x="725" y="113" type="line"/>
      <point x="696" y="115"/>
      <point x="682" y="119"/>
      <point x="686" y="143" type="curve" smooth="yes"/>
      <point x="754" y="473" type="line"/>
      <point x="1155" y="473" type="line"/>
      <point x="1155" y="586" type="line"/>
      <point x="782" y="586" type="line"/>
      <point x="922" y="764" type="line"/>
      <point x="1212" y="764" type="line"/>
      <point x="1212" y="877" type="line"/>
      <point x="1010" y="877" type="line"/>
      <point x="1298" y="1247" type="line"/>
      <point x="1423" y="1272" type="line"/>
      <point x="1423" y="1374" type="line"/>
      <point x="901" y="1374" type="line"/>
      <point x="901" y="1272" type="line"/>
      <point x="1004" y="1264" type="line" smooth="yes"/>
      <point x="1034" y="1262"/>
      <point x="1036" y="1243"/>
      <point x="1026" y="1233" type="curve"/>
      <point x="690" y="786" type="line"/>
      <point x="549" y="1231" type="line"/>
      <point x="539" y="1257"/>
      <point x="559" y="1262"/>
      <point x="582" y="1264" type="curve"/>
      <point x="698" y="1272" type="line"/>
      <point x="698" y="1374" type="line"/>
      <point x="113" y="1374" type="line"/>
      <point x="113" y="1272" type="line"/>
      <point x="246" y="1249" type="line"/>
      <point x="369" y="877" type="line"/>
      <point x="115" y="877" type="line"/>
      <point x="115" y="764" type="line"/>
      <point x="406" y="764" type="line"/>
      <point x="465" y="586" type="line"/>
      <point x="57" y="586" type="line"/>
      <point x="57" y="473" type="line"/>
      <point x="457" y="473" type="line"/>
      <point x="391" y="145" type="line" smooth="yes"/>
      <point x="385" y="119"/>
      <point x="367" y="115"/>
      <point x="340" y="113" type="curve"/>
      <point x="223" y="102" type="line"/>
    </contour>
  </outline>
</glyph>
<glyph name="SectionSgn" format="2">
  <advance width="1108"/>
  <unicode hex="00A7"/>
  <outline>
    <contour>
      <point x="1104" y="1411" type="line"/>
      <point x="1016" y="1450"/>
      <point x="889" y="1470"/>
      <point x="782" y="1470" type="curve" smooth="yes"/>
      <point x="498" y="1470"/>
      <point x="268" y="1352"/>
      <point x="268" y="1116" type="curve" smooth="yes"/>
      <point x="268" y="1024"/>
      <point x="328" y="958"/>
      <point x="420" y="903" type="curve"/>
      <point x="244" y="825"/>
      <point x="121" y="705"/>
      <point x="121" y="526" type="curve" smooth="yes"/>
      <point x="121" y="428"/>
      <point x="164" y="360"/>
      <point x="229" y="307" type="curve" smooth="yes"/>
      <point x="383" y="182"/>
      <point x="596" y="154"/>
      <point x="596" y="10" type="curve" smooth="yes"/>
      <point x="596" y="-117"/>
      <point x="444" y="-168"/>
      <point x="406" y="-168" type="curve" smooth="yes"/>
      <point x="387" y="-168"/>
      <point x="287" y="-162"/>
      <point x="229" y="-127" type="curve"/>
      <point x="236" y="66" type="line"/>
      <point x="74" y="66" type="line"/>
      <point x="25" y="-213" type="line"/>
      <point x="121" y="-258"/>
      <point x="233" y="-287"/>
      <point x="369" y="-287" type="curve" smooth="yes"/>
      <point x="647" y="-287"/>
      <point x="870" y="-135"/>
      <point x="870" y="84" type="curve" smooth="yes"/>
      <point x="870" y="176"/>
      <point x="807" y="246"/>
      <point x="711" y="299" type="curve"/>
      <point x="877" y="373"/>
      <point x="1022" y="516"/>
      <point x="1022" y="678" type="curve" smooth="yes"/>
      <point x="1022" y="774"/>
      <point x="975" y="840"/>
      <point x="911" y="893" type="curve" smooth="yes"/>
      <point x="772" y="1006"/>
      <point x="547" y="1053"/>
      <point x="547" y="1182" type="curve" smooth="yes"/>
      <point x="547" y="1307"/>
      <point x="694" y="1354"/>
      <point x="729" y="1354" type="curve" smooth="yes"/>
      <point x="748" y="1354"/>
      <point x="846" y="1346"/>
      <point x="903" y="1309" type="curve"/>
      <point x="895" y="1135" type="line"/>
      <point x="1051" y="1135" type="line"/>
    </contour>
    <contour>
      <point x="741" y="625" type="curve" smooth="yes"/>
      <point x="741" y="526"/>
      <point x="672" y="438"/>
      <point x="573" y="373" type="curve"/>
      <point x="430" y="453"/>
      <point x="397" y="504"/>
      <point x="397" y="592" type="curve" smooth="yes"/>
      <point x="397" y="668"/>
      <point x="442" y="774"/>
      <point x="561" y="834" type="curve"/>
      <point x="698" y="768"/>
      <point x="741" y="702"/>
    </contour>
  </outline>
</glyph>
<glyph name="FemOrdIndicator" format="2">
  <advance width="756"/>
  <unicode hex="00AA"/>
  <outline>
    <contour>
      <point x="375" y="770" type="curve" smooth="yes"/>
      <point x="436" y="770"/>
      <point x="500" y="797"/>
      <point x="547" y="825" type="curve"/>
      <point x="563" y="788"/>
      <point x="602" y="770"/>
      <point x="659" y="770" type="curve" smooth="yes"/>
      <point x="727" y="770"/>
      <point x="801" y="799"/>
      <point x="862" y="821" type="curve"/>
      <point x="862" y="881" type="line"/>
      <point x="848" y="877"/>
      <point x="752" y="854"/>
      <point x="745" y="854" type="curve" smooth="yes"/>
      <point x="713" y="854"/>
      <point x="709" y="866"/>
      <point x="709" y="903" type="curve"/>
      <point x="738" y="1038"/>
      <point x="766" y="1174"/>
      <point x="795" y="1309" type="curve"/>
      <point x="799" y="1319"/>
      <point x="819" y="1358"/>
      <point x="829" y="1382" type="curve"/>
      <point x="686" y="1382" type="line"/>
      <point x="678" y="1372" type="line"/>
      <point x="647" y="1386"/>
      <point x="606" y="1399"/>
      <point x="567" y="1399" type="curve" smooth="yes"/>
      <point x="281" y="1399"/>
      <point x="152" y="1178"/>
      <point x="152" y="993" type="curve" smooth="yes"/>
      <point x="152" y="903"/>
      <point x="209" y="770"/>
    </contour>
    <contour>
      <point x="84" y="610" type="line"/>
      <point x="727" y="610" type="line"/>
      <point x="748" y="711" type="line"/>
      <point x="104" y="711" type="line"/>
    </contour>
    <contour>
      <point x="418" y="862" type="curve" smooth="yes"/>
      <point x="336" y="862"/>
      <point x="340" y="936"/>
      <point x="340" y="1001" type="curve" smooth="yes"/>
      <point x="340" y="1143"/>
      <point x="416" y="1327"/>
      <point x="588" y="1327" type="curve" smooth="yes"/>
      <point x="602" y="1327"/>
      <point x="610" y="1276"/>
      <point x="608" y="1268" type="curve"/>
      <point x="539" y="934" type="line"/>
      <point x="520" y="918"/>
      <point x="473" y="862"/>
    </contour>
  </outline>
</glyph>
<glyph name="RegisteredSgn" format="2">
  <advance width="1714"/>
  <unicode hex="00AE"/>
  <outline>
    <contour>
      <point x="1690" y="717" type="curve" smooth="yes"/>
      <point x="1690" y="1157"/>
      <point x="1331" y="1513"/>
      <point x="899" y="1513" type="curve" smooth="yes"/>
      <point x="461" y="1513"/>
      <point x="104" y="1155"/>
      <point x="104" y="717" type="curve" smooth="yes"/>
      <point x="104" y="276"/>
      <point x="461" y="-80"/>
      <point x="895" y="-80" type="curve" smooth="yes"/>
      <point x="1335" y="-80"/>
      <point x="1690" y="276"/>
    </contour>
    <contour>
      <point x="1591" y="717" type="curve" smooth="yes"/>
      <point x="1591" y="334"/>
      <point x="1282" y="16"/>
      <point x="897" y="16" type="curve" smooth="yes"/>
      <point x="512" y="16"/>
      <point x="203" y="332"/>
      <point x="203" y="713" type="curve" smooth="yes"/>
      <point x="203" y="1108"/>
      <point x="518" y="1417"/>
      <point x="899" y="1417" type="curve" smooth="yes"/>
      <point x="1282" y="1417"/>
      <point x="1591" y="1104"/>
    </contour>
    <contour>
      <point x="1376" y="291" type="curve"/>
      <point x="1376" y="358" type="line"/>
      <point x="1092" y="324"/>
      <point x="1278" y="670"/>
      <point x="975" y="731" type="curve"/>
      <point x="1049" y="741"/>
      <point x="1212" y="784"/>
      <point x="1212" y="965" type="curve" smooth="yes"/>
      <point x="1212" y="1155"/>
      <point x="1016" y="1188"/>
      <point x="918" y="1188" type="curve" smooth="yes"/>
      <point x="463" y="1188" type="line"/>
      <point x="463" y="1120" type="line"/>
      <point x="535" y="1112" type="line" smooth="yes"/>
      <point x="551" y="1110"/>
      <point x="565" y="1100"/>
      <point x="565" y="1083" type="curve" smooth="yes"/>
      <point x="565" y="395" type="line" smooth="yes"/>
      <point x="565" y="377"/>
      <point x="551" y="365"/>
      <point x="535" y="365" type="curve"/>
      <point x="463" y="358" type="line"/>
      <point x="463" y="291" type="line"/>
      <point x="868" y="291" type="line"/>
      <point x="868" y="358" type="line"/>
      <point x="793" y="365" type="line" smooth="yes"/>
      <point x="778" y="365"/>
      <point x="762" y="377"/>
      <point x="762" y="395" type="curve" smooth="yes"/>
      <point x="762" y="684" type="line"/>
      <point x="778" y="684"/>
      <point x="778" y="682"/>
      <point x="788" y="682" type="curve" smooth="yes"/>
      <point x="1059" y="682"/>
      <point x="895" y="283"/>
      <point x="1249" y="283" type="curve" smooth="yes"/>
      <point x="1284" y="283"/>
      <point x="1317" y="283"/>
    </contour>
    <contour>
      <point x="1008" y="918" type="curve" smooth="yes"/>
      <point x="1008" y="766"/>
      <point x="891" y="739"/>
      <point x="807" y="739" type="curve" smooth="yes"/>
      <point x="799" y="739"/>
      <point x="786" y="739"/>
      <point x="762" y="741" type="curve"/>
      <point x="762" y="1085" type="line"/>
      <point x="784" y="1085"/>
      <point x="805" y="1085"/>
      <point x="805" y="1085" type="curve"/>
      <point x="936" y="1085"/>
      <point x="1008" y="1030"/>
    </contour>
  </outline>
</glyph>
<glyph name="SupTwo" format="2">
  <advance width="797"/>
  <unicode hex="00B2"/>
  <anchor x="430" y="725" name="L"/>
  <anchor x="599" y="1650" name="U"/>
  <outline>
    <contour>
      <point x="891" y="1442" type="curve" smooth="yes"/>
      <point x="891" y="1569"/>
      <point x="788" y="1628"/>
      <point x="616" y="1628" type="curve" smooth="yes"/>
      <point x="406" y="1628"/>
      <point x="260" y="1554"/>
      <point x="260" y="1442" type="curve" smooth="yes"/>
      <point x="260" y="1401"/>
      <point x="301" y="1366"/>
      <point x="360" y="1366" type="curve" smooth="yes"/>
      <point x="420" y="1366"/>
      <point x="434" y="1379"/>
      <point x="451" y="1399" type="curve"/>
      <point x="479" y="1526" type="line"/>
      <point x="496" y="1534"/>
      <point x="537" y="1548"/>
      <point x="573" y="1548" type="curve" smooth="yes"/>
      <point x="614" y="1548"/>
      <point x="682" y="1524"/>
      <point x="682" y="1427" type="curve" smooth="yes"/>
      <point x="682" y="1251"/>
      <point x="500" y="1120"/>
      <point x="113" y="870" type="curve"/>
      <point x="94" y="784" type="line"/>
      <point x="788" y="784" type="line"/>
      <point x="831" y="999" type="line"/>
      <point x="729" y="999" type="line"/>
      <point x="684" y="897" type="line"/>
      <point x="344" y="897" type="line"/>
      <point x="605" y="1054"/>
      <point x="891" y="1242"/>
    </contour>
  </outline>
</glyph>
<glyph name="SupThree" format="2">
  <advance width="797"/>
  <unicode hex="00B3"/>
  <anchor x="433" y="725" name="L"/>
  <anchor x="602" y="1650" name="U"/>
  <outline>
    <contour>
      <point x="888" y="1451" type="curve" smooth="yes"/>
      <point x="888" y="1558"/>
      <point x="804" y="1627"/>
      <point x="618" y="1627" type="curve" smooth="yes"/>
      <point x="427" y="1627"/>
      <point x="271" y="1560"/>
      <point x="271" y="1464" type="curve" smooth="yes"/>
      <point x="271" y="1419"/>
      <point x="325" y="1380"/>
      <point x="362" y="1380" type="curve" smooth="yes"/>
      <point x="392" y="1380"/>
      <point x="437" y="1396"/>
      <point x="458" y="1406" type="curve"/>
      <point x="476" y="1523" type="line"/>
      <point x="493" y="1541"/>
      <point x="527" y="1554"/>
      <point x="575" y="1554" type="curve" smooth="yes"/>
      <point x="591" y="1554"/>
      <point x="679" y="1533"/>
      <point x="679" y="1435" type="curve" smooth="yes"/>
      <point x="679" y="1318"/>
      <point x="562" y="1255"/>
      <point x="400" y="1255" type="curve"/>
      <point x="384" y="1158" type="line"/>
      <point x="460" y="1171"/>
      <point x="482" y="1173"/>
      <point x="507" y="1173" type="curve" smooth="yes"/>
      <point x="523" y="1173"/>
      <point x="628" y="1165"/>
      <point x="628" y="1050" type="curve" smooth="yes"/>
      <point x="628" y="923"/>
      <point x="511" y="839"/>
      <point x="419" y="839" type="curve" smooth="yes"/>
      <point x="390" y="839"/>
      <point x="351" y="855"/>
      <point x="339" y="862" type="curve"/>
      <point x="321" y="966" type="line"/>
      <point x="302" y="972"/>
      <point x="282" y="993"/>
      <point x="241" y="993" type="curve" smooth="yes"/>
      <point x="171" y="993"/>
      <point x="136" y="929"/>
      <point x="136" y="905" type="curve" smooth="yes"/>
      <point x="136" y="847"/>
      <point x="212" y="763"/>
      <point x="403" y="763" type="curve" smooth="yes"/>
      <point x="665" y="763"/>
      <point x="833" y="917"/>
      <point x="833" y="1066" type="curve" smooth="yes"/>
      <point x="833" y="1156"/>
      <point x="769" y="1204"/>
      <point x="654" y="1224" type="curve"/>
      <point x="816" y="1275"/>
      <point x="888" y="1367"/>
    </contour>
  </outline>
</glyph>
<glyph name="MultSgn" format="2">
  <advance width="2048"/>
  <unicode hex="00D7"/>
  <outline>
    <contour>
      <point x="1577" y="141" type="line"/>
      <point x="1106" y="614" type="line"/>
      <point x="1577" y="1087" type="line"/>
      <point x="1497" y="1167" type="line"/>
      <point x="1024" y="692" type="line"/>
      <point x="551" y="1167" type="line"/>
      <point x="471" y="1087" type="line"/>
      <point x="942" y="614" type="line"/>
      <point x="471" y="141" type="line"/>
      <point x="551" y="61" type="line"/>
      <point x="1024" y="537" type="line"/>
      <point x="1497" y="61" type="line"/>
    </contour>
  </outline>
</glyph>
<glyph name="LtnCapOStrk" format="2">
  <advance width="1540"/>
  <unicode hex="00D8"/>
  <anchor x="648" y="-100" name="L"/>
  <anchor x="936" y="1500" name="U"/>
  <outline>
    <contour>
      <point x="1501" y="854" type="curve" smooth="yes"/>
      <point x="1501" y="1028"/>
      <point x="1430" y="1194"/>
      <point x="1284" y="1296" type="curve"/>
      <point x="1393" y="1460" type="line"/>
      <point x="1229" y="1563" type="line"/>
      <point x="1108" y="1380" type="line"/>
      <point x="1047" y="1397"/>
      <point x="979" y="1407"/>
      <point x="903" y="1407" type="curve" smooth="yes"/>
      <point x="397" y="1407"/>
      <point x="98" y="965"/>
      <point x="98" y="539" type="curve" smooth="yes"/>
      <point x="98" y="362"/>
      <point x="160" y="213"/>
      <point x="274" y="111" type="curve"/>
      <point x="143" y="-90" type="line"/>
      <point x="291" y="-197" type="line"/>
      <point x="430" y="14" type="line"/>
      <point x="508" y="-16"/>
      <point x="598" y="-33"/>
      <point x="698" y="-33" type="curve" smooth="yes"/>
      <point x="1235" y="-33"/>
      <point x="1501" y="434"/>
    </contour>
    <contour>
      <point x="1016" y="1239" type="curve"/>
      <point x="436" y="356" type="line"/>
      <point x="424" y="406"/>
      <point x="416" y="461"/>
      <point x="416" y="522" type="curve" smooth="yes"/>
      <point x="416" y="891"/>
      <point x="641" y="1284"/>
      <point x="885" y="1284" type="curve" smooth="yes"/>
      <point x="930" y="1284"/>
      <point x="975" y="1270"/>
    </contour>
    <contour>
      <point x="1182" y="854" type="curve" smooth="yes"/>
      <point x="1182" y="498"/>
      <point x="954" y="94"/>
      <point x="713" y="94" type="curve" smooth="yes"/>
      <point x="655" y="94"/>
      <point x="592" y="121"/>
      <point x="539" y="174" type="curve"/>
      <point x="1141" y="1079" type="line"/>
      <point x="1167" y="1018"/>
      <point x="1182" y="942"/>
    </contour>
  </outline>
</glyph>
<glyph name="LtnSmSharpS" format="2">
  <advance width="1225"/>
  <unicode hex="00DF"/>
  <anchor x="410" y="-100" name="L"/>
  <anchor x="726" y="1540" name="U"/>
  <outline>
    <contour>
      <point x="1198" y="1233" type="curve" smooth="yes"/>
      <point x="1198" y="1403"/>
      <point x="1053" y="1509"/>
      <point x="811" y="1509" type="curve" smooth="yes"/>
      <point x="408" y="1509"/>
      <point x="248" y="1210"/>
      <point x="205" y="928" type="curve" smooth="yes"/>
      <point x="84" y="133" type="line" smooth="yes"/>
      <point x="70" y="45"/>
      <point x="27" y="-197"/>
      <point x="-45" y="-295" type="curve"/>
      <point x="-250" y="-240" type="line"/>
      <point x="-309" y="-285"/>
      <point x="-328" y="-315"/>
      <point x="-328" y="-350" type="curve" smooth="yes"/>
      <point x="-328" y="-422"/>
      <point x="-256" y="-469"/>
      <point x="-158" y="-469" type="curve" smooth="yes"/>
      <point x="18" y="-469"/>
      <point x="242" y="-215"/>
      <point x="293" y="-80" type="curve"/>
      <point x="424" y="281"/>
      <point x="391" y="643"/>
      <point x="489" y="1004" type="curve" smooth="yes"/>
      <point x="551" y="1233"/>
      <point x="666" y="1391"/>
      <point x="799" y="1391" type="curve" smooth="yes"/>
      <point x="881" y="1391"/>
      <point x="944" y="1337"/>
      <point x="944" y="1237" type="curve" smooth="yes"/>
      <point x="944" y="1155"/>
      <point x="924" y="1071"/>
      <point x="901" y="987" type="curve"/>
      <point x="702" y="961"/>
      <point x="567" y="840"/>
      <point x="567" y="680" type="curve" smooth="yes"/>
      <point x="567" y="573"/>
      <point x="649" y="504"/>
      <point x="735" y="438" type="curve" smooth="yes"/>
      <point x="829" y="367"/>
      <point x="903" y="311"/>
      <point x="903" y="236" type="curve" smooth="yes"/>
      <point x="903" y="131"/>
      <point x="854" y="76"/>
      <point x="774" y="76" type="curve" smooth="yes"/>
      <point x="735" y="76"/>
      <point x="721" y="90"/>
      <point x="686" y="133" type="curve"/>
      <point x="723" y="266" type="line"/>
      <point x="698" y="281"/>
      <point x="709" y="313"/>
      <point x="623" y="313" type="curve" smooth="yes"/>
      <point x="532" y="313"/>
      <point x="461" y="233"/>
      <point x="461" y="170" type="curve" smooth="yes"/>
      <point x="461" y="35"/>
      <point x="559" y="-29"/>
      <point x="741" y="-29" type="curve" smooth="yes"/>
      <point x="1001" y="-29"/>
      <point x="1171" y="106"/>
      <point x="1171" y="299" type="curve" smooth="yes"/>
      <point x="1171" y="401"/>
      <point x="1083" y="477"/>
      <point x="993" y="549" type="curve" smooth="yes"/>
      <point x="905" y="616"/>
      <point x="813" y="680"/>
      <point x="813" y="754" type="curve" smooth="yes"/>
      <point x="813" y="870"/>
      <point x="958" y="881"/>
      <point x="985" y="881" type="curve" smooth="yes"/>
      <point x="1004" y="881"/>
      <point x="1022" y="881"/>
      <point x="1124" y="870" type="curve"/>
      <point x="1157" y="985"/>
      <point x="1198" y="1112"/>
    </contour>
  </outline>
</glyph>
<glyph name="DivSgn" format="2">
  <advance width="2048"/>
  <unicode hex="00F7"/>
  <outline>
    <contour>
      <point x="1147" y="944" type="curve" smooth="yes"/>
      <point x="1147" y="1012"/>
      <point x="1092" y="1067"/>
      <point x="1024" y="1067" type="curve" smooth="yes"/>
      <point x="956" y="1067"/>
      <point x="901" y="1012"/>
      <point x="901" y="944" type="curve" smooth="yes"/>
      <point x="901" y="874"/>
      <point x="956" y="821"/>
      <point x="1024" y="821" type="curve" smooth="yes"/>
      <point x="1092" y="821"/>
      <point x="1147" y="874"/>
    </contour>
    <contour>
      <point x="1638" y="551" type="line"/>
      <point x="1638" y="678" type="line"/>
      <point x="410" y="678" type="line"/>
      <point x="410" y="551" type="line"/>
    </contour>
    <contour>
      <point x="1147" y="285" type="curve" smooth="yes"/>
      <point x="1147" y="354"/>
      <point x="1092" y="408"/>
      <point x="1024" y="408" type="curve" smooth="yes"/>
      <point x="956" y="408"/>
      <point x="901" y="354"/>
      <point x="901" y="285" type="curve" smooth="yes"/>
      <point x="901" y="217"/>
      <point x="956" y="164"/>
      <point x="1024" y="164" type="curve" smooth="yes"/>
      <point x="1092" y="164"/>
      <point x="1147" y="217"/>
    </contour>
  </outline>
</glyph>
<glyph name="LtnSmOStrk" format="2">
  <advance width="1133"/>
  <unicode hex="00F8"/>
  <anchor x="466" y="0" name="H"/>
  <anchor x="446" y="-100" name="L"/>
  <anchor x="724" y="0" name="O"/>
  <anchor x="1133" y="1000" name="R"/>
  <anchor x="690" y="1100" name="U"/>
  <outline>
    <contour>
      <point x="1069" y="621" type="curve" smooth="yes"/>
      <point x="1069" y="772"/>
      <point x="1020" y="881"/>
      <point x="930" y="946" type="curve"/>
      <point x="1020" y="1087" type="line"/>
      <point x="905" y="1153" type="line"/>
      <point x="811" y="1004" type="line"/>
      <point x="764" y="1016"/>
      <point x="713" y="1024"/>
      <point x="655" y="1024" type="curve" smooth="yes"/>
      <point x="276" y="1024"/>
      <point x="66" y="692"/>
      <point x="66" y="371" type="curve" smooth="yes"/>
      <point x="66" y="236"/>
      <point x="111" y="123"/>
      <point x="207" y="51" type="curve"/>
      <point x="96" y="-123" type="line"/>
      <point x="201" y="-193" type="line"/>
      <point x="322" y="-4" type="line"/>
      <point x="367" y="-16"/>
      <point x="418" y="-25"/>
      <point x="475" y="-25" type="curve" smooth="yes"/>
      <point x="848" y="-25"/>
      <point x="1069" y="299"/>
    </contour>
    <contour>
      <point x="717" y="856" type="curve"/>
      <point x="365" y="299" type="line"/>
      <point x="360" y="324"/>
      <point x="358" y="350"/>
      <point x="358" y="379" type="curve" smooth="yes"/>
      <point x="358" y="655"/>
      <point x="508" y="915"/>
      <point x="633" y="915" type="curve" smooth="yes"/>
      <point x="657" y="915"/>
      <point x="688" y="897"/>
    </contour>
    <contour>
      <point x="774" y="629" type="curve" smooth="yes"/>
      <point x="774" y="377"/>
      <point x="643" y="88"/>
      <point x="500" y="88" type="curve" smooth="yes"/>
      <point x="477" y="88"/>
      <point x="444" y="106"/>
      <point x="418" y="147" type="curve"/>
      <point x="770" y="698" type="line"/>
      <point x="774" y="678"/>
      <point x="774" y="653"/>
    </contour>
  </outline>
</glyph>
<glyph name="LtnSmEOgonek" format="2">
  <advance width="983"/>
  <unicode hex="0119"/>
  <anchor x="350" y="-500" name="L"/>
  <anchor x="670" y="1100" name="U"/>
  <outline>
    <component base="LtnSmE"/>
    <contour>
      <point x="659" y="-256" type="line"/>
      <point x="634" y="-272"/>
      <point x="585" y="-307"/>
      <point x="558" y="-307" type="curve" smooth="yes"/>
      <point x="509" y="-307"/>
      <point x="472" y="-279"/>
      <point x="472" y="-227" type="curve" smooth="yes"/>
      <point x="472" y="-129"/>
      <point x="572" y="-34"/>
      <point x="756" y="74" type="curve"/>
      <point x="517" y="2" type="line"/>
      <point x="421" y="-57"/>
      <point x="298" y="-166"/>
      <point x="298" y="-287" type="curve" smooth="yes"/>
      <point x="298" y="-391"/>
      <point x="405" y="-426"/>
      <point x="493" y="-426" type="curve" smooth="yes"/>
      <point x="546" y="-426"/>
      <point x="648" y="-385"/>
      <point x="700" y="-362" type="curve"/>
    </contour>
  </outline>
</glyph>
<glyph name="LtnCapLCaron" format="2">
  <advance width="1147"/>
  <unicode hex="013D"/>
  <anchor x="469" y="0" name="H"/>
  <anchor x="449" y="-100" name="L"/>
  <anchor x="737" y="1500" name="U"/>
  <outline>
    <contour>
      <point x="-31" y="0" type="line"/>
      <point x="999" y="0" type="line"/>
      <point x="1081" y="414" type="line"/>
      <point x="928" y="414" type="line"/>
      <point x="844" y="152" type="line" smooth="yes"/>
      <point x="838" y="135"/>
      <point x="807" y="123"/>
      <point x="786" y="123" type="curve" smooth="yes"/>
      <point x="426" y="123" type="line"/>
      <point x="643" y="1229" type="line"/>
      <point x="649" y="1253"/>
      <point x="664" y="1260"/>
      <point x="682" y="1262" type="curve"/>
      <point x="815" y="1272" type="line"/>
      <point x="815" y="1374" type="line"/>
      <point x="197" y="1374" type="line"/>
      <point x="197" y="1272" type="line"/>
      <point x="317" y="1262" type="line"/>
      <point x="340" y="1260"/>
      <point x="356" y="1253"/>
      <point x="350" y="1231" type="curve"/>
      <point x="137" y="145" type="line" smooth="yes"/>
      <point x="133" y="119"/>
      <point x="125" y="115"/>
      <point x="86" y="111" type="curve"/>
      <point x="-31" y="102" type="line"/>
    </contour>
    <contour>
      <point x="863" y="1087" type="line"/>
      <point x="1003" y="1087" type="line"/>
      <point x="1192" y="1441" type="line"/>
      <point x="1207" y="1509" type="line"/>
      <point x="992" y="1509" type="line"/>
    </contour>
  </outline>
</glyph>
<glyph name="LtnCapLStrk" format="2">
  <advance width="1147"/>
  <unicode hex="0141"/>
  <anchor x="419" y="-100" name="L"/>
  <anchor x="707" y="1500" name="U"/>
  <outline>
    <contour>
      <point x="-31" y="0" type="line"/>
      <point x="999" y="0" type="line"/>
      <point x="1081" y="414" type="line"/>
      <point x="928" y="414" type="line"/>
      <point x="844" y="152" type="line" smooth="yes"/>
      <point x="838" y="135"/>
      <point x="807" y="123"/>
      <point x="786" y="123" type="curve" smooth="yes"/>
      <point x="426" y="123" type="line"/>
      <point x="537" y="680" type="line"/>
      <point x="842" y="846" type="line"/>
      <point x="764" y="981" type="line"/>
      <point x="575" y="879" type="line"/>
      <point x="643" y="1229" type="line"/>
      <point x="649" y="1253"/>
      <point x="664" y="1260"/>
      <point x="682" y="1262" type="curve"/>
      <point x="815" y="1272" type="line"/>
      <point x="815" y="1374" type="line"/>
      <point x="197" y="1374" type="line"/>
      <point x="197" y="1272" type="line"/>
      <point x="317" y="1262" type="line"/>
      <point x="340" y="1260"/>
      <point x="356" y="1253"/>
      <point x="350" y="1231" type="curve"/>
      <point x="246" y="696" type="line"/>
      <point x="-20" y="551" type="line"/>
      <point x="49" y="412" type="line"/>
      <point x="207" y="500" type="line"/>
      <point x="137" y="145" type="line" smooth="yes"/>
      <point x="133" y="119"/>
      <point x="125" y="115"/>
      <point x="86" y="111" type="curve"/>
      <point x="-31" y="102" type="line"/>
    </contour>
  </outline>
</glyph>
<glyph name="LtnSmEng" format="2">
  <advance width="1151"/>
  <unicode hex="014B"/>
  <anchor x="379" y="-500" name="L"/>
  <anchor x="699" y="1100" name="U"/>
  <outline>
    <contour>
      <point x="1069" y="842" type="curve" smooth="yes"/>
      <point x="1069" y="961"/>
      <point x="1006" y="1024"/>
      <point x="838" y="1024" type="curve" smooth="yes"/>
      <point x="733" y="1024"/>
      <point x="610" y="973"/>
      <point x="508" y="905" type="curve"/>
      <point x="532" y="1024" type="line"/>
      <point x="393" y="1024" type="line"/>
      <point x="55" y="956" type="line"/>
      <point x="55" y="887" type="line"/>
      <point x="227" y="870" type="line"/>
      <point x="47" y="0" type="line"/>
      <point x="322" y="0" type="line"/>
      <point x="467" y="694" type="line"/>
      <point x="551" y="782"/>
      <point x="659" y="862"/>
      <point x="725" y="862" type="curve" smooth="yes"/>
      <point x="758" y="862"/>
      <point x="781" y="843"/>
      <point x="781" y="789" type="curve" smooth="yes"/>
      <point x="781" y="773"/>
      <point x="779" y="753"/>
      <point x="774" y="729" type="curve" smooth="yes"/>
      <point x="625" y="-8" type="line" smooth="yes"/>
      <point x="589" y="-184"/>
      <point x="559" y="-276"/>
      <point x="496" y="-322" type="curve"/>
      <point x="342" y="-209" type="line"/>
      <point x="291" y="-223"/>
      <point x="172" y="-262"/>
      <point x="172" y="-358" type="curve" smooth="yes"/>
      <point x="172" y="-420"/>
      <point x="246" y="-475"/>
      <point x="371" y="-475" type="curve" smooth="yes"/>
      <point x="670" y="-475"/>
      <point x="865" y="-244"/>
      <point x="910" y="-14" type="curve" smooth="yes"/>
      <point x="1061" y="756" type="line" smooth="yes"/>
      <point x="1067" y="786"/>
      <point x="1069" y="815"/>
    </contour>
  </outline>
</glyph>
<glyph name="LtnSmLigOe" format="2">
  <advance width="1614"/>
  <unicode hex="0153"/>
  <anchor x="796" y="0" name="H"/>
  <anchor x="726" y="-100" name="L"/>
  <anchor x="1332" y="0" name="O"/>
  <anchor x="1614" y="1000" name="R"/>
  <anchor x="970" y="1100" name="U"/>
  <outline>
    <contour>
      <point x="1579" y="788" type="curve" smooth="yes"/>
      <point x="1579" y="877"/>
      <point x="1507" y="1024"/>
      <point x="1325" y="1024" type="curve" smooth="yes"/>
      <point x="1180" y="1024"/>
      <point x="1028" y="958"/>
      <point x="950" y="862" type="curve"/>
      <point x="887" y="956"/>
      <point x="774" y="1024"/>
      <point x="649" y="1024" type="curve" smooth="yes"/>
      <point x="252" y="1024"/>
      <point x="66" y="666"/>
      <point x="66" y="371" type="curve" smooth="yes"/>
      <point x="66" y="139"/>
      <point x="203" y="-25"/>
      <point x="473" y="-25" type="curve" smooth="yes"/>
      <point x="625" y="-25"/>
      <point x="735" y="20"/>
      <point x="819" y="119" type="curve"/>
      <point x="879" y="29"/>
      <point x="965" y="-25"/>
      <point x="1100" y="-25" type="curve" smooth="yes"/>
      <point x="1286" y="-25"/>
      <point x="1434" y="68"/>
      <point x="1552" y="174" type="curve"/>
      <point x="1552" y="383" type="line"/>
      <point x="1362" y="209"/>
      <point x="1268" y="119"/>
      <point x="1169" y="119" type="curve" smooth="yes"/>
      <point x="1059" y="119"/>
      <point x="993" y="213"/>
      <point x="993" y="367" type="curve" smooth="yes"/>
      <point x="993" y="385"/>
      <point x="995" y="422"/>
      <point x="997" y="449" type="curve"/>
      <point x="1186" y="465"/>
      <point x="1579" y="537"/>
    </contour>
    <contour>
      <point x="1333" y="788" type="curve" smooth="yes"/>
      <point x="1333" y="647"/>
      <point x="1133" y="575"/>
      <point x="1016" y="553" type="curve"/>
      <point x="1059" y="719"/>
      <point x="1141" y="907"/>
      <point x="1268" y="907" type="curve" smooth="yes"/>
      <point x="1339" y="907"/>
      <point x="1333" y="819"/>
    </contour>
    <contour>
      <point x="754" y="606" type="curve" smooth="yes"/>
      <point x="754" y="362"/>
      <point x="635" y="88"/>
      <point x="492" y="88" type="curve" smooth="yes"/>
      <point x="387" y="88"/>
      <point x="350" y="211"/>
      <point x="350" y="379" type="curve" smooth="yes"/>
      <point x="350" y="647"/>
      <point x="496" y="913"/>
      <point x="618" y="913" type="curve" smooth="yes"/>
      <point x="733" y="913"/>
      <point x="754" y="758"/>
    </contour>
  </outline>
</glyph>
<glyph name="LtnSmBBarredStem" format="2">
  <advance width="1090"/>
  <unicode hex="0180"/>
  <anchor x="399" y="-100" name="L"/>
  <anchor x="715" y="1540" name="U"/>
  <outline>
    <contour>
      <point x="1026" y="637" type="curve" smooth="yes"/>
      <point x="1026" y="809"/>
      <point x="922" y="1024"/>
      <point x="702" y="1024" type="curve" smooth="yes"/>
      <point x="631" y="1024"/>
      <point x="549" y="997"/>
      <point x="475" y="958" type="curve"/>
      <point x="502" y="1094" type="line"/>
      <point x="764" y="1094" type="line"/>
      <point x="791" y="1229" type="line"/>
      <point x="526" y="1229" type="line"/>
      <point x="582" y="1509" type="line"/>
      <point x="442" y="1509" type="line"/>
      <point x="96" y="1444" type="line"/>
      <point x="96" y="1370" type="line"/>
      <point x="276" y="1354" type="line"/>
      <point x="254" y="1229" type="line"/>
      <point x="100" y="1229" type="line"/>
      <point x="74" y="1094" type="line"/>
      <point x="227" y="1094" type="line"/>
      <point x="37" y="78" type="line"/>
      <point x="135" y="14"/>
      <point x="260" y="-25"/>
      <point x="408" y="-25" type="curve" smooth="yes"/>
      <point x="877" y="-25"/>
      <point x="1026" y="393"/>
    </contour>
    <contour>
      <point x="741" y="629" type="curve" smooth="yes"/>
      <point x="741" y="375"/>
      <point x="586" y="90"/>
      <point x="451" y="90" type="curve" smooth="yes"/>
      <point x="387" y="90"/>
      <point x="348" y="127"/>
      <point x="326" y="162" type="curve"/>
      <point x="440" y="774" type="line"/>
      <point x="502" y="827"/>
      <point x="578" y="868"/>
      <point x="635" y="868" type="curve" smooth="yes"/>
      <point x="682" y="868"/>
      <point x="741" y="801"/>
    </contour>
  </outline>
</glyph>
<glyph name="LtnCapBHook" format="2">
  <advance width="1527"/>
  <unicode hex="0181"/>
  <anchor x="604" y="-100" name="L"/>
  <anchor x="892" y="1500" name="U"/>
  <outline>
    <contour>
      <point x="167" y="0" type="line"/>
      <point x="771" y="0" type="line" smooth="yes"/>
      <point x="1164" y="0"/>
      <point x="1418" y="137"/>
      <point x="1418" y="463" type="curve" smooth="yes"/>
      <point x="1418" y="625"/>
      <point x="1314" y="700"/>
      <point x="1136" y="733" type="curve"/>
      <point x="1318" y="799"/>
      <point x="1457" y="907"/>
      <point x="1457" y="1106" type="curve" smooth="yes"/>
      <point x="1457" y="1255"/>
      <point x="1357" y="1374"/>
      <point x="1011" y="1374" type="curve" smooth="yes"/>
      <point x="456" y="1374" type="line" smooth="yes"/>
      <point x="272" y="1374"/>
      <point x="130" y="1294"/>
      <point x="130" y="1139" type="curve" smooth="yes"/>
      <point x="130" y="1077"/>
      <point x="179" y="991"/>
      <point x="263" y="991" type="curve" smooth="yes"/>
      <point x="321" y="991"/>
      <point x="349" y="1001"/>
      <point x="409" y="1053" type="curve"/>
      <point x="360" y="1198" type="line"/>
      <point x="386" y="1231"/>
      <point x="407" y="1243"/>
      <point x="452" y="1243" type="curve" smooth="yes"/>
      <point x="507" y="1243" type="line" smooth="yes"/>
      <point x="530" y="1243"/>
      <point x="548" y="1235"/>
      <point x="544" y="1210" type="curve" smooth="yes"/>
      <point x="335" y="145" type="line" smooth="yes"/>
      <point x="329" y="117"/>
      <point x="317" y="113"/>
      <point x="296" y="113" type="curve"/>
      <point x="167" y="102" type="line"/>
    </contour>
    <contour>
      <point x="704" y="113" type="curve" smooth="yes"/>
      <point x="683" y="113"/>
      <point x="650" y="113"/>
      <point x="622" y="115" type="curve"/>
      <point x="726" y="649" type="line"/>
      <point x="763" y="653"/>
      <point x="804" y="655"/>
      <point x="839" y="655" type="curve" smooth="yes"/>
      <point x="980" y="655"/>
      <point x="1109" y="610"/>
      <point x="1109" y="442" type="curve" smooth="yes"/>
      <point x="1109" y="223"/>
      <point x="943" y="113"/>
    </contour>
    <contour>
      <point x="802" y="766" type="curve" smooth="yes"/>
      <point x="794" y="766"/>
      <point x="771" y="766"/>
      <point x="751" y="768" type="curve"/>
      <point x="847" y="1264" type="line"/>
      <point x="865" y="1264"/>
      <point x="888" y="1266"/>
      <point x="908" y="1266" type="curve" smooth="yes"/>
      <point x="1033" y="1266"/>
      <point x="1146" y="1223"/>
      <point x="1146" y="1092" type="curve" smooth="yes"/>
      <point x="1146" y="903"/>
      <point x="1005" y="766"/>
    </contour>
  </outline>
</glyph>
<glyph name="LtnCapTnSix" format="2">
  <advance width="1350"/>
  <unicode hex="0184"/>
  <anchor x="570" y="-100" name="L"/>
  <anchor x="858" y="1500" name="U"/>
  <outline>
    <contour>
      <point x="976" y="433" type="curve" smooth="yes"/>
      <point x="976" y="211"/>
      <point x="798" y="113"/>
      <point x="542" y="113" type="curve" smooth="yes"/>
      <point x="522" y="113"/>
      <point x="499" y="115"/>
      <point x="483" y="115" type="curve"/>
      <point x="590" y="646" type="line"/>
      <point x="616" y="650"/>
      <point x="657" y="655"/>
      <point x="678" y="655" type="curve" smooth="yes"/>
      <point x="828" y="655"/>
      <point x="976" y="615"/>
    </contour>
    <contour>
      <point x="1282" y="429" type="curve" smooth="yes"/>
      <point x="1282" y="686"/>
      <point x="1041" y="771"/>
      <point x="719" y="771" type="curve" smooth="yes"/>
      <point x="688" y="771"/>
      <point x="645" y="768"/>
      <point x="612" y="765" type="curve"/>
      <point x="740" y="1407" type="line"/>
      <point x="530" y="1407" type="line"/>
      <point x="68" y="947" type="line"/>
      <point x="167" y="850" type="line"/>
      <point x="360" y="977" type="line"/>
      <point x="198" y="160" type="line" smooth="yes"/>
      <point x="193" y="133"/>
      <point x="170" y="117"/>
      <point x="145" y="115" type="curve" smooth="yes"/>
      <point x="8" y="104" type="line"/>
      <point x="8" y="0" type="line"/>
      <point x="532" y="0" type="line" smooth="yes"/>
      <point x="921" y="0"/>
      <point x="1282" y="86"/>
    </contour>
  </outline>
</glyph>
<glyph name="LtnSmCHook" format="2">
  <advance width="1043"/>
  <unicode hex="0188"/>
  <anchor x="360" y="-100" name="L"/>
  <anchor x="617" y="1100" name="U"/>
  <outline>
    <component base="LtnSmC"/>
    <contour>
      <point x="897" y="889" type="line"/>
      <point x="940" y="1108"/>
      <point x="962" y="1195"/>
      <point x="1034" y="1225" type="curve"/>
      <point x="1179" y="1095" type="line"/>
      <point x="1239" y="1106"/>
      <point x="1304" y="1139"/>
      <point x="1304" y="1237" type="curve" smooth="yes"/>
      <point x="1304" y="1301"/>
      <point x="1251" y="1380"/>
      <point x="1130" y="1380" type="curve" smooth="yes"/>
      <point x="922" y="1380"/>
      <point x="762" y="1171"/>
      <point x="727" y="1000" type="curve"/>
    </contour>
  </outline>
</glyph>
<glyph name="LtnSmTrndDelta" format="2">
  <advance width="1173"/>
  <unicode hex="018D"/>
  <anchor x="340" y="-500" name="L"/>
  <anchor x="665" y="1100" name="U"/>
  <outline>
    <contour>
      <point x="372" y="-510" type="curve" smooth="yes"/>
      <point x="544" y="-510"/>
      <point x="793" y="-392"/>
      <point x="793" y="-202" type="curve" smooth="yes"/>
      <point x="793" y="93"/>
      <point x="346" y="60"/>
      <point x="346" y="473" type="curve" smooth="yes"/>
      <point x="346" y="709"/>
      <point x="474" y="912"/>
      <point x="665" y="912" type="curve" smooth="yes"/>
      <point x="759" y="912"/>
      <point x="818" y="834"/>
      <point x="818" y="678" type="curve" smooth="yes"/>
      <point x="818" y="427"/>
      <point x="639" y="249"/>
      <point x="412" y="140" type="curve"/>
      <point x="479" y="72" type="line"/>
      <point x="809" y="188"/>
      <point x="1109" y="357"/>
      <point x="1109" y="692" type="curve" smooth="yes"/>
      <point x="1109" y="933"/>
      <point x="883" y="1024"/>
      <point x="670" y="1024" type="curve" smooth="yes"/>
      <point x="428" y="1024"/>
      <point x="54" y="830"/>
      <point x="54" y="455" type="curve" smooth="yes"/>
      <point x="54" y="29"/>
      <point x="577" y="-87"/>
      <point x="577" y="-246" type="curve" smooth="yes"/>
      <point x="577" y="-348"/>
      <point x="475" y="-373"/>
      <point x="399" y="-373" type="curve" smooth="yes"/>
      <point x="352" y="-373"/>
      <point x="321" y="-364"/>
      <point x="277" y="-322" type="curve"/>
      <point x="245" y="-161" type="line"/>
      <point x="231" y="-149"/>
      <point x="187" y="-145"/>
      <point x="169" y="-145" type="curve" smooth="yes"/>
      <point x="77" y="-145"/>
      <point x="-5" y="-212"/>
      <point x="-5" y="-310" type="curve" smooth="yes"/>
      <point x="-5" y="-408"/>
      <point x="113" y="-510"/>
    </contour>
  </outline>
</glyph>
<glyph name="LtnCapOpnE" format="2">
  <advance width="1200"/>
  <unicode hex="0190"/>
  <anchor x="523" y="-100" name="L"/>
  <anchor x="811" y="1500" name="U"/>
  <outline>
    <contour>
      <point x="1231" y="1159" type="curve" smooth="yes"/>
      <point x="1231" y="1343"/>
      <point x="1042" y="1407"/>
      <point x="786" y="1407" type="curve" smooth="yes"/>
      <point x="469" y="1407"/>
      <point x="252" y="1225"/>
      <point x="252" y="983" type="curve" smooth="yes"/>
      <point x="252" y="864"/>
      <point x="332" y="786"/>
      <point x="461" y="729" type="curve"/>
      <point x="281" y="696"/>
      <point x="41" y="598"/>
      <point x="41" y="305" type="curve" smooth="yes"/>
      <point x="41" y="70"/>
      <point x="246" y="-33"/>
      <point x="563" y="-33" type="curve" smooth="yes"/>
      <point x="823" y="-33"/>
      <point x="1079" y="106"/>
      <point x="1079" y="248" type="curve" smooth="yes"/>
      <point x="1079" y="309"/>
      <point x="1032" y="360"/>
      <point x="946" y="360" type="curve" smooth="yes"/>
      <point x="915" y="360"/>
      <point x="854" y="348"/>
      <point x="829" y="340" type="curve"/>
      <point x="754" y="158" type="line"/>
      <point x="696" y="109"/>
      <point x="647" y="92"/>
      <point x="586" y="92" type="curve" smooth="yes"/>
      <point x="500" y="92"/>
      <point x="356" y="172"/>
      <point x="356" y="338" type="curve" smooth="yes"/>
      <point x="356" y="549"/>
      <point x="522" y="641"/>
      <point x="664" y="641" type="curve" smooth="yes"/>
      <point x="688" y="641"/>
      <point x="731" y="637"/>
      <point x="821" y="627" type="curve"/>
      <point x="852" y="784" type="line"/>
      <point x="770" y="782"/>
      <point x="752" y="780"/>
      <point x="739" y="780" type="curve" smooth="yes"/>
      <point x="682" y="780"/>
      <point x="561" y="805"/>
      <point x="561" y="961" type="curve" smooth="yes"/>
      <point x="561" y="1139"/>
      <point x="696" y="1274"/>
      <point x="811" y="1274" type="curve" smooth="yes"/>
      <point x="823" y="1274"/>
      <point x="846" y="1270"/>
      <point x="860" y="1264" type="curve"/>
      <point x="944" y="1038" type="line"/>
      <point x="944" y="1038"/>
      <point x="991" y="1010"/>
      <point x="1038" y="1010" type="curve" smooth="yes"/>
      <point x="1151" y="1010"/>
      <point x="1231" y="1077"/>
    </contour>
  </outline>
</glyph>
<glyph name="LtnCapGHook" format="2">
  <advance width="1495"/>
  <unicode hex="0193"/>
  <anchor x="647" y="-100" name="L"/>
  <anchor x="935" y="1500" name="U"/>
  <outline>
    <contour>
      <point x="723" y="-33" type="curve" smooth="yes"/>
      <point x="897" y="-33"/>
      <point x="1092" y="20"/>
      <point x="1206" y="53" type="curve"/>
      <point x="1300" y="530" type="line" smooth="yes"/>
      <point x="1305" y="549"/>
      <point x="1311" y="559"/>
      <point x="1329" y="561" type="curve" smooth="yes"/>
      <point x="1468" y="571" type="line"/>
      <point x="1468" y="676" type="line"/>
      <point x="854" y="676" type="line"/>
      <point x="854" y="571" type="line"/>
      <point x="969" y="563" type="line"/>
      <point x="1001" y="561"/>
      <point x="1012" y="555"/>
      <point x="1008" y="530" type="curve" smooth="yes"/>
      <point x="928" y="125" type="line"/>
      <point x="891" y="115"/>
      <point x="817" y="96"/>
      <point x="764" y="96" type="curve" smooth="yes"/>
      <point x="670" y="96"/>
      <point x="410" y="186"/>
      <point x="410" y="520" type="curve" smooth="yes"/>
      <point x="410" y="993"/>
      <point x="748" y="1276"/>
      <point x="999" y="1276" type="curve" smooth="yes"/>
      <point x="1063" y="1276"/>
      <point x="1165" y="1243"/>
      <point x="1188" y="1231" type="curve"/>
      <point x="1210" y="1225"/>
      <point x="1219" y="1200"/>
      <point x="1217" y="1184" type="curve" smooth="yes"/>
      <point x="1196" y="961" type="line"/>
      <point x="1372" y="961" type="line"/>
      <point x="1446" y="1321" type="line" smooth="yes"/>
      <point x="1477" y="1468"/>
      <point x="1511" y="1618"/>
      <point x="1579" y="1618" type="curve"/>
      <point x="1757" y="1419" type="line"/>
      <point x="1817" y="1440"/>
      <point x="1886" y="1501"/>
      <point x="1886" y="1577" type="curve" smooth="yes"/>
      <point x="1886" y="1651"/>
      <point x="1792" y="1743"/>
      <point x="1712" y="1743" type="curve" smooth="yes"/>
      <point x="1497" y="1743"/>
      <point x="1294" y="1647"/>
      <point x="1255" y="1382" type="curve"/>
      <point x="1143" y="1407"/>
      <point x="1085" y="1407"/>
      <point x="1006" y="1407" type="curve" smooth="yes"/>
      <point x="541" y="1407"/>
      <point x="98" y="1061"/>
      <point x="98" y="551" type="curve" smooth="yes"/>
      <point x="98" y="334"/>
      <point x="201" y="-33"/>
    </contour>
  </outline>
</glyph>
<glyph name="LtnCapGamma" format="2">
  <advance width="1425"/>
  <unicode hex="0194"/>
  <anchor x="638" y="-100" name="L"/>
  <anchor x="926" y="1500" name="U"/>
  <outline>
    <contour>
      <point x="1559" y="1270" type="line"/>
      <point x="1559" y="1374" type="line"/>
      <point x="1071" y="1374" type="line"/>
      <point x="1071" y="1270" type="line"/>
      <point x="1155" y="1262" type="line"/>
      <point x="1200" y="1255"/>
      <point x="1214" y="1229"/>
      <point x="1192" y="1200" type="curve"/>
      <point x="1192" y="1200"/>
      <point x="823" y="758"/>
      <point x="780" y="709" type="curve"/>
      <point x="766" y="748"/>
      <point x="606" y="1196"/>
      <point x="606" y="1196" type="curve"/>
      <point x="594" y="1237"/>
      <point x="616" y="1255"/>
      <point x="641" y="1257" type="curve" smooth="yes"/>
      <point x="768" y="1270" type="line"/>
      <point x="768" y="1374" type="line"/>
      <point x="164" y="1374" type="line"/>
      <point x="164" y="1270" type="line"/>
      <point x="293" y="1251" type="line"/>
      <point x="557" y="477" type="line"/>
      <point x="481" y="389"/>
      <point x="346" y="258"/>
      <point x="346" y="123" type="curve" smooth="yes"/>
      <point x="346" y="-4"/>
      <point x="496" y="-33"/>
      <point x="592" y="-33" type="curve" smooth="yes"/>
      <point x="762" y="-33"/>
      <point x="934" y="61"/>
      <point x="934" y="248" type="curve" smooth="yes"/>
      <point x="934" y="338"/>
      <point x="864" y="471"/>
      <point x="836" y="555" type="curve"/>
      <point x="1417" y="1253" type="line"/>
    </contour>
    <contour>
      <point x="655" y="178" type="curve" smooth="yes"/>
      <point x="655" y="129"/>
      <point x="637" y="82"/>
      <point x="584" y="82" type="curve" smooth="yes"/>
      <point x="551" y="82"/>
      <point x="514" y="96"/>
      <point x="514" y="133" type="curve" smooth="yes"/>
      <point x="514" y="203"/>
      <point x="571" y="268"/>
      <point x="612" y="315" type="curve"/>
      <point x="625" y="285"/>
      <point x="655" y="215"/>
    </contour>
  </outline>
</glyph>
<glyph name="LtnSmKHook" format="2">
  <advance width="1126"/>
  <unicode hex="0199"/>
  <anchor x="538" y="-100" name="L"/>
  <anchor x="854" y="1540" name="U"/>
  <outline>
    <contour>
      <point x="1102" y="53" type="curve"/>
      <point x="1102" y="162" type="line"/>
      <point x="987" y="115"/>
      <point x="936" y="104"/>
      <point x="934" y="104" type="curve" smooth="yes"/>
      <point x="864" y="104"/>
      <point x="821" y="205"/>
      <point x="762" y="311" type="curve" smooth="yes"/>
      <point x="702" y="422"/>
      <point x="651" y="578"/>
      <point x="614" y="647" type="curve"/>
      <point x="666" y="692"/>
      <point x="754" y="784"/>
      <point x="819" y="840" type="curve"/>
      <point x="901" y="707" type="line"/>
      <point x="1059" y="760"/>
      <point x="1071" y="856"/>
      <point x="1071" y="905" type="curve" smooth="yes"/>
      <point x="1071" y="961"/>
      <point x="997" y="1024"/>
      <point x="897" y="1024" type="curve" smooth="yes"/>
      <point x="817" y="1024"/>
      <point x="745" y="991"/>
      <point x="662" y="903" type="curve" smooth="yes"/>
      <point x="432" y="668" type="line"/>
      <point x="518" y="1090" type="line" smooth="yes"/>
      <point x="553" y="1255"/>
      <point x="635" y="1368"/>
      <point x="739" y="1368" type="curve"/>
      <point x="840" y="1235" type="line"/>
      <point x="903" y="1247"/>
      <point x="1006" y="1274"/>
      <point x="1006" y="1370" type="curve" smooth="yes"/>
      <point x="1006" y="1442"/>
      <point x="963" y="1509"/>
      <point x="821" y="1509" type="curve" smooth="yes"/>
      <point x="573" y="1509"/>
      <point x="424" y="1403"/>
      <point x="342" y="1286" type="curve" smooth="yes"/>
      <point x="279" y="1198"/>
      <point x="248" y="1100"/>
      <point x="227" y="995" type="curve" smooth="yes"/>
      <point x="25" y="0" type="line"/>
      <point x="297" y="0" type="line"/>
      <point x="383" y="420" type="line"/>
      <point x="426" y="459" type="line"/>
      <point x="477" y="348"/>
      <point x="563" y="158"/>
      <point x="608" y="88" type="curve" smooth="yes"/>
      <point x="645" y="33"/>
      <point x="733" y="-25"/>
      <point x="807" y="-25" type="curve" smooth="yes"/>
      <point x="901" y="-25"/>
      <point x="1034" y="18"/>
    </contour>
  </outline>
</glyph>
<glyph name="LtnCapNLftHook" format="2">
  <advance width="1571"/>
  <unicode hex="019D"/>
  <anchor x="682" y="-100" name="L"/>
  <anchor x="970" y="1500" name="U"/>
  <outline>
    <contour>
      <point x="-125" y="-469" type="curve" smooth="yes"/>
      <point x="223" y="-469"/>
      <point x="346" y="-305"/>
      <point x="395" y="-43" type="curve"/>
      <point x="586" y="934" type="line"/>
      <point x="668" y="1069"/>
      <point x="831" y="1237"/>
      <point x="983" y="1237" type="curve" smooth="yes"/>
      <point x="1083" y="1237"/>
      <point x="1229" y="1143"/>
      <point x="1196" y="975" type="curve" smooth="yes"/>
      <point x="1042" y="156" type="line" smooth="yes"/>
      <point x="1036" y="129"/>
      <point x="1028" y="115"/>
      <point x="989" y="111" type="curve"/>
      <point x="872" y="102" type="line"/>
      <point x="872" y="0" type="line"/>
      <point x="1470" y="0" type="line"/>
      <point x="1470" y="102" type="line"/>
      <point x="1372" y="113" type="line"/>
      <point x="1343" y="115"/>
      <point x="1331" y="129"/>
      <point x="1335" y="156" type="curve" smooth="yes"/>
      <point x="1491" y="975" type="line" smooth="yes"/>
      <point x="1495" y="997"/>
      <point x="1497" y="1022"/>
      <point x="1497" y="1044" type="curve" smooth="yes"/>
      <point x="1497" y="1249"/>
      <point x="1311" y="1407"/>
      <point x="1073" y="1407" type="curve" smooth="yes"/>
      <point x="899" y="1407"/>
      <point x="758" y="1337"/>
      <point x="643" y="1235" type="curve"/>
      <point x="672" y="1374" type="line"/>
      <point x="195" y="1374" type="line"/>
      <point x="195" y="1272" type="line"/>
      <point x="311" y="1264" type="line"/>
      <point x="348" y="1260"/>
      <point x="352" y="1245"/>
      <point x="346" y="1210" type="curve" smooth="yes"/>
      <point x="96" y="-86" type="line" smooth="yes"/>
      <point x="61" y="-264"/>
      <point x="41" y="-317"/>
      <point x="-41" y="-324" type="curve"/>
      <point x="-160" y="-164" type="line"/>
      <point x="-256" y="-164"/>
      <point x="-326" y="-254"/>
      <point x="-326" y="-328" type="curve" smooth="yes"/>
      <point x="-326" y="-401"/>
      <point x="-252" y="-469"/>
    </contour>
  </outline>
</glyph>
<glyph name="LtnCapOHorn" format="2">
  <advance width="1653"/>
  <unicode hex="01A0"/>
  <anchor x="612" y="-100" name="L"/>
  <anchor x="900" y="1500" name="U"/>
  <outline>
    <contour>
      <point x="1763" y="1475" type="curve" smooth="yes"/>
      <point x="1763" y="1608"/>
      <point x="1655" y="1688"/>
      <point x="1538" y="1688" type="curve" smooth="yes"/>
      <point x="1432" y="1688"/>
      <point x="1335" y="1612"/>
      <point x="1335" y="1497" type="curve" smooth="yes"/>
      <point x="1335" y="1438"/>
      <point x="1378" y="1376"/>
      <point x="1378" y="1376" type="curve"/>
      <point x="1567" y="1376" type="line"/>
      <point x="1548" y="1278"/>
      <point x="1505" y="1208"/>
      <point x="1421" y="1151" type="curve"/>
      <point x="1323" y="1311"/>
      <point x="1153" y="1409"/>
      <point x="903" y="1409" type="curve" smooth="yes"/>
      <point x="397" y="1409"/>
      <point x="98" y="967"/>
      <point x="98" y="541" type="curve" smooth="yes"/>
      <point x="98" y="209"/>
      <point x="317" y="-33"/>
      <point x="698" y="-33" type="curve" smooth="yes"/>
      <point x="1235" y="-33"/>
      <point x="1501" y="436"/>
      <point x="1501" y="854" type="curve" smooth="yes"/>
      <point x="1501" y="915"/>
      <point x="1493" y="973"/>
      <point x="1477" y="1026" type="curve"/>
      <point x="1647" y="1120"/>
      <point x="1763" y="1296"/>
    </contour>
    <contour>
      <point x="1182" y="854" type="curve" smooth="yes"/>
      <point x="1182" y="500"/>
      <point x="954" y="94"/>
      <point x="713" y="94" type="curve" smooth="yes"/>
      <point x="578" y="94"/>
      <point x="416" y="242"/>
      <point x="416" y="524" type="curve" smooth="yes"/>
      <point x="416" y="893"/>
      <point x="641" y="1286"/>
      <point x="885" y="1286" type="curve" smooth="yes"/>
      <point x="1026" y="1286"/>
      <point x="1182" y="1133"/>
    </contour>
  </outline>
</glyph>
<glyph name="LtnCapOi" format="2">
  <advance width="2050"/>
  <unicode hex="01A2"/>
  <anchor x="960" y="-100" name="L"/>
  <anchor x="1048" y="1500" name="U"/>
  <outline>
    <contour>
      <point x="1444" y="1238" type="line"/>
      <point x="1287" y="1357"/>
      <point x="1160" y="1407"/>
      <point x="923" y="1407" type="curve" smooth="yes"/>
      <point x="423" y="1407"/>
      <point x="98" y="995"/>
      <point x="98" y="549" type="curve" smooth="yes"/>
      <point x="98" y="217"/>
      <point x="304" y="-33"/>
      <point x="684" y="-33" type="curve" smooth="yes"/>
      <point x="943" y="-33"/>
      <point x="1159" y="96"/>
      <point x="1248" y="229" type="curve"/>
    </contour>
    <contour>
      <point x="963" y="273" type="line"/>
      <point x="889" y="141"/>
      <point x="821" y="94"/>
      <point x="703" y="94" type="curve" smooth="yes"/>
      <point x="548" y="94"/>
      <point x="416" y="262"/>
      <point x="416" y="522" type="curve" smooth="yes"/>
      <point x="416" y="861"/>
      <point x="617" y="1284"/>
      <point x="907" y="1284" type="curve" smooth="yes"/>
      <point x="1017" y="1284"/>
      <point x="1072" y="1263"/>
      <point x="1145" y="1209" type="curve"/>
    </contour>
    <contour>
      <point x="1289" y="1201" type="line"/>
      <point x="1343" y="1088" type="line"/>
      <point x="1686" y="1157" type="line"/>
      <point x="1406" y="-288" type="line" smooth="yes"/>
      <point x="1401" y="-314"/>
      <point x="1376" y="-332"/>
      <point x="1352" y="-333" type="curve" smooth="yes"/>
      <point x="1197" y="-340" type="line"/>
      <point x="1197" y="-446" type="line"/>
      <point x="1856" y="-446" type="line"/>
      <point x="1856" y="-340" type="line"/>
      <point x="1736" y="-333" type="line" smooth="yes"/>
      <point x="1709" y="-331"/>
      <point x="1695" y="-311"/>
      <point x="1699" y="-288" type="curve" smooth="yes"/>
      <point x="2027" y="1407" type="line"/>
      <point x="1867" y="1407" type="line"/>
    </contour>
  </outline>
</glyph>
<glyph name="LtnSmOi" format="2">
  <advance width="1709"/>
  <unicode hex="01A3"/>
  <anchor x="791" y="-100" name="L"/>
  <anchor x="1035" y="1100" name="U"/>
  <outline>
    <contour>
      <point x="1096" y="893" type="line"/>
      <point x="1001" y="959"/>
      <point x="846" y="1024"/>
      <point x="689" y="1024" type="curve" smooth="yes"/>
      <point x="256" y="1024"/>
      <point x="66" y="693"/>
      <point x="66" y="371" type="curve" smooth="yes"/>
      <point x="66" y="145"/>
      <point x="205" y="-25"/>
      <point x="490" y="-25" type="curve" smooth="yes"/>
      <point x="684" y="-25"/>
      <point x="872" y="57"/>
      <point x="956" y="162" type="curve"/>
    </contour>
    <contour>
      <point x="511" y="88" type="curve" smooth="yes"/>
      <point x="446" y="88"/>
      <point x="358" y="168"/>
      <point x="358" y="379" type="curve" smooth="yes"/>
      <point x="358" y="622"/>
      <point x="491" y="915"/>
      <point x="640" y="915" type="curve" smooth="yes"/>
      <point x="720" y="915"/>
      <point x="761" y="887"/>
      <point x="814" y="850" type="curve"/>
      <point x="691" y="209" type="line"/>
      <point x="658" y="134"/>
      <point x="579" y="88"/>
    </contour>
    <contour>
      <point x="924" y="859" type="line"/>
      <point x="976" y="756" type="line"/>
      <point x="1322" y="808" type="line"/>
      <point x="1108" y="-296" type="line" smooth="yes"/>
      <point x="1101" y="-330"/>
      <point x="1094" y="-342"/>
      <point x="1070" y="-344" type="curve" smooth="yes"/>
      <point x="945" y="-356" type="line"/>
      <point x="945" y="-449" type="line"/>
      <point x="1548" y="-449" type="line"/>
      <point x="1548" y="-356" type="line"/>
      <point x="1401" y="-344" type="line" smooth="yes"/>
      <point x="1377" y="-342"/>
      <point x="1376" y="-328"/>
      <point x="1382" y="-296" type="curve" smooth="yes"/>
      <point x="1638" y="1024" type="line"/>
      <point x="1483" y="1024" type="line"/>
    </contour>
  </outline>
</glyph>
<glyph name="LtnCapPHook" format="2">
  <advance width="1474"/>
  <unicode hex="01A4"/>
  <anchor x="568" y="-100" name="L"/>
  <anchor x="856" y="1500" name="U"/>
  <outline>
    <contour>
      <point x="165" y="0" type="line"/>
      <point x="784" y="0" type="line"/>
      <point x="784" y="102" type="line"/>
      <point x="663" y="113" type="line" smooth="yes"/>
      <point x="636" y="115"/>
      <point x="621" y="119"/>
      <point x="626" y="143" type="curve" smooth="yes"/>
      <point x="700" y="508" type="line"/>
      <point x="728" y="506"/>
      <point x="765" y="506"/>
      <point x="788" y="506" type="curve" smooth="yes"/>
      <point x="1197" y="506"/>
      <point x="1455" y="721"/>
      <point x="1455" y="1040" type="curve" smooth="yes"/>
      <point x="1455" y="1223"/>
      <point x="1332" y="1374"/>
      <point x="945" y="1374" type="curve" smooth="yes"/>
      <point x="456" y="1374" type="line" smooth="yes"/>
      <point x="272" y="1374"/>
      <point x="130" y="1294"/>
      <point x="130" y="1139" type="curve" smooth="yes"/>
      <point x="130" y="1077"/>
      <point x="179" y="991"/>
      <point x="263" y="991" type="curve" smooth="yes"/>
      <point x="321" y="991"/>
      <point x="349" y="1001"/>
      <point x="409" y="1053" type="curve"/>
      <point x="360" y="1198" type="line"/>
      <point x="386" y="1231"/>
      <point x="407" y="1243"/>
      <point x="452" y="1243" type="curve" smooth="yes"/>
      <point x="507" y="1243" type="line" smooth="yes"/>
      <point x="530" y="1243"/>
      <point x="549" y="1235"/>
      <point x="544" y="1210" type="curve" smooth="yes"/>
      <point x="333" y="145" type="line" smooth="yes"/>
      <point x="328" y="119"/>
      <point x="310" y="115"/>
      <point x="284" y="113" type="curve" smooth="yes"/>
      <point x="165" y="102" type="line"/>
    </contour>
    <contour>
      <point x="722" y="631" type="curve"/>
      <point x="847" y="1257" type="line"/>
      <point x="859" y="1257"/>
      <point x="872" y="1257"/>
      <point x="882" y="1257" type="curve" smooth="yes"/>
      <point x="1064" y="1257"/>
      <point x="1156" y="1169"/>
      <point x="1156" y="1008" type="curve" smooth="yes"/>
      <point x="1156" y="852"/>
      <point x="1078" y="750"/>
      <point x="980" y="692" type="curve" smooth="yes"/>
      <point x="896" y="642"/>
      <point x="802" y="631"/>
    </contour>
  </outline>
</glyph>
<glyph name="LtnSmPHook" format="2">
  <advance width="1108"/>
  <unicode hex="01A5"/>
  <anchor x="662" y="-100" name="L"/>
  <anchor x="697" y="1540" name="U"/>
  <outline>
    <contour>
      <point x="-197" y="-449" type="line"/>
      <point x="406" y="-449" type="line"/>
      <point x="406" y="-356" type="line"/>
      <point x="264" y="-344" type="line"/>
      <point x="242" y="-344"/>
      <point x="229" y="-330"/>
      <point x="233" y="-311" type="curve" smooth="yes"/>
      <point x="295" y="-8" type="line"/>
      <point x="322" y="-16"/>
      <point x="360" y="-25"/>
      <point x="410" y="-25" type="curve" smooth="yes"/>
      <point x="799" y="-25"/>
      <point x="1042" y="309"/>
      <point x="1042" y="637" type="curve" smooth="yes"/>
      <point x="1042" y="823"/>
      <point x="944" y="1024"/>
      <point x="729" y="1024" type="curve" smooth="yes"/>
      <point x="621" y="1024"/>
      <point x="526" y="973"/>
      <point x="483" y="948" type="curve"/>
      <point x="497" y="1015" type="line" smooth="yes"/>
      <point x="530" y="1175"/>
      <point x="570" y="1255"/>
      <point x="643" y="1285" type="curve"/>
      <point x="788" y="1155" type="line"/>
      <point x="848" y="1166"/>
      <point x="913" y="1199"/>
      <point x="913" y="1297" type="curve" smooth="yes"/>
      <point x="913" y="1361"/>
      <point x="860" y="1440"/>
      <point x="719" y="1440" type="curve" smooth="yes"/>
      <point x="441" y="1440"/>
      <point x="261" y="1231"/>
      <point x="228" y="1060" type="curve" smooth="yes"/>
      <point x="-39" y="-311" type="line" smooth="yes"/>
      <point x="-43" y="-330"/>
      <point x="-53" y="-344"/>
      <point x="-74" y="-346" type="curve"/>
      <point x="-197" y="-356" type="line"/>
    </contour>
    <contour>
      <point x="449" y="84" type="curve" smooth="yes"/>
      <point x="412" y="84"/>
      <point x="356" y="119"/>
      <point x="324" y="139" type="curve"/>
      <point x="449" y="770" type="line"/>
      <point x="489" y="807"/>
      <point x="575" y="881"/>
      <point x="633" y="881" type="curve" smooth="yes"/>
      <point x="741" y="881"/>
      <point x="756" y="743"/>
      <point x="756" y="629" type="curve" smooth="yes"/>
      <point x="756" y="389"/>
      <point x="621" y="84"/>
    </contour>
  </outline>
</glyph>
<glyph name="LtnCapTnTwo" format="2">
  <advance width="1167"/>
  <unicode hex="01A7"/>
  <anchor x="437" y="-100" name="L"/>
  <anchor x="725" y="1500" name="U"/>
  <outline>
    <contour>
      <point x="1023" y="423" type="line"/>
      <point x="850" y="423" type="line"/>
      <point x="781" y="190" type="line" smooth="yes"/>
      <point x="768" y="147"/>
      <point x="642" y="94"/>
      <point x="525" y="94" type="curve" smooth="yes"/>
      <point x="422" y="94"/>
      <point x="323" y="154"/>
      <point x="323" y="282" type="curve" smooth="yes"/>
      <point x="323" y="470"/>
      <point x="523" y="518"/>
      <point x="702" y="617" type="curve" smooth="yes"/>
      <point x="902" y="728"/>
      <point x="1113" y="882"/>
      <point x="1113" y="1122" type="curve" smooth="yes"/>
      <point x="1113" y="1321"/>
      <point x="928" y="1407"/>
      <point x="672" y="1407" type="curve" smooth="yes"/>
      <point x="485" y="1407"/>
      <point x="367" y="1365"/>
      <point x="264" y="1326" type="curve"/>
      <point x="207" y="1006" type="line"/>
      <point x="362" y="1006" type="line"/>
      <point x="441" y="1214" type="line"/>
      <point x="442" y="1236"/>
      <point x="554" y="1286"/>
      <point x="648" y="1286" type="curve" smooth="yes"/>
      <point x="740" y="1286"/>
      <point x="816" y="1233"/>
      <point x="816" y="1119" type="curve" smooth="yes"/>
      <point x="816" y="982"/>
      <point x="737" y="907"/>
      <point x="521" y="804" type="curve" smooth="yes"/>
      <point x="230" y="665"/>
      <point x="31" y="537"/>
      <point x="31" y="292" type="curve" smooth="yes"/>
      <point x="31" y="108"/>
      <point x="180" y="-33"/>
      <point x="539" y="-33" type="curve" smooth="yes"/>
      <point x="740" y="-33"/>
      <point x="889" y="40"/>
      <point x="962" y="84" type="curve"/>
    </contour>
  </outline>
</glyph>
<glyph name="LtnSmTnTwo" format="2">
  <advance width="857"/>
  <unicode hex="01A8"/>
  <anchor x="330" y="-100" name="L"/>
  <anchor x="574" y="1100" name="U"/>
  <outline>
    <contour>
      <point x="468" y="922" type="curve" smooth="yes"/>
      <point x="522" y="922"/>
      <point x="576" y="883"/>
      <point x="576" y="819" type="curve" smooth="yes"/>
      <point x="576" y="761"/>
      <point x="459" y="654"/>
      <point x="330" y="576" type="curve" smooth="yes"/>
      <point x="199" y="497"/>
      <point x="33" y="389"/>
      <point x="33" y="214" type="curve" smooth="yes"/>
      <point x="33" y="62"/>
      <point x="186" y="-25"/>
      <point x="400" y="-25" type="curve" smooth="yes"/>
      <point x="580" y="-25"/>
      <point x="777" y="61"/>
      <point x="777" y="193" type="curve" smooth="yes"/>
      <point x="777" y="261"/>
      <point x="726" y="298"/>
      <point x="676" y="298" type="curve" smooth="yes"/>
      <point x="626" y="298"/>
      <point x="569" y="286"/>
      <point x="556" y="277" type="curve"/>
      <point x="519" y="134" type="line"/>
      <point x="478" y="94"/>
      <point x="446" y="79"/>
      <point x="386" y="79" type="curve" smooth="yes"/>
      <point x="325" y="79"/>
      <point x="290" y="146"/>
      <point x="290" y="186" type="curve" smooth="yes"/>
      <point x="290" y="279"/>
      <point x="402" y="361"/>
      <point x="528" y="450" type="curve" smooth="yes"/>
      <point x="656" y="540"/>
      <point x="828" y="663"/>
      <point x="828" y="795" type="curve" smooth="yes"/>
      <point x="828" y="935"/>
      <point x="696" y="1022"/>
      <point x="492" y="1022" type="curve" smooth="yes"/>
      <point x="322" y="1022"/>
      <point x="134" y="960"/>
      <point x="134" y="842" type="curve" smooth="yes"/>
      <point x="134" y="784"/>
      <point x="175" y="729"/>
      <point x="245" y="729" type="curve" smooth="yes"/>
      <point x="286" y="729"/>
      <point x="321" y="741"/>
      <point x="338" y="749" type="curve"/>
      <point x="397" y="906" type="line"/>
      <point x="406" y="912"/>
      <point x="440" y="922"/>
    </contour>
  </outline>
</glyph>
<glyph name="LtnCapEsh" format="2">
  <advance width="1173"/>
  <unicode hex="01A9"/>
  <anchor x="471" y="-100" name="L"/>
  <anchor x="818" y="1500" name="U"/>
  <outline>
    <contour>
      <point x="995" y="0" type="line"/>
      <point x="1071" y="403" type="line"/>
      <point x="922" y="403" type="line"/>
      <point x="833" y="150" type="line"/>
      <point x="826" y="135"/>
      <point x="814" y="127"/>
      <point x="796" y="127" type="curve" smooth="yes"/>
      <point x="299" y="127" type="line"/>
      <point x="805" y="715" type="line"/>
      <point x="561" y="1249" type="line"/>
      <point x="1004" y="1249" type="line" smooth="yes"/>
      <point x="1020" y="1249"/>
      <point x="1028" y="1241"/>
      <point x="1028" y="1225" type="curve" smooth="yes"/>
      <point x="1019" y="1001" type="line"/>
      <point x="1171" y="1001" type="line"/>
      <point x="1243" y="1374" type="line"/>
      <point x="260" y="1374" type="line"/>
      <point x="237" y="1253" type="line"/>
      <point x="489" y="715" type="line"/>
      <point x="-20" y="121" type="line"/>
      <point x="-43" y="0" type="line"/>
    </contour>
  </outline>
</glyph>
<glyph name="LtnRevEshLoop" format="2">
  <advance width="987"/>
  <unicode hex="01AA"/>
  <anchor x="415" y="-500" name="L"/>
  <anchor x="807" y="1540" name="U"/>
  <outline>
    <contour>
      <point x="1077" y="-301" type="curve" smooth="yes"/>
      <point x="1077" y="-211"/>
      <point x="1022" y="-162"/>
      <point x="936" y="-162" type="curve"/>
      <point x="782" y="-291" type="line"/>
      <point x="754" y="-291"/>
      <point x="711" y="-240"/>
      <point x="711" y="-193" type="curve" smooth="yes"/>
      <point x="711" y="-150"/>
      <point x="715" y="-88"/>
      <point x="729" y="-12" type="curve" smooth="yes"/>
      <point x="930" y="1016" type="line" smooth="yes"/>
      <point x="935" y="1040"/>
      <point x="938" y="1067"/>
      <point x="938" y="1092" type="curve" smooth="yes"/>
      <point x="938" y="1260"/>
      <point x="840" y="1409"/>
      <point x="582" y="1409" type="curve" smooth="yes"/>
      <point x="238" y="1409"/>
      <point x="80" y="1139"/>
      <point x="80" y="934" type="curve" smooth="yes"/>
      <point x="80" y="762"/>
      <point x="190" y="625"/>
      <point x="436" y="625" type="curve" smooth="yes"/>
      <point x="494" y="625"/>
      <point x="545" y="633"/>
      <point x="590" y="645" type="curve"/>
      <point x="465" y="-6" type="line" smooth="yes"/>
      <point x="459" y="-39"/>
      <point x="455" y="-72"/>
      <point x="455" y="-102" type="curve" smooth="yes"/>
      <point x="455" y="-285"/>
      <point x="561" y="-446"/>
      <point x="825" y="-446" type="curve" smooth="yes"/>
      <point x="961" y="-446"/>
      <point x="1077" y="-395"/>
    </contour>
    <contour>
      <point x="672" y="1102" type="curve" smooth="yes"/>
      <point x="672" y="948"/>
      <point x="616" y="750"/>
      <point x="453" y="750" type="curve" smooth="yes"/>
      <point x="375" y="750"/>
      <point x="344" y="805"/>
      <point x="344" y="930" type="curve" smooth="yes"/>
      <point x="344" y="1075"/>
      <point x="399" y="1284"/>
      <point x="565" y="1284" type="curve" smooth="yes"/>
      <point x="651" y="1284"/>
      <point x="672" y="1225"/>
    </contour>
  </outline>
</glyph>
<glyph name="LtnSmTPalHook" format="2">
  <advance width="705"/>
  <unicode hex="01AB"/>
  <anchor x="166" y="-500" name="L"/>
  <anchor x="505" y="1363" name="U"/>
  <outline>
    <contour>
      <point x="256" y="-469" type="curve" smooth="yes"/>
      <point x="512" y="-469"/>
      <point x="608" y="-256"/>
      <point x="627" y="-164" type="curve" smooth="yes"/>
      <point x="702" y="188" type="line"/>
      <point x="637" y="166"/>
      <point x="510" y="117"/>
      <point x="446" y="117" type="curve" smooth="yes"/>
      <point x="383" y="117"/>
      <point x="352" y="160"/>
      <point x="367" y="223" type="curve"/>
      <point x="496" y="856" type="line"/>
      <point x="801" y="856" type="line"/>
      <point x="801" y="969" type="line"/>
      <point x="516" y="969" type="line"/>
      <point x="559" y="1200" type="line"/>
      <point x="354" y="1200" type="line"/>
      <point x="250" y="989" type="line"/>
      <point x="76" y="920" type="line"/>
      <point x="76" y="836" type="line"/>
      <point x="223" y="852" type="line"/>
      <point x="98" y="242" type="line" smooth="yes"/>
      <point x="92" y="213"/>
      <point x="90" y="186"/>
      <point x="90" y="160" type="curve" smooth="yes"/>
      <point x="90" y="53"/>
      <point x="166" y="-25"/>
      <point x="324" y="-25" type="curve" smooth="yes"/>
      <point x="381" y="-25"/>
      <point x="455" y="-14"/>
      <point x="520" y="10" type="curve"/>
      <point x="477" y="-160" type="line"/>
      <point x="457" y="-242"/>
      <point x="408" y="-299"/>
      <point x="356" y="-307" type="curve"/>
      <point x="213" y="-178" type="line"/>
      <point x="141" y="-195"/>
      <point x="61" y="-252"/>
      <point x="61" y="-332" type="curve" smooth="yes"/>
      <point x="61" y="-410"/>
      <point x="117" y="-469"/>
    </contour>
  </outline>
</glyph>
<glyph name="LtnCapTHook" format="2">
  <advance width="1283"/>
  <unicode hex="01AC"/>
  <anchor x="510" y="-100" name="L"/>
  <anchor x="798" y="1500" name="U"/>
  <outline>
    <contour>
      <point x="251" y="0" type="line"/>
      <point x="869" y="0" type="line"/>
      <point x="869" y="102" type="line"/>
      <point x="751" y="113" type="line"/>
      <point x="726" y="115"/>
      <point x="708" y="119"/>
      <point x="712" y="143" type="curve" smooth="yes"/>
      <point x="923" y="1262" type="line"/>
      <point x="1146" y="1262" type="line" smooth="yes"/>
      <point x="1166" y="1262"/>
      <point x="1193" y="1253"/>
      <point x="1191" y="1235" type="curve"/>
      <point x="1181" y="1016" type="line"/>
      <point x="1340" y="1016" type="line"/>
      <point x="1414" y="1374" type="line"/>
      <point x="456" y="1374" type="line" smooth="yes"/>
      <point x="259" y="1374"/>
      <point x="124" y="1278"/>
      <point x="124" y="1098" type="curve" smooth="yes"/>
      <point x="124" y="1004"/>
      <point x="185" y="934"/>
      <point x="284" y="934" type="curve" smooth="yes"/>
      <point x="337" y="934"/>
      <point x="411" y="977"/>
      <point x="427" y="1055" type="curve"/>
      <point x="300" y="1194" type="line"/>
      <point x="300" y="1239"/>
      <point x="333" y="1262"/>
      <point x="419" y="1262" type="curve" smooth="yes"/>
      <point x="630" y="1262" type="line"/>
      <point x="419" y="145" type="line" smooth="yes"/>
      <point x="415" y="119"/>
      <point x="392" y="113"/>
      <point x="364" y="111" type="curve"/>
      <point x="251" y="102" type="line"/>
    </contour>
  </outline>
</glyph>
<glyph name="LtnSmTHook" format="2">
  <advance width="705"/>
  <unicode hex="01AD"/>
  <anchor x="272" y="-100" name="L"/>
  <anchor x="588" y="1540" name="U"/>
  <outline>
    <contour>
      <point x="328" y="-25" type="curve" smooth="yes"/>
      <point x="457" y="-25"/>
      <point x="662" y="55"/>
      <point x="707" y="76" type="curve"/>
      <point x="707" y="188" type="line"/>
      <point x="641" y="163"/>
      <point x="514" y="117"/>
      <point x="451" y="117" type="curve" smooth="yes"/>
      <point x="398" y="117"/>
      <point x="367" y="147"/>
      <point x="367" y="193" type="curve" smooth="yes"/>
      <point x="367" y="203"/>
      <point x="369" y="213"/>
      <point x="371" y="223" type="curve" smooth="yes"/>
      <point x="500" y="856" type="line"/>
      <point x="805" y="856" type="line"/>
      <point x="805" y="969" type="line"/>
      <point x="520" y="969" type="line"/>
      <point x="564" y="1186"/>
      <point x="580" y="1254"/>
      <point x="656" y="1285" type="curve"/>
      <point x="801" y="1155" type="line"/>
      <point x="861" y="1166"/>
      <point x="926" y="1199"/>
      <point x="926" y="1297" type="curve" smooth="yes"/>
      <point x="926" y="1361"/>
      <point x="873" y="1440"/>
      <point x="732" y="1440" type="curve" smooth="yes"/>
      <point x="454" y="1440"/>
      <point x="327" y="1267"/>
      <point x="254" y="989" type="curve"/>
      <point x="80" y="920" type="line"/>
      <point x="80" y="836" type="line"/>
      <point x="227" y="852" type="line"/>
      <point x="102" y="242" type="line" smooth="yes"/>
      <point x="96" y="213"/>
      <point x="94" y="186"/>
      <point x="94" y="160" type="curve" smooth="yes"/>
      <point x="94" y="53"/>
      <point x="170" y="-25"/>
    </contour>
  </outline>
</glyph>
<glyph name="LtnCapUpsilon" format="2">
  <advance width="1536"/>
  <unicode hex="01B1"/>
  <anchor x="645" y="-100" name="L"/>
  <anchor x="933" y="1500" name="U"/>
  <outline>
    <contour>
      <point x="1536" y="1374" type="line"/>
      <point x="1090" y="1374" type="line"/>
      <point x="1137" y="1251"/>
      <point x="1167" y="1106"/>
      <point x="1167" y="987" type="curve" smooth="yes"/>
      <point x="1167" y="676"/>
      <point x="1020" y="125"/>
      <point x="682" y="125" type="curve" smooth="yes"/>
      <point x="475" y="125"/>
      <point x="440" y="313"/>
      <point x="440" y="487" type="curve" smooth="yes"/>
      <point x="440" y="778"/>
      <point x="590" y="1133"/>
      <point x="782" y="1374" type="curve"/>
      <point x="334" y="1374" type="line"/>
      <point x="305" y="1251" type="line"/>
      <point x="422" y="1241" type="line" smooth="yes"/>
      <point x="449" y="1239"/>
      <point x="455" y="1219"/>
      <point x="440" y="1198" type="curve"/>
      <point x="385" y="1127"/>
      <point x="308" y="1027"/>
      <point x="295" y="1008" type="curve" smooth="yes"/>
      <point x="193" y="854"/>
      <point x="98" y="672"/>
      <point x="98" y="487" type="curve" smooth="yes"/>
      <point x="98" y="193"/>
      <point x="285" y="-33"/>
      <point x="657" y="-33" type="curve" smooth="yes"/>
      <point x="1137" y="-33"/>
      <point x="1470" y="381"/>
      <point x="1470" y="774" type="curve" smooth="yes"/>
      <point x="1470" y="881"/>
      <point x="1436" y="989"/>
      <point x="1403" y="1090" type="curve"/>
      <point x="1399" y="1099"/>
      <point x="1376" y="1157"/>
      <point x="1360" y="1198" type="curve"/>
      <point x="1352" y="1219"/>
      <point x="1360" y="1235"/>
      <point x="1389" y="1237" type="curve" smooth="yes"/>
      <point x="1513" y="1251" type="line"/>
    </contour>
  </outline>
</glyph>
<glyph name="LtnCapYHook.RtHook" format="2">
  <advance width="1532"/>
  <unicode hex="01B3"/>
  <anchor x="531" y="-100" name="L"/>
  <anchor x="804" y="0" name="O"/>
  <anchor x="819" y="1500" name="U"/>
  <outline>
    <contour>
      <point x="303" y="0" type="line"/>
      <point x="922" y="0" type="line"/>
      <point x="922" y="102" type="line"/>
      <point x="805" y="113" type="line" smooth="yes"/>
      <point x="776" y="116"/>
      <point x="763" y="119"/>
      <point x="768" y="143" type="curve" smooth="yes"/>
      <point x="852" y="557" type="line"/>
      <point x="1182" y="1091" type="line" smooth="yes"/>
      <point x="1302" y="1286"/>
      <point x="1350" y="1349"/>
      <point x="1414" y="1349" type="curve"/>
      <point x="1550" y="1209" type="line"/>
      <point x="1627" y="1251"/>
      <point x="1694" y="1313"/>
      <point x="1694" y="1392" type="curve" smooth="yes"/>
      <point x="1694" y="1477"/>
      <point x="1613" y="1543"/>
      <point x="1467" y="1543" type="curve" smooth="yes"/>
      <point x="1249" y="1543"/>
      <point x="1156" y="1430"/>
      <point x="1023" y="1216" type="curve" smooth="yes"/>
      <point x="766" y="801" type="line"/>
      <point x="629" y="1231" type="line" smooth="yes"/>
      <point x="620" y="1258"/>
      <point x="639" y="1263"/>
      <point x="662" y="1264" type="curve" smooth="yes"/>
      <point x="788" y="1272" type="line"/>
      <point x="788" y="1374" type="line"/>
      <point x="172" y="1374" type="line"/>
      <point x="172" y="1272" type="line"/>
      <point x="274" y="1264" type="line" smooth="yes"/>
      <point x="299" y="1262"/>
      <point x="319" y="1260"/>
      <point x="326" y="1239" type="curve" smooth="yes"/>
      <point x="555" y="559" type="line"/>
      <point x="471" y="145" type="line" smooth="yes"/>
      <point x="466" y="119"/>
      <point x="446" y="115"/>
      <point x="420" y="113" type="curve" smooth="yes"/>
      <point x="303" y="102" type="line"/>
    </contour>
  </outline>
</glyph>
<glyph name="LtnSmYHook.RtHook" format="2">
  <advance width="1229"/>
  <unicode hex="01B4"/>
  <anchor x="682" y="-100" name="L"/>
  <anchor x="360" y="-404" name="O"/>
  <anchor x="589" y="1100" name="U"/>
  <outline>
    <contour>
      <point x="40" y="-469" type="curve" smooth="yes"/>
      <point x="297" y="-469"/>
      <point x="474" y="-283"/>
      <point x="659" y="87" type="curve" smooth="yes"/>
      <point x="742" y="252"/>
      <point x="907" y="658"/>
      <point x="981" y="843" type="curve" smooth="yes"/>
      <point x="1084" y="1100"/>
      <point x="1161" y="1165"/>
      <point x="1234" y="1195" type="curve"/>
      <point x="1379" y="1065" type="line"/>
      <point x="1439" y="1076"/>
      <point x="1504" y="1109"/>
      <point x="1504" y="1207" type="curve" smooth="yes"/>
      <point x="1504" y="1271"/>
      <point x="1451" y="1350"/>
      <point x="1310" y="1350" type="curve" smooth="yes"/>
      <point x="1084" y="1350"/>
      <point x="907" y="1151"/>
      <point x="818" y="923" type="curve" smooth="yes"/>
      <point x="747" y="740"/>
      <point x="617" y="418"/>
      <point x="518" y="209" type="curve" smooth="yes"/>
      <point x="419" y="0"/>
      <point x="223" y="-272"/>
      <point x="99" y="-302" type="curve"/>
      <point x="0" y="-143" type="line"/>
      <point x="-101" y="-147"/>
      <point x="-161" y="-212"/>
      <point x="-161" y="-304" type="curve" smooth="yes"/>
      <point x="-161" y="-385"/>
      <point x="-100" y="-469"/>
    </contour>
    <contour>
      <point x="410" y="-67" type="curve"/>
      <point x="614" y="286" type="line"/>
      <point x="593" y="439"/>
      <point x="527" y="747"/>
      <point x="500" y="840" type="curve" smooth="yes"/>
      <point x="459" y="975"/>
      <point x="407" y="1027"/>
      <point x="319" y="1024" type="curve" smooth="yes"/>
      <point x="256" y="1022"/>
      <point x="41" y="959"/>
      <point x="4" y="947" type="curve"/>
      <point x="4" y="884" type="line"/>
      <point x="205" y="870" type="line" smooth="yes"/>
      <point x="230" y="868"/>
      <point x="268" y="699"/>
      <point x="311" y="469" type="curve" smooth="yes"/>
      <point x="329" y="372"/>
      <point x="391" y="64"/>
    </contour>
  </outline>
</glyph>
<glyph name="LtnSmEzhTail" format="2">
  <advance width="1055"/>
  <unicode hex="01BA"/>
  <anchor x="336" y="-500" name="L"/>
  <anchor x="656" y="1100" name="U"/>
  <outline>
    <contour>
      <point x="1124" y="915" type="line"/>
      <point x="938" y="1057" type="line"/>
      <point x="846" y="930" type="line"/>
      <point x="840" y="928"/>
      <point x="807" y="920"/>
      <point x="799" y="920" type="curve" smooth="yes"/>
      <point x="702" y="920"/>
      <point x="559" y="1024"/>
      <point x="401" y="1024" type="curve" smooth="yes"/>
      <point x="197" y="1024"/>
      <point x="80" y="866"/>
      <point x="80" y="725" type="curve" smooth="yes"/>
      <point x="80" y="657"/>
      <point x="158" y="594"/>
      <point x="231" y="594" type="curve" smooth="yes"/>
      <point x="281" y="594"/>
      <point x="356" y="631"/>
      <point x="383" y="674" type="curve"/>
      <point x="279" y="801" type="line"/>
      <point x="294" y="827"/>
      <point x="309" y="852"/>
      <point x="342" y="852" type="curve" smooth="yes"/>
      <point x="399" y="852"/>
      <point x="465" y="805"/>
      <point x="569" y="805" type="curve" smooth="yes"/>
      <point x="612" y="805"/>
      <point x="690" y="799"/>
      <point x="745" y="799" type="curve"/>
      <point x="307" y="410" type="line"/>
      <point x="397" y="332" type="line"/>
      <point x="444" y="375"/>
      <point x="502" y="412"/>
      <point x="530" y="412" type="curve" smooth="yes"/>
      <point x="596" y="412"/>
      <point x="682" y="354"/>
      <point x="682" y="297" type="curve" smooth="yes"/>
      <point x="682" y="106"/>
      <point x="78" y="127"/>
      <point x="78" y="-207" type="curve" smooth="yes"/>
      <point x="78" y="-356"/>
      <point x="236" y="-469"/>
      <point x="432" y="-469" type="curve" smooth="yes"/>
      <point x="659" y="-469"/>
      <point x="848" y="-317"/>
      <point x="848" y="-236" type="curve" smooth="yes"/>
      <point x="848" y="-174"/>
      <point x="815" y="-94"/>
      <point x="735" y="-94" type="curve" smooth="yes"/>
      <point x="682" y="-94"/>
      <point x="651" y="-119"/>
      <point x="627" y="-152" type="curve"/>
      <point x="627" y="-315" type="line"/>
      <point x="569" y="-358"/>
      <point x="500" y="-369"/>
      <point x="422" y="-369" type="curve" smooth="yes"/>
      <point x="360" y="-369"/>
      <point x="299" y="-299"/>
      <point x="299" y="-242" type="curve" smooth="yes"/>
      <point x="299" y="4"/>
      <point x="907" y="-47"/>
      <point x="907" y="322" type="curve" smooth="yes"/>
      <point x="907" y="461"/>
      <point x="801" y="512"/>
      <point x="680" y="512" type="curve"/>
    </contour>
  </outline>
</glyph>
<glyph name="LtnTwoStrk" format="2">
  <advance width="1202"/>
  <unicode hex="01BB"/>
  <anchor x="500" y="-100" name="L"/>
  <anchor x="788" y="1500" name="U"/>
  <outline>
    <contour>
      <point x="-18" y="0" type="line"/>
      <point x="1006" y="0" type="line"/>
      <point x="1085" y="401" type="line"/>
      <point x="952" y="401" type="line"/>
      <point x="881" y="221" type="line"/>
      <point x="297" y="221" type="line"/>
      <point x="494" y="336"/>
      <point x="672" y="442"/>
      <point x="813" y="549" type="curve"/>
      <point x="1169" y="549" type="line"/>
      <point x="1194" y="680" type="line"/>
      <point x="969" y="680" type="line"/>
      <point x="1105" y="814"/>
      <point x="1169" y="951"/>
      <point x="1169" y="1081" type="curve" smooth="yes"/>
      <point x="1169" y="1279"/>
      <point x="1005" y="1399"/>
      <point x="774" y="1399" type="curve" smooth="yes"/>
      <point x="524" y="1399"/>
      <point x="207" y="1279"/>
      <point x="207" y="1041" type="curve" smooth="yes"/>
      <point x="207" y="972"/>
      <point x="251" y="928"/>
      <point x="336" y="928" type="curve" smooth="yes"/>
      <point x="382" y="928"/>
      <point x="446" y="950"/>
      <point x="481" y="967" type="curve"/>
      <point x="537" y="1243" type="line"/>
      <point x="580" y="1257"/>
      <point x="602" y="1262"/>
      <point x="657" y="1262" type="curve" smooth="yes"/>
      <point x="787" y="1262"/>
      <point x="862" y="1178"/>
      <point x="862" y="1055" type="curve" smooth="yes"/>
      <point x="862" y="937"/>
      <point x="798" y="807"/>
      <point x="682" y="680" type="curve"/>
      <point x="158" y="680" type="line"/>
      <point x="131" y="549" type="line"/>
      <point x="549" y="549" type="line"/>
      <point x="354" y="381"/>
      <point x="123" y="248"/>
      <point x="16" y="170" type="curve"/>
    </contour>
  </outline>
</glyph>
<glyph name="LtnInvGlottalStopStrk" format="2">
  <advance width="983"/>
  <unicode hex="01BE"/>
  <anchor x="345" y="-100" name="L"/>
  <anchor x="661" y="1540" name="U"/>
  <outline>
    <contour>
      <point x="332" y="-25" type="curve" smooth="yes"/>
      <point x="610" y="-25"/>
      <point x="883" y="154"/>
      <point x="883" y="455" type="curve" smooth="yes"/>
      <point x="883" y="623"/>
      <point x="758" y="758"/>
      <point x="598" y="793" type="curve"/>
      <point x="610" y="862" type="line"/>
      <point x="850" y="862" type="line"/>
      <point x="850" y="991" type="line"/>
      <point x="637" y="991" type="line"/>
      <point x="682" y="1210" type="line" smooth="yes"/>
      <point x="687" y="1237"/>
      <point x="713" y="1260"/>
      <point x="745" y="1262" type="curve" smooth="yes"/>
      <point x="868" y="1268" type="line"/>
      <point x="868" y="1374" type="line"/>
      <point x="233" y="1374" type="line"/>
      <point x="233" y="1268" type="line"/>
      <point x="354" y="1262" type="line" smooth="yes"/>
      <point x="395" y="1260"/>
      <point x="414" y="1237"/>
      <point x="408" y="1210" type="curve" smooth="yes"/>
      <point x="362" y="991" type="line"/>
      <point x="131" y="991" type="line"/>
      <point x="131" y="862" type="line"/>
      <point x="338" y="862" type="line"/>
      <point x="317" y="762" type="line"/>
      <point x="463" y="715"/>
      <point x="598" y="588"/>
      <point x="598" y="428" type="curve" smooth="yes"/>
      <point x="598" y="288"/>
      <point x="479" y="92"/>
      <point x="349" y="92" type="curve" smooth="yes"/>
      <point x="321" y="92"/>
      <point x="294" y="102"/>
      <point x="266" y="123" type="curve"/>
      <point x="229" y="297" type="line"/>
      <point x="203" y="307"/>
      <point x="172" y="313"/>
      <point x="143" y="313" type="curve" smooth="yes"/>
      <point x="55" y="313"/>
      <point x="4" y="250"/>
      <point x="4" y="166" type="curve" smooth="yes"/>
      <point x="4" y="6"/>
      <point x="211" y="-25"/>
    </contour>
  </outline>
</glyph>
<glyph name="LtnWynn" format="2">
  <advance width="1157"/>
  <unicode hex="01BF"/>
  <anchor x="299" y="-500" name="L"/>
  <anchor x="619" y="1100" name="U"/>
  <outline>
    <contour>
      <point x="406" y="-356" type="line"/>
      <point x="264" y="-344" type="line" smooth="yes"/>
      <point x="236" y="-342"/>
      <point x="230" y="-327"/>
      <point x="233" y="-311" type="curve" smooth="yes"/>
      <point x="257" y="-193" type="line"/>
      <point x="632" y="-1"/>
      <point x="1101" y="325"/>
      <point x="1101" y="754" type="curve" smooth="yes"/>
      <point x="1101" y="906"/>
      <point x="1014" y="1024"/>
      <point x="807" y="1024" type="curve" smooth="yes"/>
      <point x="679" y="1024"/>
      <point x="552" y="962"/>
      <point x="473" y="899" type="curve"/>
      <point x="498" y="1024" type="line"/>
      <point x="360" y="1024" type="line"/>
      <point x="23" y="956" type="line"/>
      <point x="23" y="887" type="line"/>
      <point x="193" y="868" type="line"/>
      <point x="-39" y="-311" type="line" smooth="yes"/>
      <point x="-43" y="-330"/>
      <point x="-53" y="-344"/>
      <point x="-74" y="-346" type="curve" smooth="yes"/>
      <point x="-197" y="-356" type="line"/>
      <point x="-197" y="-449" type="line"/>
      <point x="406" y="-449" type="line"/>
    </contour>
    <contour>
      <point x="440" y="724" type="line"/>
      <point x="520" y="805"/>
      <point x="630" y="861"/>
      <point x="695" y="861" type="curve" smooth="yes"/>
      <point x="754" y="861"/>
      <point x="808" y="810"/>
      <point x="808" y="713" type="curve" smooth="yes"/>
      <point x="808" y="420"/>
      <point x="597" y="162"/>
      <point x="287" y="-41" type="curve"/>
    </contour>
  </outline>
</glyph>
<glyph name="LtnAlveolarClick" format="2">
  <advance width="863"/>
  <unicode hex="01C2"/>
  <anchor x="242" y="-500" name="L"/>
  <anchor x="644" y="1570" name="U"/>
  <outline>
    <component base="LtnDentalClick" xOffset="200"/>
    <contour>
      <point x="100" y="619" type="line"/>
      <point x="853" y="619" type="line"/>
      <point x="853" y="749" type="line"/>
      <point x="100" y="749" type="line"/>
    </contour>
    <contour>
      <point x="40" y="317" type="line"/>
      <point x="793" y="317" type="line"/>
      <point x="793" y="447" type="line"/>
      <point x="40" y="447" type="line"/>
    </contour>
  </outline>
</glyph>
<glyph name="LtnSmYogh" format="2">
  <advance width="871"/>
  <unicode hex="021D"/>
  <anchor x="244" y="-500" name="L"/>
  <anchor x="564" y="1100" name="U"/>
  <outline>
    <contour>
      <point x="-65" y="-469" type="line"/>
      <point x="332" y="-346"/>
      <point x="765" y="-107"/>
      <point x="765" y="148" type="curve" smooth="yes"/>
      <point x="765" y="331"/>
      <point x="578" y="411"/>
      <point x="403" y="411" type="curve"/>
      <point x="342" y="312" type="line"/>
      <point x="418" y="312"/>
      <point x="451" y="217"/>
      <point x="451" y="126" type="curve" smooth="yes"/>
      <point x="451" y="-36"/>
      <point x="314" y="-204"/>
      <point x="-37" y="-336" type="curve"/>
    </contour>
    <contour>
      <point x="136" y="213" type="line"/>
      <point x="476" y="315"/>
      <point x="853" y="518"/>
      <point x="853" y="773" type="curve" smooth="yes"/>
      <point x="853" y="946"/>
      <point x="631" y="1024"/>
      <point x="467" y="1024" type="curve" smooth="yes"/>
      <point x="359" y="1024"/>
      <point x="289" y="1011"/>
      <point x="134" y="949" type="curve"/>
      <point x="88" y="724" type="line"/>
      <point x="209" y="724" type="line"/>
      <point x="256" y="840" type="line"/>
      <point x="296" y="877"/>
      <point x="365" y="893"/>
      <point x="400" y="893" type="curve" smooth="yes"/>
      <point x="479" y="893"/>
      <point x="538" y="864"/>
      <point x="538" y="752" type="curve" smooth="yes"/>
      <point x="538" y="604"/>
      <point x="460" y="461"/>
      <point x="160" y="346" type="curve"/>
    </contour>
  </outline>
</glyph>
<glyph name="LtnSmDCurl" format="2">
  <advance width="1260"/>
  <unicode hex="0221"/>
  <anchor x="549" y="-320" name="L"/>
  <anchor x="907" y="1540" name="U"/>
  <outline>
    <contour>
      <point x="440" y="-248" type="line"/>
      <point x="510" y="-125"/>
      <point x="584" y="-12"/>
      <point x="659" y="74" type="curve"/>
      <point x="686" y="6"/>
      <point x="772" y="-25"/>
      <point x="905" y="-25" type="curve" smooth="yes"/>
      <point x="1120" y="-25"/>
      <point x="1292" y="92"/>
      <point x="1292" y="272" type="curve" smooth="yes"/>
      <point x="1292" y="348"/>
      <point x="1210" y="430"/>
      <point x="1110" y="430" type="curve" smooth="yes"/>
      <point x="1040" y="430"/>
      <point x="1042" y="424"/>
      <point x="973" y="403" type="curve"/>
      <point x="1167" y="1509" type="line"/>
      <point x="1028" y="1509" type="line"/>
      <point x="682" y="1444" type="line"/>
      <point x="682" y="1370" type="line"/>
      <point x="866" y="1354" type="line"/>
      <point x="805" y="999" type="line"/>
      <point x="778" y="1008"/>
      <point x="737" y="1024"/>
      <point x="686" y="1024" type="curve" smooth="yes"/>
      <point x="272" y="1024"/>
      <point x="66" y="659"/>
      <point x="66" y="346" type="curve" smooth="yes"/>
      <point x="66" y="188"/>
      <point x="145" y="14"/>
      <point x="334" y="-18" type="curve" smooth="yes"/>
      <point x="354" y="-23"/>
      <point x="377" y="-25"/>
      <point x="401" y="-25" type="curve"/>
      <point x="362" y="-78"/>
      <point x="330" y="-135"/>
      <point x="299" y="-195" type="curve"/>
    </contour>
    <contour>
      <point x="465" y="121" type="curve" smooth="yes"/>
      <point x="389" y="121"/>
      <point x="348" y="193"/>
      <point x="348" y="358" type="curve" smooth="yes"/>
      <point x="348" y="684"/>
      <point x="539" y="907"/>
      <point x="682" y="907" type="curve" smooth="yes"/>
      <point x="731" y="907"/>
      <point x="772" y="817"/>
      <point x="770" y="807" type="curve"/>
      <point x="676" y="276" type="line"/>
      <point x="606" y="197"/>
      <point x="535" y="121"/>
    </contour>
    <contour>
      <point x="975" y="98" type="curve" smooth="yes"/>
      <point x="946" y="98"/>
      <point x="938" y="125"/>
      <point x="938" y="188" type="curve" smooth="yes"/>
      <point x="938" y="197"/>
      <point x="940" y="227"/>
      <point x="948" y="274" type="curve"/>
      <point x="975" y="287"/>
      <point x="1042" y="324"/>
      <point x="1069" y="324" type="curve" smooth="yes"/>
      <point x="1118" y="324"/>
      <point x="1110" y="287"/>
      <point x="1110" y="254" type="curve" smooth="yes"/>
      <point x="1110" y="170"/>
      <point x="1055" y="98"/>
    </contour>
  </outline>
</glyph>
<glyph name="LtnCapOu" format="2">
  <advance width="1321"/>
  <unicode hex="0222"/>
  <anchor x="531" y="-100" name="L"/>
  <anchor x="834" y="1585" name="U"/>
  <outline>
    <contour>
      <point x="579" y="-33" type="curve" smooth="yes"/>
      <point x="883" y="-33"/>
      <point x="1210" y="130"/>
      <point x="1210" y="406" type="curve" smooth="yes"/>
      <point x="1210" y="595"/>
      <point x="1064" y="707"/>
      <point x="893" y="732" type="curve"/>
      <point x="1067" y="757"/>
      <point x="1282" y="861"/>
      <point x="1282" y="1086" type="curve" smooth="yes"/>
      <point x="1282" y="1281"/>
      <point x="1080" y="1407"/>
      <point x="851" y="1407" type="curve" smooth="yes"/>
      <point x="587" y="1407"/>
      <point x="285" y="1290"/>
      <point x="285" y="1016" type="curve" smooth="yes"/>
      <point x="285" y="833"/>
      <point x="424" y="750"/>
      <point x="552" y="732" type="curve"/>
      <point x="321" y="704"/>
      <point x="98" y="571"/>
      <point x="98" y="325" type="curve" smooth="yes"/>
      <point x="98" y="105"/>
      <point x="306" y="-33"/>
    </contour>
    <contour>
      <point x="980" y="1086" type="curve" smooth="yes"/>
      <point x="980" y="933"/>
      <point x="867" y="786"/>
      <point x="726" y="786" type="curve" smooth="yes"/>
      <point x="630" y="786"/>
      <point x="579" y="897"/>
      <point x="579" y="1016" type="curve" smooth="yes"/>
      <point x="579" y="1197"/>
      <point x="703" y="1302"/>
      <point x="819" y="1302" type="curve" smooth="yes"/>
      <point x="914" y="1302"/>
      <point x="980" y="1205"/>
    </contour>
    <contour>
      <point x="609" y="81" type="curve" smooth="yes"/>
      <point x="495" y="81"/>
      <point x="413" y="183"/>
      <point x="413" y="327" type="curve" smooth="yes"/>
      <point x="413" y="514"/>
      <point x="528" y="678"/>
      <point x="692" y="678" type="curve" smooth="yes"/>
      <point x="811" y="678"/>
      <point x="894" y="561"/>
      <point x="894" y="418" type="curve" smooth="yes"/>
      <point x="894" y="228"/>
      <point x="764" y="81"/>
    </contour>
  </outline>
</glyph>
<glyph name="LtnSmOu" format="2">
  <advance width="1209"/>
  <unicode hex="0223"/>
  <anchor x="462" y="-100" name="L"/>
  <anchor x="786" y="1580" name="U"/>
  <outline>
    <contour>
      <point x="482" y="-25" type="curve" smooth="yes"/>
      <point x="773" y="-25"/>
      <point x="1056" y="165"/>
      <point x="1056" y="454" type="curve" smooth="yes"/>
      <point x="1056" y="632"/>
      <point x="921" y="749"/>
      <point x="767" y="785" type="curve"/>
      <point x="938" y="809"/>
      <point x="1145" y="955"/>
      <point x="1145" y="1188" type="curve" smooth="yes"/>
      <point x="1145" y="1379"/>
      <point x="983" y="1509"/>
      <point x="775" y="1509" type="curve" smooth="yes"/>
      <point x="519" y="1509"/>
      <point x="254" y="1351"/>
      <point x="254" y="1067" type="curve" smooth="yes"/>
      <point x="254" y="899"/>
      <point x="389" y="803"/>
      <point x="505" y="785" type="curve"/>
      <point x="279" y="748"/>
      <point x="66" y="579"/>
      <point x="66" y="324" type="curve" smooth="yes"/>
      <point x="66" y="117"/>
      <point x="234" y="-25"/>
    </contour>
    <contour>
      <point x="858" y="1181" type="curve" smooth="yes"/>
      <point x="858" y="990"/>
      <point x="760" y="841"/>
      <point x="655" y="841" type="curve" smooth="yes"/>
      <point x="577" y="841"/>
      <point x="541" y="956"/>
      <point x="541" y="1074" type="curve" smooth="yes"/>
      <point x="541" y="1261"/>
      <point x="626" y="1402"/>
      <point x="728" y="1402" type="curve" smooth="yes"/>
      <point x="818" y="1402"/>
      <point x="858" y="1310"/>
    </contour>
    <contour>
      <point x="512" y="84" type="curve" smooth="yes"/>
      <point x="426" y="84"/>
      <point x="364" y="201"/>
      <point x="364" y="340" type="curve" smooth="yes"/>
      <point x="364" y="566"/>
      <point x="483" y="729"/>
      <point x="613" y="729" type="curve" smooth="yes"/>
      <point x="698" y="729"/>
      <point x="758" y="622"/>
      <point x="758" y="465" type="curve" smooth="yes"/>
      <point x="758" y="229"/>
      <point x="644" y="84"/>
    </contour>
  </outline>
</glyph>
<glyph name="LtnSmNCurl" format="2">
  <advance width="1264"/>
  <unicode hex="0235"/>
  <anchor x="369" y="-320" name="L"/>
  <anchor x="655" y="1100" name="U"/>
  <outline>
    <contour>
      <point x="498" y="-160" type="line"/>
      <point x="553" y="-59"/>
      <point x="612" y="18"/>
      <point x="696" y="92" type="curve"/>
      <point x="735" y="25"/>
      <point x="811" y="-25"/>
      <point x="944" y="-25" type="curve" smooth="yes"/>
      <point x="1153" y="-25"/>
      <point x="1292" y="104"/>
      <point x="1292" y="260" type="curve" smooth="yes"/>
      <point x="1292" y="365"/>
      <point x="1210" y="408"/>
      <point x="1112" y="408" type="curve" smooth="yes"/>
      <point x="1071" y="408"/>
      <point x="1030" y="393"/>
      <point x="991" y="381" type="curve"/>
      <point x="1063" y="756" type="line" smooth="yes"/>
      <point x="1096" y="930"/>
      <point x="1044" y="1024"/>
      <point x="840" y="1024" type="curve" smooth="yes"/>
      <point x="733" y="1024"/>
      <point x="610" y="973"/>
      <point x="510" y="905" type="curve"/>
      <point x="535" y="1024" type="line"/>
      <point x="393" y="1024" type="line"/>
      <point x="57" y="956" type="line"/>
      <point x="57" y="887" type="line"/>
      <point x="229" y="870" type="line"/>
      <point x="49" y="0" type="line"/>
      <point x="322" y="0" type="line"/>
      <point x="467" y="694" type="line"/>
      <point x="553" y="782"/>
      <point x="662" y="862"/>
      <point x="725" y="862" type="curve" smooth="yes"/>
      <point x="768" y="862"/>
      <point x="795" y="829"/>
      <point x="774" y="729" type="curve"/>
      <point x="674" y="225" type="line"/>
      <point x="514" y="78"/>
      <point x="475" y="27"/>
      <point x="401" y="-90" type="curve"/>
    </contour>
    <contour>
      <point x="1004" y="86" type="curve" smooth="yes"/>
      <point x="967" y="86"/>
      <point x="944" y="121"/>
      <point x="950" y="162" type="curve"/>
      <point x="950" y="162"/>
      <point x="965" y="238"/>
      <point x="969" y="258" type="curve"/>
      <point x="999" y="276"/>
      <point x="1053" y="303"/>
      <point x="1087" y="303" type="curve" smooth="yes"/>
      <point x="1124" y="303"/>
      <point x="1153" y="268"/>
      <point x="1147" y="219" type="curve" smooth="yes"/>
      <point x="1139" y="156"/>
      <point x="1081" y="86"/>
    </contour>
  </outline>
</glyph>
<glyph name="LtnSmTCurl" format="2">
  <advance width="705"/>
  <unicode hex="0236"/>
  <anchor x="262" y="-100" name="L"/>
  <anchor x="525" y="1363" name="U"/>
  <outline>
    <contour>
      <point x="805" y="856" type="line"/>
      <point x="805" y="969" type="line"/>
      <point x="520" y="969" type="line"/>
      <point x="563" y="1200" type="line"/>
      <point x="358" y="1200" type="line"/>
      <point x="254" y="989" type="line"/>
      <point x="80" y="920" type="line"/>
      <point x="80" y="836" type="line"/>
      <point x="227" y="852" type="line"/>
      <point x="186" y="647"/>
      <point x="135" y="436"/>
      <point x="109" y="227" type="curve"/>
      <point x="12" y="145"/>
      <point x="-61" y="47"/>
      <point x="-131" y="-49" type="curve"/>
      <point x="-27" y="-129" type="line"/>
      <point x="35" y="-41"/>
      <point x="84" y="16"/>
      <point x="133" y="72" type="curve"/>
      <point x="176" y="10"/>
      <point x="258" y="-25"/>
      <point x="348" y="-25" type="curve" smooth="yes"/>
      <point x="600" y="-25"/>
      <point x="731" y="104"/>
      <point x="731" y="256" type="curve" smooth="yes"/>
      <point x="731" y="362"/>
      <point x="639" y="434"/>
      <point x="537" y="434" type="curve" smooth="yes"/>
      <point x="489" y="434"/>
      <point x="453" y="428"/>
      <point x="410" y="414" type="curve"/>
      <point x="500" y="856" type="line"/>
    </contour>
    <contour>
      <point x="582" y="238" type="curve" smooth="yes"/>
      <point x="582" y="150"/>
      <point x="494" y="82"/>
      <point x="414" y="82" type="curve" smooth="yes"/>
      <point x="330" y="82"/>
      <point x="371" y="197"/>
      <point x="379" y="254" type="curve"/>
      <point x="440" y="299"/>
      <point x="451" y="317"/>
      <point x="508" y="317" type="curve" smooth="yes"/>
      <point x="561" y="317"/>
      <point x="582" y="291"/>
    </contour>
  </outline>
</glyph>
<glyph name="LtnSmDBDigraph" format="2">
  <advance width="1674"/>
  <unicode hex="0238"/>
  <anchor x="718" y="-100" name="L"/>
  <anchor x="1034" y="1540" name="U"/>
  <outline>
    <contour>
      <point x="401" y="-25" type="curve" smooth="yes"/>
      <point x="489" y="-25"/>
      <point x="586" y="18"/>
      <point x="659" y="74" type="curve"/>
      <point x="757" y="10"/>
      <point x="844" y="-25"/>
      <point x="992" y="-25" type="curve" smooth="yes"/>
      <point x="1461" y="-25"/>
      <point x="1610" y="393"/>
      <point x="1610" y="637" type="curve" smooth="yes"/>
      <point x="1610" y="809"/>
      <point x="1506" y="1024"/>
      <point x="1286" y="1024" type="curve" smooth="yes"/>
      <point x="1215" y="1024"/>
      <point x="1133" y="997"/>
      <point x="1059" y="958" type="curve"/>
      <point x="1167" y="1509" type="line"/>
      <point x="1028" y="1509" type="line"/>
      <point x="682" y="1444" type="line"/>
      <point x="682" y="1370" type="line"/>
      <point x="866" y="1354" type="line"/>
      <point x="805" y="999" type="line"/>
      <point x="778" y="1008"/>
      <point x="737" y="1024"/>
      <point x="686" y="1024" type="curve" smooth="yes"/>
      <point x="272" y="1024"/>
      <point x="66" y="659"/>
      <point x="66" y="346" type="curve" smooth="yes"/>
      <point x="66" y="170"/>
      <point x="164" y="-25"/>
    </contour>
    <contour>
      <point x="465" y="121" type="curve" smooth="yes"/>
      <point x="389" y="121"/>
      <point x="348" y="193"/>
      <point x="348" y="358" type="curve" smooth="yes"/>
      <point x="348" y="684"/>
      <point x="539" y="907"/>
      <point x="682" y="907" type="curve" smooth="yes"/>
      <point x="731" y="907"/>
      <point x="772" y="817"/>
      <point x="770" y="807" type="curve"/>
      <point x="676" y="276" type="line"/>
      <point x="606" y="197"/>
      <point x="535" y="121"/>
    </contour>
    <contour>
      <point x="1035" y="90" type="curve" smooth="yes"/>
      <point x="971" y="90"/>
      <point x="932" y="127"/>
      <point x="910" y="162" type="curve"/>
      <point x="1024" y="774" type="line"/>
      <point x="1086" y="827"/>
      <point x="1162" y="868"/>
      <point x="1219" y="868" type="curve" smooth="yes"/>
      <point x="1266" y="868"/>
      <point x="1325" y="801"/>
      <point x="1325" y="629" type="curve" smooth="yes"/>
      <point x="1325" y="375"/>
      <point x="1170" y="90"/>
    </contour>
  </outline>
</glyph>
<glyph name="LtnSmZSwashTail" format="2">
  <advance width="1006"/>
  <unicode hex="0240"/>
  <anchor x="362" y="-500" name="L"/>
  <anchor x="682" y="1100" name="U"/>
  <outline>
    <contour>
      <point x="1020" y="963" type="line"/>
      <point x="795" y="1077" type="line"/>
      <point x="739" y="948" type="line"/>
      <point x="729" y="938"/>
      <point x="715" y="936"/>
      <point x="696" y="936" type="curve" smooth="yes"/>
      <point x="670" y="936"/>
      <point x="555" y="1024"/>
      <point x="416" y="1024" type="curve" smooth="yes"/>
      <point x="225" y="1024"/>
      <point x="61" y="864"/>
      <point x="61" y="733" type="curve" smooth="yes"/>
      <point x="61" y="678"/>
      <point x="100" y="582"/>
      <point x="188" y="582" type="curve" smooth="yes"/>
      <point x="256" y="582"/>
      <point x="332" y="639"/>
      <point x="344" y="662" type="curve"/>
      <point x="223" y="791" type="line"/>
      <point x="242" y="821"/>
      <point x="326" y="850"/>
      <point x="354" y="850" type="curve" smooth="yes"/>
      <point x="401" y="850"/>
      <point x="442" y="823"/>
      <point x="514" y="784" type="curve"/>
      <point x="643" y="811" type="line"/>
      <point x="-33" y="33" type="line"/>
      <point x="174" y="-80" type="line"/>
      <point x="227" y="21" type="line"/>
      <point x="419" y="21"/>
      <point x="521" y="-469"/>
      <point x="740" y="-469" type="curve" smooth="yes"/>
      <point x="878" y="-469"/>
      <point x="943" y="-375"/>
      <point x="943" y="-304" type="curve" smooth="yes"/>
      <point x="943" y="-248"/>
      <point x="897" y="-197"/>
      <point x="859" y="-197" type="curve"/>
      <point x="712" y="-318" type="line"/>
      <point x="639" y="-124"/>
      <point x="617" y="-2"/>
      <point x="499" y="98" type="curve" smooth="yes"/>
      <point x="432" y="154"/>
      <point x="372" y="163"/>
      <point x="324" y="163" type="curve"/>
    </contour>
  </outline>
</glyph>
<glyph name="LtnCapGlottalStop" format="2">
  <advance width="1042"/>
  <unicode hex="0241"/>
  <anchor x="426" y="-35" name="L"/>
  <anchor x="725" y="1435" name="U"/>
  <outline>
    <contour>
      <point x="1067" y="1096" type="curve" smooth="yes"/>
      <point x="1067" y="1272"/>
      <point x="918" y="1407"/>
      <point x="657" y="1407" type="curve" smooth="yes"/>
      <point x="469" y="1407"/>
      <point x="196" y="1308"/>
      <point x="196" y="1137" type="curve" smooth="yes"/>
      <point x="196" y="1059"/>
      <point x="257" y="1004"/>
      <point x="319" y="1004" type="curve" smooth="yes"/>
      <point x="366" y="1004"/>
      <point x="422" y="1019"/>
      <point x="459" y="1042" type="curve"/>
      <point x="557" y="1257" type="line"/>
      <point x="598" y="1284"/>
      <point x="631" y="1286"/>
      <point x="641" y="1286" type="curve" smooth="yes"/>
      <point x="721" y="1286"/>
      <point x="770" y="1229"/>
      <point x="770" y="1128" type="curve" smooth="yes"/>
      <point x="770" y="877"/>
      <point x="600" y="743"/>
      <point x="373" y="672" type="curve"/>
      <point x="268" y="150" type="line" smooth="yes"/>
      <point x="263" y="127"/>
      <point x="254" y="117"/>
      <point x="227" y="115" type="curve" smooth="yes"/>
      <point x="88" y="104" type="line"/>
      <point x="88" y="0" type="line"/>
      <point x="705" y="0" type="line"/>
      <point x="705" y="104" type="line"/>
      <point x="590" y="115" type="line" smooth="yes"/>
      <point x="563" y="118"/>
      <point x="556" y="125"/>
      <point x="561" y="150" type="curve" smooth="yes"/>
      <point x="657" y="633" type="line"/>
      <point x="874" y="723"/>
      <point x="1067" y="829"/>
    </contour>
  </outline>
</glyph>
<glyph name="LtnSmGlottalStop" format="2">
  <advance width="868"/>
  <unicode hex="0242"/>
  <anchor x="303" y="-100" name="L"/>
  <anchor x="547" y="1100" name="U"/>
  <outline>
    <contour>
      <point x="39" y="0" type="line"/>
      <point x="598" y="0" type="line"/>
      <point x="598" y="96" type="line"/>
      <point x="485" y="102" type="line"/>
      <point x="469" y="102"/>
      <point x="464" y="111"/>
      <point x="467" y="127" type="curve" smooth="yes"/>
      <point x="524" y="426" type="line"/>
      <point x="700" y="483"/>
      <point x="844" y="580"/>
      <point x="844" y="784" type="curve" smooth="yes"/>
      <point x="844" y="918"/>
      <point x="731" y="1024"/>
      <point x="473" y="1024" type="curve" smooth="yes"/>
      <point x="227" y="1024"/>
      <point x="121" y="897"/>
      <point x="121" y="813" type="curve" smooth="yes"/>
      <point x="121" y="729"/>
      <point x="172" y="666"/>
      <point x="242" y="666" type="curve" smooth="yes"/>
      <point x="266" y="666"/>
      <point x="292" y="677"/>
      <point x="313" y="692" type="curve"/>
      <point x="414" y="899" type="line" smooth="yes"/>
      <point x="422" y="916"/>
      <point x="469" y="920"/>
      <point x="496" y="920" type="curve" smooth="yes"/>
      <point x="545" y="920"/>
      <point x="567" y="883"/>
      <point x="567" y="811" type="curve" smooth="yes"/>
      <point x="567" y="608"/>
      <point x="459" y="502"/>
      <point x="258" y="457" type="curve"/>
      <point x="193" y="127" type="line" smooth="yes"/>
      <point x="190" y="111"/>
      <point x="180" y="102"/>
      <point x="164" y="102" type="curve"/>
      <point x="39" y="96" type="line"/>
    </contour>
  </outline>
</glyph>
<glyph name="LtnCapJStrk" format="2">
  <advance width="1044"/>
  <unicode hex="0248"/>
  <anchor x="320" y="-100" name="L"/>
  <anchor x="682" y="54" name="O"/>
  <anchor x="895" y="1500" name="U"/>
  <outline>
    <contour>
      <point x="272" y="-33" type="curve" smooth="yes"/>
      <point x="676" y="-33"/>
      <point x="766" y="203"/>
      <point x="825" y="526" type="curve" smooth="yes"/>
      <point x="850" y="657" type="line"/>
      <point x="1098" y="657" type="line"/>
      <point x="1098" y="786" type="line"/>
      <point x="874" y="786" type="line"/>
      <point x="956" y="1229" type="line" smooth="yes"/>
      <point x="961" y="1247"/>
      <point x="967" y="1260"/>
      <point x="985" y="1260" type="curve"/>
      <point x="1124" y="1272" type="line"/>
      <point x="1124" y="1374" type="line"/>
      <point x="506" y="1374" type="line"/>
      <point x="506" y="1272" type="line"/>
      <point x="627" y="1262" type="line"/>
      <point x="653" y="1260"/>
      <point x="668" y="1255"/>
      <point x="664" y="1231" type="curve" smooth="yes"/>
      <point x="582" y="786" type="line"/>
      <point x="330" y="786" type="line"/>
      <point x="330" y="657" type="line"/>
      <point x="557" y="657" type="line"/>
      <point x="528" y="510" type="line" smooth="yes"/>
      <point x="475" y="229"/>
      <point x="406" y="94"/>
      <point x="287" y="94" type="curve" smooth="yes"/>
      <point x="256" y="94"/>
      <point x="197" y="113"/>
      <point x="197" y="135" type="curve" smooth="yes"/>
      <point x="197" y="393" type="line"/>
      <point x="29" y="393" type="line"/>
      <point x="-41" y="37" type="line"/>
      <point x="-12" y="23"/>
      <point x="90" y="-33"/>
    </contour>
  </outline>
</glyph>
<glyph name="LtnCapSmQHookTail" format="2">
  <advance width="1538"/>
  <unicode hex="024A"/>
  <anchor x="718" y="-500" name="L"/>
  <anchor x="1082" y="1500" name="U"/>
  <outline>
    <contour>
      <point x="1595" y="-248" type="curve" smooth="yes"/>
      <point x="1595" y="-164"/>
      <point x="1513" y="-123"/>
      <point x="1450" y="-109" type="curve"/>
      <point x="1241" y="-330" type="line"/>
      <point x="1200" y="-309"/>
      <point x="1183" y="-252"/>
      <point x="1200" y="-164" type="curve" smooth="yes"/>
      <point x="1505" y="1407" type="line"/>
      <point x="1309" y="1407" type="line"/>
      <point x="1247" y="1331" type="line"/>
      <point x="1188" y="1374"/>
      <point x="1092" y="1407"/>
      <point x="995" y="1407" type="curve" smooth="yes"/>
      <point x="463" y="1407"/>
      <point x="96" y="1001"/>
      <point x="96" y="504" type="curve" smooth="yes"/>
      <point x="96" y="100"/>
      <point x="381" y="-33"/>
      <point x="694" y="-33" type="curve" smooth="yes"/>
      <point x="799" y="-33"/>
      <point x="874" y="-20"/>
      <point x="938" y="6" type="curve"/>
      <point x="926" y="-53"/>
      <point x="918" y="-115"/>
      <point x="918" y="-156" type="curve" smooth="yes"/>
      <point x="918" y="-356"/>
      <point x="1038" y="-469"/>
      <point x="1257" y="-469" type="curve" smooth="yes"/>
      <point x="1415" y="-469"/>
      <point x="1595" y="-412"/>
    </contour>
    <contour>
      <point x="1155" y="1116" type="curve"/>
      <point x="975" y="199" type="line"/>
      <point x="911" y="147"/>
      <point x="852" y="102"/>
      <point x="721" y="102" type="curve" smooth="yes"/>
      <point x="555" y="102"/>
      <point x="414" y="231"/>
      <point x="414" y="522" type="curve" smooth="yes"/>
      <point x="414" y="911"/>
      <point x="657" y="1274"/>
      <point x="1032" y="1274" type="curve" smooth="yes"/>
      <point x="1069" y="1274"/>
      <point x="1162" y="1153"/>
    </contour>
  </outline>
</glyph>
<glyph name="LtnSmRBar" format="2">
  <advance width="858"/>
  <unicode hex="024D"/>
  <anchor x="151" y="-100" name="L"/>
  <anchor x="543" y="1100" name="U"/>
  <outline>
    <contour>
      <point x="934" y="879" type="curve" smooth="yes"/>
      <point x="934" y="938"/>
      <point x="885" y="1024"/>
      <point x="778" y="1024" type="curve" smooth="yes"/>
      <point x="676" y="1024"/>
      <point x="573" y="963"/>
      <point x="500" y="887" type="curve"/>
      <point x="526" y="1024" type="line"/>
      <point x="385" y="1024" type="line"/>
      <point x="45" y="956" type="line"/>
      <point x="45" y="885" type="line"/>
      <point x="217" y="866" type="line"/>
      <point x="156" y="565" type="line"/>
      <point x="2" y="565" type="line"/>
      <point x="2" y="442" type="line"/>
      <point x="129" y="442" type="line"/>
      <point x="37" y="0" type="line"/>
      <point x="309" y="0" type="line"/>
      <point x="401" y="442" type="line"/>
      <point x="618" y="442" type="line"/>
      <point x="618" y="565" type="line"/>
      <point x="428" y="565" type="line"/>
      <point x="463" y="680"/>
      <point x="565" y="788"/>
      <point x="684" y="848" type="curve"/>
      <point x="739" y="737" type="line"/>
      <point x="879" y="737"/>
      <point x="934" y="784"/>
    </contour>
  </outline>
</glyph>
<glyph name="LtnSmYStrk" format="2">
  <advance width="1112"/>
  <unicode hex="024F"/>
  <anchor x="682" y="-100" name="L"/>
  <anchor x="360" y="-404" name="O"/>
  <anchor x="681" y="1100" name="U"/>
  <outline>
    <contour>
      <point x="49" y="-469" type="curve" smooth="yes"/>
      <point x="297" y="-469"/>
      <point x="467" y="-266"/>
      <point x="604" y="-29" type="curve" smooth="yes"/>
      <point x="733" y="193"/>
      <point x="838" y="444"/>
      <point x="897" y="575" type="curve" smooth="yes"/>
      <point x="934" y="659"/>
      <point x="1032" y="813"/>
      <point x="1065" y="844" type="curve"/>
      <point x="1171" y="909" type="line"/>
      <point x="1171" y="963" type="line"/>
      <point x="977" y="1024" type="line"/>
      <point x="879" y="1024" type="line"/>
      <point x="598" y="406" type="line"/>
      <point x="565" y="565"/>
      <point x="530" y="729"/>
      <point x="502" y="823" type="curve" smooth="yes"/>
      <point x="444" y="1016"/>
      <point x="389" y="1024"/>
      <point x="297" y="1024" type="curve" smooth="yes"/>
      <point x="254" y="1024"/>
      <point x="53" y="965"/>
      <point x="6" y="948" type="curve"/>
      <point x="6" y="885" type="line"/>
      <point x="223" y="868" type="line"/>
      <point x="242" y="868"/>
      <point x="270" y="659"/>
      <point x="311" y="471" type="curve" smooth="yes"/>
      <point x="354" y="276"/>
      <point x="391" y="76"/>
      <point x="397" y="43" type="curve"/>
      <point x="283" y="-166"/>
      <point x="180" y="-279"/>
      <point x="88" y="-299" type="curve"/>
      <point x="0" y="-143" type="line"/>
      <point x="-127" y="-147"/>
      <point x="-166" y="-246"/>
      <point x="-166" y="-313" type="curve" smooth="yes"/>
      <point x="-166" y="-371"/>
      <point x="-117" y="-469"/>
    </contour>
    <contour>
      <point x="90" y="671" type="line"/>
      <point x="1151" y="671" type="line"/>
      <point x="1151" y="772" type="line"/>
      <point x="90" y="772" type="line"/>
    </contour>
  </outline>
</glyph>
<glyph name="LtnSmCCurl" format="2">
  <advance width="975"/>
  <unicode hex="0255"/>
  <anchor x="383" y="-320" name="L"/>
  <anchor x="684" y="1100" name="U"/>
  <outline>
    <contour>
      <point x="920" y="860" type="curve" smooth="yes"/>
      <point x="920" y="952"/>
      <point x="856" y="1024"/>
      <point x="668" y="1024" type="curve" smooth="yes"/>
      <point x="305" y="1024"/>
      <point x="66" y="719"/>
      <point x="66" y="362" type="curve" smooth="yes"/>
      <point x="66" y="184"/>
      <point x="129" y="68"/>
      <point x="248" y="12" type="curve"/>
      <point x="217" y="-74"/>
      <point x="188" y="-174"/>
      <point x="170" y="-268" type="curve"/>
      <point x="337" y="-268" type="line"/>
      <point x="351" y="-185"/>
      <point x="374" y="-98"/>
      <point x="396" y="-22" type="curve"/>
      <point x="423" y="-25"/>
      <point x="451" y="-26"/>
      <point x="473" y="-26" type="curve" smooth="yes"/>
      <point x="686" y="-26"/>
      <point x="868" y="100"/>
      <point x="868" y="281" type="curve" smooth="yes"/>
      <point x="868" y="377"/>
      <point x="788" y="446"/>
      <point x="676" y="446" type="curve" smooth="yes"/>
      <point x="537" y="446"/>
      <point x="432" y="358"/>
      <point x="365" y="246" type="curve"/>
      <point x="350" y="289"/>
      <point x="344" y="336"/>
      <point x="344" y="385" type="curve" smooth="yes"/>
      <point x="344" y="467"/>
      <point x="389" y="840"/>
      <point x="614" y="872" type="curve"/>
      <point x="727" y="713" type="line"/>
      <point x="903" y="731"/>
      <point x="920" y="809"/>
    </contour>
    <contour>
      <point x="694" y="272" type="curve" smooth="yes"/>
      <point x="694" y="190"/>
      <point x="594" y="121"/>
      <point x="518" y="121" type="curve" smooth="yes"/>
      <point x="492" y="121"/>
      <point x="472" y="123"/>
      <point x="454" y="129" type="curve"/>
      <point x="491" y="224"/>
      <point x="555" y="326"/>
      <point x="637" y="326" type="curve" smooth="yes"/>
      <point x="684" y="326"/>
      <point x="694" y="293"/>
    </contour>
  </outline>
</glyph>
<glyph name="LtnSmDHook" format="2">
  <advance width="1196"/>
  <unicode hex="0257"/>
  <anchor x="478" y="-100" name="L"/>
  <anchor x="794" y="1540" name="U"/>
  <outline>
    <contour>
      <point x="399" y="-25" type="curve" smooth="yes"/>
      <point x="489" y="-25"/>
      <point x="584" y="18"/>
      <point x="659" y="74" type="curve"/>
      <point x="682" y="12"/>
      <point x="741" y="-25"/>
      <point x="844" y="-25" type="curve" smooth="yes"/>
      <point x="950" y="-25"/>
      <point x="1083" y="20"/>
      <point x="1155" y="61" type="curve"/>
      <point x="1155" y="162" type="line"/>
      <point x="1110" y="139"/>
      <point x="1022" y="100"/>
      <point x="965" y="100" type="curve" smooth="yes"/>
      <point x="948" y="100"/>
      <point x="920" y="117"/>
      <point x="932" y="184" type="curve" smooth="yes"/>
      <point x="1094" y="1099" type="line" smooth="yes"/>
      <point x="1122" y="1257"/>
      <point x="1162" y="1319"/>
      <point x="1235" y="1354" type="curve"/>
      <point x="1381" y="1214" type="line"/>
      <point x="1438" y="1225"/>
      <point x="1506" y="1268"/>
      <point x="1506" y="1366" type="curve" smooth="yes"/>
      <point x="1506" y="1430"/>
      <point x="1453" y="1509"/>
      <point x="1309" y="1509" type="curve" smooth="yes"/>
      <point x="1077" y="1509"/>
      <point x="867" y="1388"/>
      <point x="824" y="1126" type="curve" smooth="yes"/>
      <point x="803" y="999" type="line"/>
      <point x="776" y="1008"/>
      <point x="737" y="1024"/>
      <point x="686" y="1024" type="curve" smooth="yes"/>
      <point x="270" y="1024"/>
      <point x="66" y="659"/>
      <point x="66" y="346" type="curve" smooth="yes"/>
      <point x="66" y="170"/>
      <point x="162" y="-25"/>
    </contour>
    <contour>
      <point x="465" y="121" type="curve" smooth="yes"/>
      <point x="387" y="121"/>
      <point x="346" y="193"/>
      <point x="346" y="358" type="curve" smooth="yes"/>
      <point x="346" y="684"/>
      <point x="537" y="907"/>
      <point x="682" y="907" type="curve" smooth="yes"/>
      <point x="729" y="907"/>
      <point x="772" y="817"/>
      <point x="768" y="807" type="curve"/>
      <point x="676" y="276" type="line"/>
      <point x="606" y="197"/>
      <point x="535" y="121"/>
    </contour>
  </outline>
</glyph>
<glyph name="LtnSmRevE" format="2">
  <advance width="1104"/>
  <unicode hex="0258"/>
  <anchor x="429" y="-100" name="L"/>
  <anchor x="1104" y="1000" name="R"/>
  <anchor x="673" y="1100" name="U"/>
  <outline>
    <contour>
      <point x="1040" y="612" type="curve" smooth="yes"/>
      <point x="1040" y="827"/>
      <point x="915" y="1024"/>
      <point x="629" y="1024" type="curve" smooth="yes"/>
      <point x="313" y="1024"/>
      <point x="102" y="868"/>
      <point x="102" y="612" type="curve" smooth="yes"/>
      <point x="102" y="496"/>
      <point x="215" y="422"/>
      <point x="375" y="426" type="curve" smooth="yes"/>
      <point x="528" y="428"/>
      <point x="602" y="451"/>
      <point x="731" y="520" type="curve"/>
      <point x="696" y="336"/>
      <point x="625" y="104"/>
      <point x="424" y="104" type="curve" smooth="yes"/>
      <point x="330" y="104"/>
      <point x="193" y="160"/>
      <point x="51" y="338" type="curve"/>
      <point x="10" y="147" type="line"/>
      <point x="90" y="33"/>
      <point x="217" y="-25"/>
      <point x="395" y="-25" type="curve" smooth="yes"/>
      <point x="791" y="-25"/>
      <point x="1040" y="295"/>
    </contour>
    <contour>
      <point x="745" y="676" type="curve"/>
      <point x="598" y="592"/>
      <point x="522" y="569"/>
      <point x="459" y="569" type="curve" smooth="yes"/>
      <point x="432" y="569"/>
      <point x="383" y="588"/>
      <point x="383" y="653" type="curve" smooth="yes"/>
      <point x="383" y="788"/>
      <point x="467" y="913"/>
      <point x="602" y="913" type="curve" smooth="yes"/>
      <point x="729" y="913"/>
      <point x="737" y="766"/>
    </contour>
  </outline>
</glyph>
<glyph name="LtnSmSchwa" format="2">
  <advance width="983"/>
  <unicode hex="0259"/>
  <anchor x="336" y="0" name="H"/>
  <anchor x="316" y="-100" name="L"/>
  <anchor x="415" y="0" name="O"/>
  <anchor x="556" y="1100" name="U"/>
  <outline>
    <contour>
      <point x="918" y="641" type="curve" smooth="yes"/>
      <point x="918" y="946"/>
      <point x="725" y="1024"/>
      <point x="547" y="1024" type="curve" smooth="yes"/>
      <point x="348" y="1024"/>
      <point x="164" y="893"/>
      <point x="84" y="813" type="curve"/>
      <point x="84" y="621" type="line"/>
      <point x="309" y="815"/>
      <point x="391" y="881"/>
      <point x="479" y="881" type="curve" smooth="yes"/>
      <point x="592" y="881"/>
      <point x="633" y="776"/>
      <point x="633" y="635" type="curve" smooth="yes"/>
      <point x="633" y="612"/>
      <point x="629" y="575"/>
      <point x="627" y="551" type="curve"/>
      <point x="354" y="526"/>
      <point x="37" y="406"/>
      <point x="37" y="190" type="curve" smooth="yes"/>
      <point x="37" y="127"/>
      <point x="127" y="-25"/>
      <point x="328" y="-25" type="curve" smooth="yes"/>
      <point x="678" y="-25"/>
      <point x="918" y="330"/>
    </contour>
    <contour>
      <point x="612" y="444" type="curve"/>
      <point x="575" y="295"/>
      <point x="502" y="88"/>
      <point x="375" y="88" type="curve" smooth="yes"/>
      <point x="313" y="88"/>
      <point x="303" y="141"/>
      <point x="303" y="188" type="curve" smooth="yes"/>
      <point x="303" y="313"/>
      <point x="471" y="412"/>
    </contour>
  </outline>
</glyph>
<glyph name="LtnSmRevOpnE" format="2">
  <advance width="942"/>
  <unicode hex="025C"/>
  <anchor x="330" y="-100" name="L"/>
  <anchor x="574" y="1100" name="U"/>
  <outline>
    <contour>
      <point x="877" y="791" type="curve" smooth="yes"/>
      <point x="877" y="911"/>
      <point x="762" y="1024"/>
      <point x="528" y="1024" type="curve" smooth="yes"/>
      <point x="342" y="1024"/>
      <point x="121" y="963"/>
      <point x="121" y="786" type="curve" smooth="yes"/>
      <point x="121" y="725"/>
      <point x="178" y="682"/>
      <point x="225" y="682" type="curve" smooth="yes"/>
      <point x="307" y="682"/>
      <point x="348" y="723"/>
      <point x="358" y="733" type="curve"/>
      <point x="377" y="879" type="line"/>
      <point x="383" y="887"/>
      <point x="446" y="924"/>
      <point x="485" y="924" type="curve" smooth="yes"/>
      <point x="559" y="924"/>
      <point x="596" y="872"/>
      <point x="596" y="788" type="curve" smooth="yes"/>
      <point x="596" y="606"/>
      <point x="436" y="545"/>
      <point x="315" y="541" type="curve"/>
      <point x="315" y="440" type="line"/>
      <point x="408" y="440" type="line" smooth="yes"/>
      <point x="440" y="440"/>
      <point x="535" y="438"/>
      <point x="535" y="328" type="curve" smooth="yes"/>
      <point x="535" y="158"/>
      <point x="406" y="90"/>
      <point x="324" y="90" type="curve" smooth="yes"/>
      <point x="254" y="90"/>
      <point x="162" y="129"/>
      <point x="0" y="309" type="curve"/>
      <point x="0" y="102" type="line"/>
      <point x="80" y="16"/>
      <point x="178" y="-25"/>
      <point x="301" y="-25" type="curve" smooth="yes"/>
      <point x="573" y="-25"/>
      <point x="819" y="70"/>
      <point x="819" y="319" type="curve" smooth="yes"/>
      <point x="819" y="416"/>
      <point x="760" y="479"/>
      <point x="625" y="508" type="curve"/>
      <point x="766" y="565"/>
      <point x="877" y="670"/>
    </contour>
  </outline>
</glyph>
<glyph name="LtnSmRevOpnEHook" format="2">
  <advance width="1192"/>
  <unicode hex="025D"/>
  <anchor x="331" y="-100" name="L"/>
  <anchor x="575" y="1100" name="U"/>
  <outline>
    <contour>
      <point x="301" y="-25" type="curve" smooth="yes"/>
      <point x="573" y="-25"/>
      <point x="819" y="70"/>
      <point x="819" y="319" type="curve" smooth="yes"/>
      <point x="819" y="416"/>
      <point x="760" y="479"/>
      <point x="625" y="508" type="curve"/>
      <point x="760" y="563"/>
      <point x="870" y="664"/>
      <point x="877" y="780" type="curve"/>
      <point x="971" y="834" type="line"/>
      <point x="965" y="807"/>
      <point x="946" y="766"/>
      <point x="946" y="733" type="curve" smooth="yes"/>
      <point x="946" y="659"/>
      <point x="1004" y="592"/>
      <point x="1104" y="592" type="curve" smooth="yes"/>
      <point x="1251" y="592"/>
      <point x="1311" y="721"/>
      <point x="1343" y="805" type="curve"/>
      <point x="1249" y="872" type="line"/>
      <point x="1229" y="827"/>
      <point x="1171" y="694"/>
      <point x="1108" y="694" type="curve" smooth="yes"/>
      <point x="1051" y="694"/>
      <point x="1055" y="752"/>
      <point x="1077" y="807" type="curve" smooth="yes"/>
      <point x="1143" y="967" type="line"/>
      <point x="1063" y="1024" type="line"/>
      <point x="844" y="899" type="line"/>
      <point x="793" y="971"/>
      <point x="690" y="1024"/>
      <point x="528" y="1024" type="curve" smooth="yes"/>
      <point x="342" y="1024"/>
      <point x="121" y="963"/>
      <point x="121" y="786" type="curve" smooth="yes"/>
      <point x="121" y="725"/>
      <point x="178" y="682"/>
      <point x="225" y="682" type="curve" smooth="yes"/>
      <point x="307" y="682"/>
      <point x="348" y="723"/>
      <point x="358" y="733" type="curve"/>
      <point x="377" y="879" type="line"/>
      <point x="383" y="887"/>
      <point x="446" y="924"/>
      <point x="485" y="924" type="curve" smooth="yes"/>
      <point x="559" y="924"/>
      <point x="596" y="872"/>
      <point x="596" y="788" type="curve" smooth="yes"/>
      <point x="596" y="606"/>
      <point x="436" y="545"/>
      <point x="315" y="541" type="curve"/>
      <point x="315" y="440" type="line"/>
      <point x="408" y="440" type="line" smooth="yes"/>
      <point x="440" y="440"/>
      <point x="535" y="438"/>
      <point x="535" y="328" type="curve" smooth="yes"/>
      <point x="535" y="158"/>
      <point x="403" y="90"/>
      <point x="324" y="90" type="curve" smooth="yes"/>
      <point x="254" y="90"/>
      <point x="162" y="129"/>
      <point x="0" y="309" type="curve"/>
      <point x="0" y="102" type="line"/>
      <point x="80" y="16"/>
      <point x="178" y="-25"/>
    </contour>
  </outline>
</glyph>
<glyph name="LtnSmCapG" format="2">
  <advance width="1196"/>
  <unicode hex="0262"/>
  <anchor x="519" y="-100" name="L"/>
  <anchor x="1196" y="1000" name="R"/>
  <anchor x="763" y="1100" name="U"/>
  <outline>
    <contour>
      <point x="1184" y="403" type="line"/>
      <point x="1184" y="496" type="line"/>
      <point x="672" y="496" type="line"/>
      <point x="672" y="403" type="line"/>
      <point x="706" y="401"/>
      <point x="740" y="399"/>
      <point x="774" y="397" type="curve" smooth="yes"/>
      <point x="791" y="396"/>
      <point x="796" y="379"/>
      <point x="793" y="367" type="curve" smooth="yes"/>
      <point x="733" y="104" type="line"/>
      <point x="703" y="97"/>
      <point x="649" y="86"/>
      <point x="610" y="86" type="curve" smooth="yes"/>
      <point x="537" y="86"/>
      <point x="336" y="150"/>
      <point x="336" y="377" type="curve" smooth="yes"/>
      <point x="336" y="707"/>
      <point x="602" y="911"/>
      <point x="799" y="911" type="curve" smooth="yes"/>
      <point x="848" y="911"/>
      <point x="907" y="894"/>
      <point x="928" y="887" type="curve" smooth="yes"/>
      <point x="950" y="880"/>
      <point x="963" y="856"/>
      <point x="962" y="848" type="curve" smooth="yes"/>
      <point x="950" y="686" type="line"/>
      <point x="1108" y="686" type="line"/>
      <point x="1169" y="967" type="line"/>
      <point x="1028" y="1006"/>
      <point x="944" y="1024"/>
      <point x="817" y="1024" type="curve" smooth="yes"/>
      <point x="420" y="1024"/>
      <point x="68" y="766"/>
      <point x="68" y="397" type="curve" smooth="yes"/>
      <point x="68" y="242"/>
      <point x="154" y="-25"/>
      <point x="578" y="-25" type="curve" smooth="yes"/>
      <point x="711" y="-25"/>
      <point x="845" y="7"/>
      <point x="973" y="39" type="curve"/>
      <point x="1047" y="362" type="line" smooth="yes"/>
      <point x="1052" y="383"/>
      <point x="1065" y="394"/>
      <point x="1073" y="395" type="curve" smooth="yes"/>
    </contour>
  </outline>
</glyph>
<glyph name="LtnSmTurnedH" format="2">
  <advance width="1157"/>
  <unicode hex="0265"/>
  <anchor x="292" y="-100" name="L"/>
  <anchor x="664" y="1100" name="U"/>
  <outline>
    <contour>
      <point x="1102" y="999" type="line"/>
      <point x="827" y="999" type="line"/>
      <point x="678" y="283" type="line"/>
      <point x="594" y="197"/>
      <point x="498" y="129"/>
      <point x="434" y="129" type="curve" smooth="yes"/>
      <point x="393" y="129"/>
      <point x="345" y="186"/>
      <point x="365" y="285" type="curve" smooth="yes"/>
      <point x="487" y="881" type="line" smooth="yes"/>
      <point x="509" y="987"/>
      <point x="393" y="1024"/>
      <point x="299" y="1024" type="curve" smooth="yes"/>
      <point x="188" y="1024"/>
      <point x="86" y="991"/>
      <point x="-18" y="942" type="curve"/>
      <point x="-14" y="840" type="line"/>
      <point x="45" y="874"/>
      <point x="96" y="897"/>
      <point x="156" y="897" type="curve" smooth="yes"/>
      <point x="176" y="897"/>
      <point x="215" y="874"/>
      <point x="201" y="807" type="curve" smooth="yes"/>
      <point x="86" y="262" type="line" smooth="yes"/>
      <point x="50" y="90"/>
      <point x="117" y="-25"/>
      <point x="322" y="-25" type="curve" smooth="yes"/>
      <point x="442" y="-25"/>
      <point x="551" y="18"/>
      <point x="633" y="70" type="curve"/>
      <point x="522" y="-469" type="line"/>
      <point x="662" y="-469" type="line"/>
      <point x="1008" y="-403" type="line"/>
      <point x="1008" y="-332" type="line"/>
      <point x="827" y="-313" type="line"/>
    </contour>
  </outline>
</glyph>
<glyph name="LtnSmLBelt" format="2">
  <advance width="702"/>
  <unicode hex="026C"/>
  <anchor x="271" y="-100" name="L"/>
  <anchor x="587" y="1540" name="U"/>
  <outline>
    <contour>
      <point x="756" y="686" type="curve"/>
      <point x="670" y="774" type="line"/>
      <point x="604" y="705"/>
      <point x="556" y="687"/>
      <point x="526" y="678" type="curve"/>
      <point x="688" y="1509" type="line"/>
      <point x="551" y="1509" type="line"/>
      <point x="207" y="1444" type="line"/>
      <point x="207" y="1370" type="line"/>
      <point x="385" y="1354" type="line"/>
      <point x="317" y="999" type="line"/>
      <point x="299" y="1004"/>
      <point x="276" y="1008"/>
      <point x="262" y="1008" type="curve" smooth="yes"/>
      <point x="68" y="1008"/>
      <point x="-20" y="891"/>
      <point x="-20" y="758" type="curve" smooth="yes"/>
      <point x="-20" y="647"/>
      <point x="80" y="569"/>
      <point x="229" y="545" type="curve"/>
      <point x="164" y="209" type="line" smooth="yes"/>
      <point x="159" y="182"/>
      <point x="156" y="158"/>
      <point x="156" y="135" type="curve" smooth="yes"/>
      <point x="156" y="39"/>
      <point x="236" y="-25"/>
      <point x="371" y="-25" type="curve" smooth="yes"/>
      <point x="477" y="-25"/>
      <point x="571" y="0"/>
      <point x="696" y="59" type="curve"/>
      <point x="696" y="172" type="line"/>
      <point x="604" y="129"/>
      <point x="518" y="109"/>
      <point x="492" y="109" type="curve" smooth="yes"/>
      <point x="449" y="109"/>
      <point x="433" y="141"/>
      <point x="433" y="181" type="curve" smooth="yes"/>
      <point x="433" y="191"/>
      <point x="434" y="202"/>
      <point x="436" y="213" type="curve" smooth="yes"/>
      <point x="502" y="545" type="line"/>
      <point x="594" y="565"/>
      <point x="676" y="614"/>
    </contour>
    <contour>
      <point x="295" y="881" type="curve"/>
      <point x="252" y="664" type="line"/>
      <point x="186" y="682"/>
      <point x="127" y="721"/>
      <point x="127" y="778" type="curve" smooth="yes"/>
      <point x="127" y="846"/>
      <point x="178" y="895"/>
      <point x="258" y="895" type="curve" smooth="yes"/>
      <point x="274" y="895"/>
      <point x="285" y="889"/>
    </contour>
  </outline>
</glyph>
<glyph name="LtnSmLezh" format="2">
  <advance width="1313"/>
  <unicode hex="026E"/>
  <anchor x="416" y="-500" name="L"/>
  <anchor x="890" y="1580" name="U"/>
  <outline>
    <contour>
      <point x="1372" y="915" type="line"/>
      <point x="1188" y="1057" type="line"/>
      <point x="1096" y="930" type="line"/>
      <point x="1090" y="928"/>
      <point x="1057" y="920"/>
      <point x="1049" y="920" type="curve" smooth="yes"/>
      <point x="950" y="920"/>
      <point x="807" y="1024"/>
      <point x="651" y="1024" type="curve" smooth="yes"/>
      <point x="604" y="1024"/>
      <point x="557" y="1014"/>
      <point x="514" y="997" type="curve"/>
      <point x="612" y="1509" type="line"/>
      <point x="477" y="1509" type="line"/>
      <point x="131" y="1444" type="line"/>
      <point x="131" y="1370" type="line"/>
      <point x="311" y="1354" type="line"/>
      <point x="88" y="205" type="line" smooth="yes"/>
      <point x="83" y="178"/>
      <point x="80" y="154"/>
      <point x="80" y="131" type="curve" smooth="yes"/>
      <point x="80" y="37"/>
      <point x="160" y="-25"/>
      <point x="295" y="-25" type="curve" smooth="yes"/>
      <point x="401" y="-25"/>
      <point x="524" y="8"/>
      <point x="623" y="59" type="curve"/>
      <point x="623" y="170" type="line"/>
      <point x="526" y="127"/>
      <point x="446" y="109"/>
      <point x="414" y="109" type="curve" smooth="yes"/>
      <point x="373" y="109"/>
      <point x="357" y="142"/>
      <point x="357" y="180" type="curve" smooth="yes"/>
      <point x="357" y="189"/>
      <point x="358" y="199"/>
      <point x="360" y="209" type="curve" smooth="yes"/>
      <point x="479" y="815" type="line"/>
      <point x="504" y="842"/>
      <point x="565" y="852"/>
      <point x="592" y="852" type="curve" smooth="yes"/>
      <point x="649" y="852"/>
      <point x="713" y="805"/>
      <point x="819" y="805" type="curve" smooth="yes"/>
      <point x="862" y="805"/>
      <point x="938" y="799"/>
      <point x="993" y="799" type="curve"/>
      <point x="467" y="336" type="line"/>
      <point x="606" y="217" type="line"/>
      <point x="664" y="295" type="line"/>
      <point x="780" y="272"/>
      <point x="893" y="154"/>
      <point x="893" y="27" type="curve" smooth="yes"/>
      <point x="893" y="-168"/>
      <point x="713" y="-344"/>
      <point x="569" y="-344" type="curve" smooth="yes"/>
      <point x="513" y="-344"/>
      <point x="485" y="-338"/>
      <point x="459" y="-301" type="curve"/>
      <point x="410" y="-109" type="line"/>
      <point x="373" y="-94"/>
      <point x="326" y="-78"/>
      <point x="293" y="-78" type="curve" smooth="yes"/>
      <point x="209" y="-78"/>
      <point x="129" y="-147"/>
      <point x="129" y="-236" type="curve" smooth="yes"/>
      <point x="129" y="-387"/>
      <point x="307" y="-469"/>
      <point x="547" y="-469" type="curve" smooth="yes"/>
      <point x="870" y="-469"/>
      <point x="1174" y="-270"/>
      <point x="1174" y="27" type="curve" smooth="yes"/>
      <point x="1174" y="240"/>
      <point x="1032" y="371"/>
      <point x="803" y="397" type="curve"/>
    </contour>
  </outline>
</glyph>
<glyph name="LtnSmCapN" format="2">
  <advance width="1243"/>
  <unicode hex="0274"/>
  <anchor x="491" y="-100" name="L"/>
  <anchor x="735" y="1100" name="U"/>
  <outline>
    <contour>
      <point x="-61" y="0" type="line"/>
      <point x="397" y="0" type="line"/>
      <point x="397" y="92" type="line"/>
      <point x="301" y="98" type="line"/>
      <point x="289" y="100"/>
      <point x="274" y="119"/>
      <point x="276" y="129" type="curve" smooth="yes"/>
      <point x="397" y="676" type="line"/>
      <point x="760" y="0" type="line"/>
      <point x="956" y="0" type="line"/>
      <point x="1153" y="874" type="line" smooth="yes"/>
      <point x="1155" y="883"/>
      <point x="1167" y="899"/>
      <point x="1180" y="899" type="curve" smooth="yes"/>
      <point x="1288" y="907" type="line"/>
      <point x="1288" y="999" type="line"/>
      <point x="831" y="999" type="line"/>
      <point x="831" y="907" type="line"/>
      <point x="928" y="901" type="line"/>
      <point x="940" y="899"/>
      <point x="954" y="887"/>
      <point x="952" y="874" type="curve" smooth="yes"/>
      <point x="838" y="362" type="line"/>
      <point x="524" y="946" type="line"/>
      <point x="524" y="999" type="line"/>
      <point x="121" y="999" type="line"/>
      <point x="121" y="907" type="line"/>
      <point x="219" y="901" type="line"/>
      <point x="231" y="899"/>
      <point x="244" y="887"/>
      <point x="242" y="874" type="curve" smooth="yes"/>
      <point x="76" y="129" type="line" smooth="yes"/>
      <point x="74" y="119"/>
      <point x="63" y="100"/>
      <point x="43" y="98" type="curve"/>
      <point x="-61" y="92" type="line"/>
    </contour>
  </outline>
</glyph>
<glyph name="LtnSmCapOe" format="2">
  <advance width="1710"/>
  <unicode hex="0276"/>
  <anchor x="745" y="-100" name="L"/>
  <anchor x="1710" y="1000" name="R"/>
  <anchor x="989" y="1100" name="U"/>
  <outline>
    <contour>
      <point x="1718" y="999" type="line"/>
      <point x="1008" y="999" type="line"/>
      <point x="993" y="934" type="line"/>
      <point x="920" y="987"/>
      <point x="831" y="1024"/>
      <point x="696" y="1024" type="curve" smooth="yes"/>
      <point x="276" y="1024"/>
      <point x="63" y="696"/>
      <point x="63" y="391" type="curve" smooth="yes"/>
      <point x="63" y="141"/>
      <point x="238" y="-25"/>
      <point x="537" y="-25" type="curve" smooth="yes"/>
      <point x="639" y="-25"/>
      <point x="690" y="-14"/>
      <point x="829" y="49" type="curve"/>
      <point x="817" y="0" type="line"/>
      <point x="1554" y="0" type="line"/>
      <point x="1616" y="274" type="line"/>
      <point x="1477" y="274" type="line"/>
      <point x="1427" y="143" type="line" smooth="yes"/>
      <point x="1419" y="119"/>
      <point x="1401" y="111"/>
      <point x="1378" y="111" type="curve" smooth="yes"/>
      <point x="1047" y="111" type="line"/>
      <point x="1122" y="457" type="line"/>
      <point x="1294" y="457" type="line" smooth="yes"/>
      <point x="1325" y="457"/>
      <point x="1333" y="442"/>
      <point x="1329" y="420" type="curve" smooth="yes"/>
      <point x="1313" y="328" type="line"/>
      <point x="1446" y="328" type="line"/>
      <point x="1528" y="692" type="line"/>
      <point x="1395" y="692" type="line"/>
      <point x="1366" y="600" type="line" smooth="yes"/>
      <point x="1358" y="578"/>
      <point x="1341" y="571"/>
      <point x="1317" y="571" type="curve" smooth="yes"/>
      <point x="1147" y="571" type="line"/>
      <point x="1217" y="879" type="line"/>
      <point x="1479" y="879" type="line" smooth="yes"/>
      <point x="1509" y="879"/>
      <point x="1520" y="856"/>
      <point x="1520" y="842" type="curve" smooth="yes"/>
      <point x="1520" y="737" type="line"/>
      <point x="1659" y="737" type="line"/>
    </contour>
    <contour>
      <point x="877" y="616" type="curve" smooth="yes"/>
      <point x="877" y="358"/>
      <point x="713" y="88"/>
      <point x="543" y="88" type="curve" smooth="yes"/>
      <point x="457" y="88"/>
      <point x="344" y="180"/>
      <point x="344" y="381" type="curve" smooth="yes"/>
      <point x="344" y="662"/>
      <point x="508" y="913"/>
      <point x="682" y="913" type="curve" smooth="yes"/>
      <point x="750" y="913"/>
      <point x="877" y="838"/>
    </contour>
  </outline>
</glyph>
<glyph name="LtnSmClosedOmega" format="2">
  <advance width="1448"/>
  <unicode hex="0277"/>
  <anchor x="604" y="-100" name="L"/>
  <anchor x="1448" y="1000" name="R"/>
  <anchor x="848" y="1100" name="U"/>
  <outline>
    <contour>
      <point x="1376" y="543" type="curve" smooth="yes"/>
      <point x="1376" y="836"/>
      <point x="1178" y="1024"/>
      <point x="831" y="1024" type="curve" smooth="yes"/>
      <point x="377" y="1024"/>
      <point x="43" y="688"/>
      <point x="43" y="293" type="curve" smooth="yes"/>
      <point x="43" y="135"/>
      <point x="141" y="-25"/>
      <point x="326" y="-25" type="curve" smooth="yes"/>
      <point x="469" y="-25"/>
      <point x="578" y="27"/>
      <point x="647" y="106" type="curve"/>
      <point x="686" y="25"/>
      <point x="780" y="-25"/>
      <point x="920" y="-25" type="curve" smooth="yes"/>
      <point x="1241" y="-25"/>
      <point x="1376" y="330"/>
    </contour>
    <contour>
      <point x="1090" y="535" type="curve" smooth="yes"/>
      <point x="1090" y="412"/>
      <point x="1055" y="115"/>
      <point x="891" y="115" type="curve" smooth="yes"/>
      <point x="799" y="115"/>
      <point x="754" y="170"/>
      <point x="754" y="256" type="curve" smooth="yes"/>
      <point x="754" y="410"/>
      <point x="881" y="479"/>
      <point x="881" y="606" type="curve" smooth="yes"/>
      <point x="881" y="662"/>
      <point x="848" y="735"/>
      <point x="784" y="735" type="curve" smooth="yes"/>
      <point x="682" y="735"/>
      <point x="614" y="621"/>
      <point x="614" y="537" type="curve" smooth="yes"/>
      <point x="614" y="494"/>
      <point x="629" y="432"/>
      <point x="629" y="389" type="curve" smooth="yes"/>
      <point x="629" y="281"/>
      <point x="551" y="115"/>
      <point x="418" y="115" type="curve" smooth="yes"/>
      <point x="354" y="115"/>
      <point x="319" y="193"/>
      <point x="319" y="289" type="curve" smooth="yes"/>
      <point x="319" y="571"/>
      <point x="559" y="911"/>
      <point x="811" y="911" type="curve" smooth="yes"/>
      <point x="981" y="911"/>
      <point x="1090" y="739"/>
    </contour>
  </outline>
</glyph>
<glyph name="LtnSmRLngLeg" format="2">
  <advance width="858"/>
  <unicode hex="027C"/>
  <anchor x="55" y="-500" name="L"/>
  <anchor x="530" y="1100" name="U"/>
  <outline>
    <contour>
      <point x="934" y="879" type="curve" smooth="yes"/>
      <point x="934" y="938"/>
      <point x="885" y="1024"/>
      <point x="778" y="1024" type="curve" smooth="yes"/>
      <point x="676" y="1024"/>
      <point x="573" y="963"/>
      <point x="500" y="887" type="curve"/>
      <point x="526" y="1024" type="line"/>
      <point x="385" y="1024" type="line"/>
      <point x="45" y="956" type="line"/>
      <point x="45" y="885" type="line"/>
      <point x="217" y="866" type="line"/>
      <point x="-57" y="-446" type="line"/>
      <point x="215" y="-446" type="line"/>
      <point x="424" y="541" type="line"/>
      <point x="449" y="664"/>
      <point x="555" y="784"/>
      <point x="684" y="848" type="curve"/>
      <point x="739" y="737" type="line"/>
      <point x="879" y="737"/>
      <point x="934" y="784"/>
    </contour>
  </outline>
</glyph>
<glyph name="LtnSmRHookTail" format="2">
  <advance width="858"/>
  <unicode hex="027D"/>
  <anchor x="210" y="-500" name="L"/>
  <anchor x="530" y="1100" name="U"/>
  <outline>
    <contour>
      <point x="934" y="879" type="curve" smooth="yes"/>
      <point x="934" y="938"/>
      <point x="885" y="1024"/>
      <point x="778" y="1024" type="curve" smooth="yes"/>
      <point x="676" y="1024"/>
      <point x="573" y="963"/>
      <point x="500" y="887" type="curve"/>
      <point x="526" y="1024" type="line"/>
      <point x="385" y="1024" type="line"/>
      <point x="45" y="956" type="line"/>
      <point x="45" y="885" type="line"/>
      <point x="217" y="866" type="line"/>
      <point x="37" y="-8" type="line" smooth="yes"/>
      <point x="24" y="-70"/>
      <point x="14" y="-150"/>
      <point x="14" y="-182" type="curve" smooth="yes"/>
      <point x="14" y="-354"/>
      <point x="123" y="-469"/>
      <point x="383" y="-469" type="curve" smooth="yes"/>
      <point x="508" y="-469"/>
      <point x="608" y="-403"/>
      <point x="608" y="-297" type="curve" smooth="yes"/>
      <point x="608" y="-221"/>
      <point x="532" y="-203"/>
      <point x="475" y="-193" type="curve"/>
      <point x="346" y="-324" type="line"/>
      <point x="313" y="-319"/>
      <point x="268" y="-289"/>
      <point x="268" y="-252" type="curve" smooth="yes"/>
      <point x="268" y="-215"/>
      <point x="292" y="-97"/>
      <point x="309" y="-14" type="curve" smooth="yes"/>
      <point x="424" y="541" type="line" smooth="yes"/>
      <point x="449" y="664"/>
      <point x="555" y="784"/>
      <point x="684" y="848" type="curve"/>
      <point x="739" y="737" type="line"/>
      <point x="879" y="737"/>
      <point x="934" y="784"/>
    </contour>
  </outline>
</glyph>
<glyph name="LtnSmRevRFishhook" format="2">
  <advance width="791"/>
  <unicode hex="027F"/>
  <anchor x="290" y="-500" name="L"/>
  <anchor x="433" y="1100" name="U"/>
  <outline>
    <contour>
      <point x="164" y="-446" type="line"/>
      <point x="437" y="-446" type="line"/>
      <point x="619" y="453" type="line" smooth="yes"/>
      <point x="633" y="522"/>
      <point x="644" y="594"/>
      <point x="644" y="664" type="curve" smooth="yes"/>
      <point x="644" y="850"/>
      <point x="582" y="1024"/>
      <point x="312" y="1024" type="curve" smooth="yes"/>
      <point x="181" y="1024"/>
      <point x="68" y="958"/>
      <point x="68" y="856" type="curve" smooth="yes"/>
      <point x="68" y="811"/>
      <point x="91" y="758"/>
      <point x="183" y="725" type="curve"/>
      <point x="336" y="868" type="line"/>
      <point x="388" y="868"/>
      <point x="402" y="817"/>
      <point x="402" y="791" type="curve" smooth="yes"/>
      <point x="402" y="729"/>
      <point x="390" y="668"/>
      <point x="377" y="606" type="curve" smooth="yes"/>
    </contour>
  </outline>
</glyph>
<glyph name="LtnSmSquatRevEsh" format="2">
  <advance width="686"/>
  <unicode hex="0285"/>
  <anchor x="190" y="-500" name="L"/>
  <anchor x="510" y="1100" name="U"/>
  <outline>
    <contour>
      <point x="721" y="-303" type="curve" smooth="yes"/>
      <point x="721" y="-258"/>
      <point x="698" y="-205"/>
      <point x="606" y="-172" type="curve"/>
      <point x="453" y="-315" type="line"/>
      <point x="401" y="-315"/>
      <point x="387" y="-264"/>
      <point x="387" y="-238" type="curve" smooth="yes"/>
      <point x="387" y="-174"/>
      <point x="399" y="-115"/>
      <point x="412" y="-53" type="curve" smooth="yes"/>
      <point x="514" y="453" type="line" smooth="yes"/>
      <point x="528" y="522"/>
      <point x="539" y="594"/>
      <point x="539" y="664" type="curve" smooth="yes"/>
      <point x="539" y="850"/>
      <point x="477" y="1024"/>
      <point x="207" y="1024" type="curve" smooth="yes"/>
      <point x="76" y="1024"/>
      <point x="-37" y="958"/>
      <point x="-37" y="856" type="curve" smooth="yes"/>
      <point x="-37" y="811"/>
      <point x="-14" y="758"/>
      <point x="78" y="725" type="curve"/>
      <point x="231" y="868" type="line"/>
      <point x="283" y="868"/>
      <point x="297" y="817"/>
      <point x="297" y="791" type="curve" smooth="yes"/>
      <point x="297" y="729"/>
      <point x="285" y="668"/>
      <point x="272" y="606" type="curve" smooth="yes"/>
      <point x="170" y="100" type="line" smooth="yes"/>
      <point x="156" y="31"/>
      <point x="145" y="-41"/>
      <point x="145" y="-111" type="curve" smooth="yes"/>
      <point x="145" y="-297"/>
      <point x="207" y="-469"/>
      <point x="477" y="-469" type="curve" smooth="yes"/>
      <point x="608" y="-469"/>
      <point x="721" y="-406"/>
    </contour>
  </outline>
</glyph>
<glyph name="LtnSmTurnedT" format="2">
  <advance width="715"/>
  <unicode hex="0287"/>
  <anchor x="119" y="-500" name="L"/>
  <anchor x="439" y="1100" name="U"/>
  <outline>
    <contour>
      <point x="625" y="49" type="line"/>
      <point x="625" y="131" type="line"/>
      <point x="475" y="117" type="line"/>
      <point x="606" y="758" type="line" smooth="yes"/>
      <point x="612" y="786"/>
      <point x="614" y="813"/>
      <point x="614" y="840" type="curve" smooth="yes"/>
      <point x="614" y="946"/>
      <point x="541" y="1024"/>
      <point x="381" y="1024" type="curve" smooth="yes"/>
      <point x="252" y="1024"/>
      <point x="47" y="944"/>
      <point x="2" y="924" type="curve"/>
      <point x="2" y="811" type="line"/>
      <point x="68" y="836"/>
      <point x="195" y="883"/>
      <point x="258" y="883" type="curve" smooth="yes"/>
      <point x="313" y="883"/>
      <point x="342" y="854"/>
      <point x="342" y="801" type="curve" smooth="yes"/>
      <point x="342" y="789"/>
      <point x="341" y="777"/>
      <point x="338" y="764" type="curve" smooth="yes"/>
      <point x="205" y="113" type="line"/>
      <point x="-100" y="113" type="line"/>
      <point x="-100" y="0" type="line"/>
      <point x="182" y="0" type="line"/>
      <point x="139" y="-233" type="line"/>
      <point x="344" y="-233" type="line"/>
      <point x="449" y="-23" type="line"/>
    </contour>
  </outline>
</glyph>
<glyph name="LtnSmUpsilon" format="2">
  <advance width="1219"/>
  <unicode hex="028A"/>
  <anchor x="496" y="0" name="H"/>
  <anchor x="476" y="-100" name="L"/>
  <anchor x="745" y="0" name="O"/>
  <anchor x="1219" y="1000" name="R"/>
  <anchor x="720" y="1100" name="U"/>
  <outline>
    <contour>
      <point x="500" y="-25" type="curve" smooth="yes"/>
      <point x="872" y="-25"/>
      <point x="1120" y="279"/>
      <point x="1120" y="592" type="curve" smooth="yes"/>
      <point x="1120" y="719"/>
      <point x="1090" y="821"/>
      <point x="1042" y="893" type="curve"/>
      <point x="1192" y="899" type="line"/>
      <point x="1208" y="999" type="line"/>
      <point x="788" y="999" type="line"/>
      <point x="816" y="941"/>
      <point x="852" y="830"/>
      <point x="852" y="737" type="curve" smooth="yes"/>
      <point x="852" y="442"/>
      <point x="715" y="98"/>
      <point x="518" y="98" type="curve" smooth="yes"/>
      <point x="367" y="98"/>
      <point x="358" y="238"/>
      <point x="358" y="362" type="curve" smooth="yes"/>
      <point x="358" y="600"/>
      <point x="492" y="862"/>
      <point x="604" y="999" type="curve"/>
      <point x="182" y="999" type="line"/>
      <point x="166" y="903" type="line"/>
      <point x="305" y="893" type="line"/>
      <point x="182" y="756"/>
      <point x="66" y="565"/>
      <point x="66" y="369" type="curve" smooth="yes"/>
      <point x="66" y="129"/>
      <point x="207" y="-25"/>
    </contour>
  </outline>
</glyph>
<glyph name="LtnSmVHook" format="2">
  <advance width="1176"/>
  <unicode hex="028B"/>
  <anchor x="424" y="0" name="H"/>
  <anchor x="404" y="-100" name="L"/>
  <anchor x="734" y="0" name="O"/>
  <anchor x="648" y="1100" name="U"/>
  <outline>
    <contour>
      <point x="1110" y="664" type="curve" smooth="yes"/>
      <point x="1110" y="897"/>
      <point x="999" y="1024"/>
      <point x="821" y="1024" type="curve" smooth="yes"/>
      <point x="715" y="1024"/>
      <point x="670" y="932"/>
      <point x="670" y="889" type="curve" smooth="yes"/>
      <point x="670" y="858"/>
      <point x="701" y="816"/>
      <point x="725" y="793" type="curve"/>
      <point x="874" y="793" type="line"/>
      <point x="928" y="754"/>
      <point x="936" y="647"/>
      <point x="936" y="608" type="curve" smooth="yes"/>
      <point x="936" y="489"/>
      <point x="778" y="139"/>
      <point x="575" y="139" type="curve" smooth="yes"/>
      <point x="512" y="139"/>
      <point x="389" y="182"/>
      <point x="389" y="301" type="curve" smooth="yes"/>
      <point x="389" y="315"/>
      <point x="390" y="346"/>
      <point x="399" y="387" type="curve" smooth="yes"/>
      <point x="537" y="1024" type="line"/>
      <point x="395" y="1024" type="line"/>
      <point x="57" y="956" type="line"/>
      <point x="57" y="887" type="line"/>
      <point x="229" y="868" type="line"/>
      <point x="127" y="387" type="line" smooth="yes"/>
      <point x="114" y="324"/>
      <point x="106" y="270"/>
      <point x="106" y="244" type="curve" smooth="yes"/>
      <point x="106" y="82"/>
      <point x="250" y="-25"/>
      <point x="489" y="-25" type="curve" smooth="yes"/>
      <point x="963" y="-25"/>
      <point x="1110" y="483"/>
    </contour>
  </outline>
</glyph>
<glyph name="LtnSmTurnedW" format="2">
  <advance width="1534"/>
  <unicode hex="028D"/>
  <anchor x="718" y="-100" name="L"/>
  <anchor x="962" y="1100" name="U"/>
  <outline>
    <contour>
      <point x="1524" y="49" type="line"/>
      <point x="1524" y="115" type="line"/>
      <point x="1368" y="129" type="line"/>
      <point x="1311" y="969" type="line"/>
      <point x="1335" y="1024" type="line"/>
      <point x="1124" y="1024" type="line"/>
      <point x="1024" y="872"/>
      <point x="895" y="649"/>
      <point x="788" y="436" type="curve"/>
      <point x="748" y="1024" type="line"/>
      <point x="547" y="1024" type="line"/>
      <point x="494" y="961"/>
      <point x="-14" y="332"/>
      <point x="-14" y="104" type="curve" smooth="yes"/>
      <point x="-14" y="70"/>
      <point x="41" y="-25"/>
      <point x="152" y="-25" type="curve" smooth="yes"/>
      <point x="233" y="-25"/>
      <point x="274" y="20"/>
      <point x="289" y="37" type="curve"/>
      <point x="211" y="254" type="line"/>
      <point x="276" y="399"/>
      <point x="405" y="584"/>
      <point x="502" y="721" type="curve"/>
      <point x="551" y="0" type="line"/>
      <point x="782" y="25" type="line"/>
      <point x="868" y="221"/>
      <point x="969" y="436"/>
      <point x="1063" y="618" type="curve"/>
      <point x="1100" y="0" type="line"/>
      <point x="1249" y="-25" type="line"/>
    </contour>
  </outline>
</glyph>
<glyph name="LtnSmEzhCurl" format="2">
  <advance width="1055"/>
  <unicode hex="0293"/>
  <anchor x="336" y="-500" name="L"/>
  <anchor x="656" y="1100" name="U"/>
  <outline>
    <contour>
      <point x="342" y="162" type="line"/>
      <point x="438" y="289" type="line"/>
      <point x="532" y="258"/>
      <point x="643" y="154"/>
      <point x="643" y="27" type="curve" smooth="yes"/>
      <point x="643" y="-247"/>
      <point x="452" y="-352"/>
      <point x="324" y="-352" type="curve" smooth="yes"/>
      <point x="237" y="-352"/>
      <point x="117" y="-314"/>
      <point x="117" y="-233" type="curve" smooth="yes"/>
      <point x="117" y="-174"/>
      <point x="162" y="-131"/>
      <point x="241" y="-131" type="curve" smooth="yes"/>
      <point x="350" y="-131"/>
      <point x="442" y="-206"/>
      <point x="518" y="-328" type="curve" smooth="yes"/>
      <point x="547" y="-375"/>
      <point x="574" y="-430"/>
      <point x="598" y="-490" type="curve"/>
      <point x="721" y="-424" type="line"/>
      <point x="694" y="-359"/>
      <point x="664" y="-300"/>
      <point x="630" y="-248" type="curve" smooth="yes"/>
      <point x="535" y="-103"/>
      <point x="411" y="-14"/>
      <point x="231" y="-14" type="curve" smooth="yes"/>
      <point x="48" y="-14"/>
      <point x="-77" y="-104"/>
      <point x="-77" y="-235" type="curve" smooth="yes"/>
      <point x="-77" y="-362"/>
      <point x="37" y="-469"/>
      <point x="279" y="-469" type="curve" smooth="yes"/>
      <point x="549" y="-469"/>
      <point x="926" y="-255"/>
      <point x="926" y="27" type="curve" smooth="yes"/>
      <point x="926" y="240"/>
      <point x="782" y="371"/>
      <point x="555" y="397" type="curve"/>
      <point x="1124" y="915" type="line"/>
      <point x="938" y="1057" type="line"/>
      <point x="846" y="930" type="line"/>
      <point x="840" y="928"/>
      <point x="807" y="920"/>
      <point x="799" y="920" type="curve" smooth="yes"/>
      <point x="702" y="920"/>
      <point x="559" y="1024"/>
      <point x="401" y="1024" type="curve" smooth="yes"/>
      <point x="197" y="1024"/>
      <point x="80" y="866"/>
      <point x="80" y="725" type="curve" smooth="yes"/>
      <point x="80" y="657"/>
      <point x="158" y="594"/>
      <point x="231" y="594" type="curve" smooth="yes"/>
      <point x="281" y="594"/>
      <point x="356" y="631"/>
      <point x="383" y="674" type="curve"/>
      <point x="279" y="801" type="line"/>
      <point x="292" y="827"/>
      <point x="309" y="852"/>
      <point x="342" y="852" type="curve" smooth="yes"/>
      <point x="399" y="852"/>
      <point x="465" y="818"/>
      <point x="569" y="805" type="curve" smooth="yes"/>
      <point x="612" y="800"/>
      <point x="700" y="799"/>
      <point x="745" y="799" type="curve"/>
      <point x="178" y="299" type="line"/>
    </contour>
  </outline>
</glyph>
<glyph name="LtnSmCapH" format="2">
  <advance width="1235"/>
  <unicode hex="029C"/>
  <anchor x="489" y="-100" name="L"/>
  <anchor x="733" y="1100" name="U"/>
  <outline>
    <contour>
      <point x="-70" y="0" type="line"/>
      <point x="471" y="0" type="line"/>
      <point x="471" y="96" type="line"/>
      <point x="360" y="106" type="line" smooth="yes"/>
      <point x="340" y="109"/>
      <point x="328" y="115"/>
      <point x="334" y="137" type="curve"/>
      <point x="403" y="467" type="line"/>
      <point x="801" y="467" type="line"/>
      <point x="729" y="137" type="line" smooth="yes"/>
      <point x="725" y="117"/>
      <point x="707" y="109"/>
      <point x="692" y="106" type="curve"/>
      <point x="594" y="96" type="line"/>
      <point x="594" y="0" type="line"/>
      <point x="1135" y="0" type="line"/>
      <point x="1135" y="96" type="line"/>
      <point x="1024" y="106" type="line" smooth="yes"/>
      <point x="1004" y="109"/>
      <point x="993" y="115"/>
      <point x="997" y="137" type="curve" smooth="yes"/>
      <point x="1153" y="860" type="line" smooth="yes"/>
      <point x="1157" y="885"/>
      <point x="1167" y="891"/>
      <point x="1196" y="893" type="curve"/>
      <point x="1290" y="903" type="line"/>
      <point x="1290" y="999" type="line"/>
      <point x="750" y="999" type="line"/>
      <point x="750" y="903" type="line"/>
      <point x="854" y="893" type="line"/>
      <point x="879" y="889"/>
      <point x="891" y="885"/>
      <point x="887" y="862" type="curve" smooth="yes"/>
      <point x="825" y="580" type="line"/>
      <point x="428" y="580" type="line"/>
      <point x="489" y="860" type="line" smooth="yes"/>
      <point x="494" y="883"/>
      <point x="502" y="889"/>
      <point x="528" y="893" type="curve" smooth="yes"/>
      <point x="627" y="903" type="line"/>
      <point x="627" y="999" type="line"/>
      <point x="86" y="999" type="line"/>
      <point x="86" y="903" type="line"/>
      <point x="193" y="893" type="line"/>
      <point x="217" y="889"/>
      <point x="227" y="883"/>
      <point x="221" y="862" type="curve"/>
      <point x="66" y="137" type="line" smooth="yes"/>
      <point x="61" y="115"/>
      <point x="49" y="109"/>
      <point x="29" y="106" type="curve"/>
      <point x="-70" y="96" type="line"/>
    </contour>
  </outline>
</glyph>
